<svg width="32" height="32" viewBox="0 0 231 231" fill="none" xmlns="http://www.w3.org/2000/svg">
    <path fill-rule="evenodd" clip-rule="evenodd" d="M164.405 79.5736H187.958V153.195L166.489 176.401V144.786V106.995L152.366 120.178L139.295 107.41V174.18V205.794L117.826 229V79.5736H141.521L152.703 90.4955L164.405 79.5736Z" fill="black"/>
    <path fill-rule="evenodd" clip-rule="evenodd" d="M113.532 101.043V228.853L43.041 153.218V79.5736H92.0624L113.532 101.043ZM64.5102 144.763L92.0624 174.327V101.043H64.5102V144.763Z" fill="black"/>
    <path d="M99.0442 3C94.5232 3 90.8578 6.64438 90.8578 11.1426C90.8578 14.9305 93.4594 18.1095 96.9794 19.0213L88.6072 38.3261C92.3681 39.0058 95.2172 42.2805 95.2172 46.2189C95.2172 50.6498 91.6096 54.2445 87.1563 54.2445C82.7026 54.2445 79.0949 50.6496 79.0949 46.2187C79.0949 43.0686 80.9196 40.3464 83.5733 39.0327L71.5367 20.3678C73.4333 18.9966 74.6682 16.7772 74.6682 14.2644C74.6682 10.0958 71.2775 6.71082 67.0881 6.71082C62.8982 6.71082 59.5005 10.0965 59.5005 14.2644C59.5005 18.433 62.8982 21.8114 67.0876 21.8114C67.2615 21.8114 67.4354 21.8081 67.6059 21.7968L77.5327 75.2798H152.386L162.319 21.7968C162.49 21.8081 162.664 21.8116 162.838 21.8116C167.027 21.8116 170.425 18.433 170.425 14.2646C170.425 10.096 167.027 6.71106 162.838 6.71106C158.648 6.71106 155.251 10.0967 155.251 14.2646C155.25 16.7911 156.503 19.0209 158.418 20.3904L146.419 39.1288C148.972 40.4765 150.713 43.1436 150.713 46.2192C150.713 50.65 147.105 54.2447 142.652 54.2447C138.199 54.2447 134.59 50.6498 134.59 46.2189C134.59 42.1877 137.576 38.8522 141.467 38.282L133.235 19.0725C136.854 18.2297 139.55 14.9995 139.55 11.1426C139.55 6.64391 135.884 3 131.363 3C126.841 3 123.176 6.64438 123.176 11.1426C123.176 14.6291 125.381 17.6018 128.476 18.7633L117.928 36.6625C121.391 37.7274 123.909 40.9298 123.909 44.7245C123.909 49.3886 120.107 53.1694 115.419 53.1694C110.731 53.1694 106.936 49.3886 106.936 44.7242C106.936 41.1529 109.163 38.1032 112.31 36.8684L101.858 18.7926C104.992 17.651 107.232 14.6572 107.232 11.1424C107.232 6.64367 103.566 3 99.0442 3Z" fill="black"/>
</svg>
