<svg xmlns="http://www.w3.org/2000/svg" xmlns:xlink="http://www.w3.org/1999/xlink" width="123" height="158.97" viewBox="0 0 123 158.97"> <defs> <style> .a { fill: url(#a); } .b { fill: url(#b); } .c { fill: url(#c); } .d { fill: url(#d); } .e { fill: url(#e); } .f { fill: url(#f); } .g { fill: url(#g); } .h { fill: url(#h); } </style> <linearGradient id="a" x1="-1313.35" y1="-3132.86" x2="5498.54" y2="11758.22" gradientUnits="userSpaceOnUse"> <stop offset="0" stop-color="#cca57f"/> <stop offset="0.03" stop-color="#d5b28e"/> <stop offset="0.09" stop-color="#dfc3a1"/> <stop offset="0.16" stop-color="#e7ceae"/> <stop offset="0.25" stop-color="#ecd5b6"/> <stop offset="0.41" stop-color="#edd7b8"/> <stop offset="0.78" stop-color="#cca57f"/> <stop offset="1" stop-color="#af8367"/> </linearGradient> <linearGradient id="b" x1="-329.63" y1="-997.83" x2="1986.82" y2="4066.01" xlink:href="#a"/> <linearGradient id="c" x1="-45.92" y1="-365.29" x2="987.74" y2="1894.33" xlink:href="#a"/> <linearGradient id="d" x1="-62.26" y1="-369.94" x2="986.83" y2="1923.42" xlink:href="#a"/> <linearGradient id="e" x1="9.53" y1="-219.1" x2="654.26" y2="1190.3" xlink:href="#a"/> <linearGradient id="f" x1="175.9" y1="149.3" x2="214.33" y2="233.3" xlink:href="#a"/> <linearGradient id="g" x1="105.52" y1="32.54" x2="406.58" y2="690.67" xlink:href="#a"/> <linearGradient id="h" x1="117.53" y1="47.04" x2="382.07" y2="625.34" xlink:href="#a"/> </defs> <g> <path class="a" d="M241.5,180.23v-.1a.66.66,0,0,0-.18-.23.4.4,0,0,0-.28,0l-.06,0a.34.34,0,0,0-.16.1,19.42,19.42,0,0,1-11.49,7c-5,1-10.41.5-16.18,0-6.34-.6-12.9-1.21-19.47.14a30.87,30.87,0,0,0-9.06,3.34c-15.46,8.61-20.44,24.83-21.94,32.11q-.68-5.31-1.21-10.64c-.43-4.35-.81-8.71-1-13.08q-.12-2.31-.15-4.62,0-1.05,0-2.1a4.47,4.47,0,0,1,.25-2,6,6,0,0,1,1.52-1.55l.42-.36a16.84,16.84,0,0,1,3.1-2.27,5.08,5.08,0,0,1,1.23-.51,2.19,2.19,0,0,1,.85,0,.4.4,0,0,0,.21,0,.35.35,0,0,0,.17-.17,8.07,8.07,0,0,0,7.33.63,8.83,8.83,0,0,0,1.51-.81,24.15,24.15,0,0,0,6.15-5.95,18.25,18.25,0,0,1,1.58-1.87,38.41,38.41,0,0,0,5.54-7.9l.12-.23c.88-1.74,1.71-3.64,1.28-4.61a1,1,0,0,0-.65-.55,1.4,1.4,0,0,0-1,.11.7.7,0,0,0-.28-.12,3.17,3.17,0,0,0-1.3,0l-.24,0a6.67,6.67,0,0,0-1.78.4l-.35.15c-.78.33-2,.73-3.38,1.16-1,.3-1.92.61-2.73.9.61-1.28,1-2.23.61-2.68l-.06-.07a.65.65,0,0,0-.68-.15,2.29,2.29,0,0,0-.47.33,27.67,27.67,0,0,1-3.31,2.24c-3.93,2.36-10.07,7.81-9.81,12.4,0,.71.09,1.35.14,1.94a1.81,1.81,0,0,0-.75,1.74h-.05a1,1,0,0,0-.59.27.27.27,0,0,0-.08.19l-.05.51a1,1,0,0,1-.06.32,3.64,3.64,0,0,1-.68.54,4.27,4.27,0,0,0-.56.42,3.94,3.94,0,0,1-1.19.82l-.47.19c-.52.22-1,.58-1-.2a11.41,11.41,0,0,1,.19-1.17l.3-2.07c.2-1.29.39-2.57.6-3.86.35-2.15.73-4.29,1.16-6.43A29.86,29.86,0,0,1,173.46,153L175,151.6a14.14,14.14,0,0,1,6.25,1.15l.12.05a73.38,73.38,0,0,1,8.44,4.36c1,.58,2.11,1.19,3.24,1.81,1.79,1,3.71,2,5.82,3.08a16.14,16.14,0,0,0,1.83.77l.32.11a17.18,17.18,0,0,0,6,1h.42c.45,0,.89,0,1.34-.08l.59-.06c.29,0,.59-.09.88-.14s.63-.08.95-.15a25,25,0,0,0,11.33-5.69c2.89-2.55,3.44-6,4-9.43a19.78,19.78,0,0,1,1.83-6.62,9,9,0,0,1,1.25-1.76c1-1.06,1.29-1.82,1-2.4a1.4,1.4,0,0,0-1.3-.64,22.06,22.06,0,0,0-2.57.37,22.33,22.33,0,0,0-8.29,3.8,29.59,29.59,0,0,1-7.57,3.88,16,16,0,0,1-1.75.46c-6.05,1.24-12.75-.8-18.69-2.64,1.3-.17,2.39-.35,3.3-.53a10.86,10.86,0,0,0,4.64-1.86l.42-.29a23.24,23.24,0,0,1,5.13-2.8c7.08-3,15.86-7.07,21-12.8,4.91-5.51,9.33-16.5,9.51-17a.39.39,0,0,0,0-.26l0-.06a.2.2,0,0,0,0-.08.73.73,0,0,0-.14-.11.37.37,0,0,0-.23,0l-1.23.23c-3.31.69-14.7,3.31-22,8.45-3.24,2.28-5.94,4.4-8.31,6.26l-.58.46c4.09-4.55,10.6-12.45,11.84-18,.95-4.25-.05-7.89-1.84-12a17.73,17.73,0,0,1-.73-3.43c-.5-3.18-1.06-6.79-3.21-7.41a2.22,2.22,0,0,0-1.09,0,8.18,8.18,0,0,0-3.4,2.25l-.67.6-2.62,2.2c-.3-.61-.6-1.18-.88-1.72a18.92,18.92,0,0,1-1.53-3.46c-.54-2.14-2.38-3.67-4-5-1.17-1-2.28-1.9-2.28-2.67a5,5,0,0,0-1.26-3.61,1.62,1.62,0,0,0-2.22.21,11.39,11.39,0,0,1-3.37,2c-.81.08-1.61.2-2.37.35-5.07,1-8.11,3.59-10.55,5.63-.65.55-1.27,1-1.88,1.48a16.31,16.31,0,0,0-2.35-4.15,11.09,11.09,0,0,1-2.2-4.16c-.18-.54-.38-1.15-.67-1.88C164,68.11,163,68,162.32,68.11c-1.4.29-3.2,2.06-5.37,5.28A50.89,50.89,0,0,0,153,80.15c-1.47-4.14-2.48-6.07-3.45-5.87-.54.11-.75.8-.82,1-.15.51-.4,1.29-.72,2.28-2.26,7.07-8.11,25.39-7.33,33.19A21,21,0,0,0,134.3,108c-2.78-.79-5-1.42-6.94-4.68-1.34-2.22-2.64-4.73-3.79-7-2.6-5-3.52-6.61-4.42-6.42a.62.62,0,0,0-.25.11c-.42.32-1.31,1,2.58,18.1,1.33,5.87,13.52,17.54,16.34,19.35a70.42,70.42,0,0,1,10.74,9.56c1.24,1.67,4.92,4.06,6.06,3.93.59,0,2.32,3.07,3.25,4.69a16.48,16.48,0,0,0,2,3.06,9.07,9.07,0,0,0,4.13,1.91.47.47,0,0,0,.07.29,3.26,3.26,0,0,0,.55.51,2.26,2.26,0,0,1,.47.45.92.92,0,0,1,.1.88,1,1,0,0,0,0,.15,1.69,1.69,0,0,0-.45,1.14,2.91,2.91,0,0,0,.29,1.28,2.57,2.57,0,0,1,.22.83,3.79,3.79,0,0,1-.59,1.36c-.09.15-.18.3-.24.42s-.24.39-.46.74c-.76,1.21-1.23,2-1.49,2.52l-3-4.36a.43.43,0,0,0-.51-.12.4.4,0,0,0-.2.48c0,.08,2.8,8.4,2.14,11.69-.16.83-.51,2.29-.94,4.13-1.39,5.86-3.49,14.71-3.45,18.66,0,.93,0,2.32,0,4-.1,7.7-.3,22,1.6,31a.4.4,0,0,0,.43.31s3.91-.45,3.93-.44,0,.05.1.06a.34.34,0,0,0,.14,0,1.07,1.07,0,0,0,.28-.12.39.39,0,0,0,.23-.15.34.34,0,0,0,.08-.29s0-.23-.07-.55c3.07-12.31,10.24-18.38,25.31-21.47a166.48,166.48,0,0,1,19.9-2.51,55.17,55.17,0,0,0,6.51-.91c21.19-4.36,26.66-20.12,26.71-20.28S241.5,180.28,241.5,180.23Zm-73.73,4.15a2.87,2.87,0,0,1-.42-1.6s0-.08,0-.12a17.25,17.25,0,0,1,1.64-4.31c2.27-4.7,3.85-7.23,6.66-8.88a15.22,15.22,0,0,0,3.23-2.5l0,0s0,0,0,0a.21.21,0,0,1,0,.07c-.09.2-.17.39-.23.57a1,1,0,0,0-.06.16,2.59,2.59,0,0,0-.13.47,6.61,6.61,0,0,1-.39,1.23,10.59,10.59,0,0,0-.87,4.27c.09,1.81-3.81,8.58-8,10.32a5.26,5.26,0,0,1-1.08.32A.48.48,0,0,1,167.77,184.38Zm22.45-19.65a.57.57,0,0,1,.5-.12.21.21,0,0,1,.17.14c.23.52-.19,1.86-1.26,4l-.12.24a38,38,0,0,1-5.4,7.7,17.1,17.1,0,0,0-1.64,1.94,23.73,23.73,0,0,1-6,5.79,7.62,7.62,0,0,1-1.37.74,7.42,7.42,0,0,1-6-.22l.33-.12c.27-.12.54-.25.81-.4a10.82,10.82,0,0,0,1.29-.87c.07,0,.12.05.21.07a5.73,5.73,0,0,0,1.95.23,7.84,7.84,0,0,0,2.7-.65,11.24,11.24,0,0,0,2.68-1.73A34.76,34.76,0,0,0,183,177c1-1.26,1.66-2.11,1.66-2.11l-1.81,2a49.28,49.28,0,0,1-4,4.26,10.8,10.8,0,0,1-2.57,1.72,8.18,8.18,0,0,1-2.59.74,6.16,6.16,0,0,1-1.91-.09l-.19,0a16.21,16.21,0,0,0,2-1.85h0a9.59,9.59,0,0,1,3.82-1.43,2.44,2.44,0,0,0,.57-.16c2.28-.95,4.22-5.35,5.53-8.33l.19-.42a8.57,8.57,0,0,1,3.36-3.7,18.65,18.65,0,0,0,2.11-1.68l.21-.16A2.39,2.39,0,0,0,190.22,164.73Zm-7.37,1.59c1.35-.44,2.62-.85,3.43-1.18l.35-.15a5.72,5.72,0,0,1,1.58-.36l.27,0a3.62,3.62,0,0,1,.72-.06.39.39,0,0,0,.15,0l.14,0a3.15,3.15,0,0,1-.62.59,2.32,2.32,0,0,0-.26.21,18.67,18.67,0,0,1-2,1.62,9.26,9.26,0,0,0-3.61,4l-.18.42c-1.2,2.71-3.41,7.74-5.55,8.07a10.56,10.56,0,0,0-2.49.68c1.89-2.46,3.17-5.17,3.11-6.42a9.88,9.88,0,0,1,.83-4,7.23,7.23,0,0,0,.43-1.38,2.11,2.11,0,0,1,.11-.41l.06-.15.15-.35a0,0,0,0,1,0,0C180.34,167.12,181.61,166.71,182.85,166.32Zm-6.5.5a28.07,28.07,0,0,0,3.37-2.28c-.46,1.14-1.92,2.81-4.45,4.29-3.24,1.91-4.93,5-6.94,9.2a28.87,28.87,0,0,0-1.25,2.91c-.07-.71-.13-1.48-.18-2.39C166.67,174.5,172.29,169.25,176.35,166.82Zm39.37-5.66a23.28,23.28,0,0,1-2.23.86l-.17.06a22.47,22.47,0,0,1-2.34.62c-.58.12-1.16.22-1.74.29l-.38,0c-.48,0-1,.08-1.42.09H207c-.6,0-1.2,0-1.8-.08h-.05a17.3,17.3,0,0,1-3.85-.85l-.29-.1a18.16,18.16,0,0,1-1.76-.74c-1.3-.65-2.52-1.29-3.7-1.92l-1.11-.6-.09,0c-1.47-.8-2.85-1.58-4.14-2.32s-2.74-1.54-4-2.22l-.19-.11-1.46-.75-.53-.27c-.45-.22-.88-.41-1.32-.6l-.58-.26-.38-.17c.93-.89,2.49-.85,4.76.07,4.15,1.67,7.61,2.58,12,2a12.1,12.1,0,0,1,9.6,3.28c2.49,2.4,5,3.61,7.64,3.73Zm-6.44-14.93a15.36,15.36,0,0,0,1.83-.49,30.48,30.48,0,0,0,7.77-4,21.44,21.44,0,0,1,8-3.69,23.08,23.08,0,0,1,2.46-.36c.15,0,.47.05.53.18s.14.41-.89,1.54A10.48,10.48,0,0,0,226.9,143l-.56.5-2,1.85c-.74.68-1.46,1.45-2.28,2.11a18.75,18.75,0,0,1-4.82,3.18c-1.45.66-2.44,1.06-2.44,1.06s1-.29,2.52-.85a14.69,14.69,0,0,0,2.47-1.21,21.77,21.77,0,0,0,2.53-1.88c.81-.68,1.54-1.48,2.26-2.16l1.91-1.94.26-.28a29.47,29.47,0,0,0-1,4.83c-.54,3.39-1.05,6.6-3.72,9a24.33,24.33,0,0,1-4.44,3.06c-3.18.43-6-.65-8.87-3.42a12.89,12.89,0,0,0-10.26-3.49c-4.27.57-7.62-.32-11.64-1.94-2.83-1.14-4.73-1-5.85.39a14.94,14.94,0,0,0-5.49-1l0-.06.84-.61,1.14-.82c.09,0,.16-.11.25-.17l1.43-1,.05,0c.48-.33,1-.66,1.48-1l.16-.11,1.57-1a3.14,3.14,0,0,0,.31-.18l.49-.28.25-.14c.6-.34,1.21-.65,1.81-.93l.27-.12c.64-.29,1.27-.56,1.9-.78a13.74,13.74,0,0,1,1.45-.44l1.2.37C196.08,145.39,203,147.53,209.28,146.23Zm22.84-35.42-.59,1.26c-.07.14-.14.28-.2.42l-.6,1.22-.13.27-.76,1.48c-.08.15-.16.3-.25.45q-.36.69-.75,1.38l-.13.23c-.29.51-.58,1-.89,1.52l-.26.43c-.3.48-.59,1-.9,1.41l-.08.12c-.33.49-.66,1-1,1.39l-.26.34c-.35.45-.69.88-1,1.27-5,5.62-13.67,9.68-20.67,12.6a29.31,29.31,0,0,0-2.66,1.24,21.54,21.54,0,0,0-2.62,1.64,15.26,15.26,0,0,1-1.34.87,11.71,11.71,0,0,1-3.42,1.15c-1,.19-2.09.37-3.48.55a18.82,18.82,0,0,0-7.23,2.71h0l-.11.06a63,63,0,0,0-6,3.9c.1-.23.22-.5.38-.84.15-.19.28-.39.42-.59l.19-.29c.07-.1.15-.2.22-.31,4.56-3.82,11.67-6.4,15.09-7.64l1.09-.4c3.27-1.23,6.74-4.35,10.42-7.66l2-1.83c3.46-3.06,9.1-6.62,17.25-10.91a28.29,28.29,0,0,0,8.33-7.5ZM202.93,122.6c2.38-1.86,5.06-4,8.29-6.24,7.14-5,18.4-7.64,21.67-8.32l.29-.05c-1.34,2-5.18,7.17-9.74,9.57-8.2,4.31-13.9,7.92-17.41,11l-2,1.83c-3.62,3.26-7,6.33-10.16,7.51l-1.09.39c-3.12,1.14-9.25,3.37-13.85,6.65.05-.1.08-.2.13-.3.17-.36.32-.73.46-1.11.05-.12.1-.24.14-.36l.15-.38c.21-.37.42-.71.63-1.07l.37-.63.52-.81.47-.74.39-.57c.2-.29.39-.58.59-.85l.24-.33c.24-.33.48-.66.71-1l.1-.13c.28-.36.56-.71.84-1v0c3.38-4.06,6.35-5.84,8.5-6.6.38-.14.76-.3,1.15-.47l.16-.09c.36-.17.73-.37,1.1-.58l.11-.06A69.39,69.39,0,0,0,202.93,122.6ZM203.28,85c.21-.17.44-.39.7-.63a7.74,7.74,0,0,1,3-2,1.41,1.41,0,0,1,.71,0c1.66.49,2.21,4,2.64,6.77a17.56,17.56,0,0,0,.79,3.62c1.78,4.14,2.7,7.51,1.8,11.57-1.67,7.48-13.74,19.92-14.87,21.07l-.1.07c-.45.32-.87.62-1.28.89l-.25.16c-.37.25-.72.46-1.06.66l-.24.15c-.34.19-.65.35-1,.5l-.22.11a9.57,9.57,0,0,1-1.08.45c-.2.07-.4.14-.6.23l-.24.1-.41.18-.27.14-.41.21-.28.16-.43.25-.3.18-.47.31-.27.19c-.18.12-.36.26-.54.4l-.23.17-.65.52-.15.13a36.91,36.91,0,0,0-7.08,8.49q.16-.74.3-1.44c.08-.35.15-.7.22-1,.91-4.16,5.05-10.35,11.21-14.15,4.82-3,6.67-8.31,8.34-15.09.29-1.2.58-2.44.88-3.72.24-1,.49-2.13.75-3.22a0,0,0,0,0,0,0c.16-.66.27-1.31.36-1.94,0-.11,0-.22,0-.34a17.36,17.36,0,0,0,.14-1.87V97a21.45,21.45,0,0,0-2.3-9.75ZM169.64,80.9l.22-.15s0,0,0,0c.75-.52,1.51-1.14,2.32-1.81,2.37-2,5.33-4.46,10.2-5.46.73-.15,1.5-.26,2.37-.36a11.77,11.77,0,0,0,3.74-2.23c.46-.4.83-.48,1.19-.19a4.29,4.29,0,0,1,1,3c0,1.14,1.18,2.13,2.56,3.28,1.53,1.27,3.26,2.72,3.74,4.61a18.84,18.84,0,0,0,1.6,3.62c.34.67.71,1.39,1.08,2.15h0a24.72,24.72,0,0,1,2,5.94v0a18.24,18.24,0,0,1,.32,3.55v.19c0,.59-.06,1.19-.13,1.81,0,.11,0,.21,0,.32-.09.62-.2,1.26-.35,1.92v0c-.11.47-.22.92-.32,1.39s-.3,1.24-.44,1.84c-1.94,8.38-3.47,15-8.86,18.31-6.64,4.1-10.65,10.47-11.56,14.66l-.18.82c-.23,1.07-.45,2.1-.73,3.11,0,.14-.07.27-.11.41-.13.44-.26.87-.42,1.3l-.09.26c-.14.37-.3.73-.47,1.09l-.21.46a16.08,16.08,0,0,1-1,1.65c-.27.41-.58.81-.89,1.21-.19.24-.36.48-.56.71a19.15,19.15,0,0,1-1.66,1.73.6.6,0,0,0-.09.13c0,.06-.06.14-.1.21a12.77,12.77,0,0,1-1,.94,3.45,3.45,0,0,1-1.27.74A.94.94,0,0,1,171,152a10.38,10.38,0,0,0-2.09-2.54c-.36-.36-.71-.7-1-1l-1.21-1.41a.8.8,0,0,1-.08-.16,10.79,10.79,0,0,1-.64-1.55l-.09-.31a10.75,10.75,0,0,1-.34-1.65,134.36,134.36,0,0,0-4.44-20.19c-.4-1.36-.81-2.7-1.23-4-.27-.83-.53-1.71-.78-2.61l-.09-.3c-.24-.88-.46-1.79-.67-2.71l-.09-.42c-.21-.94-.4-1.89-.56-2.87a2,2,0,0,1,0-.26q-.26-1.47-.42-3a.78.78,0,0,0,0-.14c-.11-1-.18-2-.23-3,0-.13,0-.27,0-.4,0-1,0-2,0-2.9,0-.11,0-.22,0-.34,0-1,.12-2,.25-2.9v0a23.3,23.3,0,0,1,.55-2.74h0A16.7,16.7,0,0,1,159,91.39c3.08-6.09,6-7.77,8.81-9.4h0c.59-.35,1.19-.69,1.77-1.07Zm-12-7.06c2.55-3.79,4-4.79,4.87-5,.38-.08.93-.06,1.37,1,.28.7.47,1.27.65,1.83a12,12,0,0,0,2.34,4.41,15.91,15.91,0,0,1,2.32,4.13c-.57.36-1.14.69-1.72,1-2.92,1.68-5.95,3.43-9.14,9.73a.3.3,0,0,0,0,.1,11.9,11.9,0,0,0-.51,1.14c-.09.23-.17.46-.26.7l-.1.27s0-.07,0-.11c-.13-.33-.26-.7-.4-1.1,0-.11-.08-.22-.11-.33l-.35-1c-.05-.15-.09-.3-.14-.45-.13-.39-.26-.79-.4-1.2l-.67-2.12c-.25-.76-.48-1.48-.7-2.17l-.36-1.12c-.2-.61-.39-1.18-.58-1.73-.07-.23-.15-.47-.23-.69A47.59,47.59,0,0,1,157.61,73.84Zm-8.8,4c.32-1,.57-1.77.72-2.29a1.51,1.51,0,0,1,.21-.47c.64.15,1.85,3.29,3,6.69.26.75.51,1.51.77,2.29a2.81,2.81,0,0,0,.1.31c.3.93.6,1.88.9,2.8.68,2.14,1.33,4.18,1.88,5.71l.1.27c.05.14.1.26.15.38s.08.24.12.34.08.18.12.27a2,2,0,0,0,.14.33,1.55,1.55,0,0,0,0,.21,23.27,23.27,0,0,0-.52,2.59h0s0,.06,0,.08h0s0,0,0,.07c-.12.9-.19,1.84-.23,2.79l0,.56c0,.9,0,1.81,0,2.73,0,.23,0,.45,0,.69.05.92.12,1.84.22,2.77l.06.5c.11.9.23,1.79.38,2.68l.06.37c.16.95.35,1.9.55,2.83,0,.16.07.32.11.48.2.92.43,1.82.66,2.7,0,.12.07.23.1.35.25.9.51,1.78.78,2.61,1,3,1.9,6.18,2.72,9.39l0,.16c.08.3.15.6.23.9l.18.73c0,.15.07.29.11.44.09.39.19.78.28,1.17l0,.14q.18.74.33,1.44c.23,1,.44,2,.64,3,0,0,0,0,0,.07.49,2.47.86,4.72,1.07,6.57a9.92,9.92,0,0,0,.29,1.5c0,.07,0,.13,0,.2l-1.3-1.55c-2.39-2.86-4.81-5.91-6.47-8.34-.29-.43-.57-.85-.84-1.28l-.34-.55c-.81-1.37-1.71-3.07-2.66-4.87-.81-1.52-1.67-3.13-2.57-4.75h0c-.44-.79-.89-1.57-1.35-2.35l-.06-.1q-.67-1.14-1.38-2.25a.57.57,0,0,1-.08-.13c-.47-.72-.95-1.43-1.44-2.11l-.1-.15c-.48-.67-1-1.31-1.49-1.93l-.11-.14c-.5-.6-1-1.17-1.54-1.69a1.59,1.59,0,0,0-.13-.13,18.53,18.53,0,0,0-1.59-1.4.87.87,0,0,0-.1-.08C140.36,104.24,146.49,85.07,148.81,77.82Zm11.55,70.36a21.18,21.18,0,0,1-1.8-2.87c-1.85-3.25-3.05-5.21-4-5.09-.65.07-4.08-1.93-5.33-3.62a70.37,70.37,0,0,0-10.95-9.75c-3.16-2-14.78-13.52-16-18.85-3.19-14.07-3.08-16.74-2.92-17.22.63.41,2.16,3.35,3.52,6,1.16,2.23,2.47,4.75,3.82,7a9.74,9.74,0,0,0,3.06,3.29c-.43-.06-.87-.09-1.32-.12a34.91,34.91,0,0,1-4.42-.57,11.15,11.15,0,0,0,1.33.46,16.2,16.2,0,0,0,3.07.51,18.63,18.63,0,0,1,2.07.15,19.12,19.12,0,0,0,3.61,1.32,19.44,19.44,0,0,1,6.89,3.13c2.89,2.15,5.55,5.93,7.92,10,1.41,2.38,2.72,4.84,3.91,7.1.57,1.06,1.11,2.08,1.63,3,.36.67.72,1.3,1.06,1.88l.18.3.28.44c.22.34.44.68.69,1a95.07,95.07,0,0,0,6.15,8l.41.49c.19.22.4.46.59.7l1.14,1.35.63.73.49.58,0,0a15.47,15.47,0,0,0,2.39,3.34c-.76-.22-1.54-.38-2.29-.53l-.67-.14C163.64,149.81,161.72,149.42,160.36,148.18Zm1.76,77.63-3.47.4c-1.8-8.88-1.61-22.89-1.5-30.46,0-1.71,0-3.1,0-4,0-3.85,2.13-13,3.43-18.47.44-1.85.78-3.31.95-4.16.47-2.36-.62-6.88-1.42-9.68l2.07,3a.4.4,0,0,0,.71-.33,20.88,20.88,0,0,1,1.63-2.88c.24-.38.43-.68.49-.8s.14-.25.22-.39a3.86,3.86,0,0,0,.7-1.76,3.18,3.18,0,0,0-.27-1.12,2.3,2.3,0,0,1-.24-1,.82.82,0,0,1,.29-.67.44.44,0,0,0,.16-.26.33.33,0,0,0,0-.14,1.72,1.72,0,0,0-.2-1.6,2.13,2.13,0,0,0-.38-.41,12.85,12.85,0,0,1,3.49,1,5.64,5.64,0,0,1,.53.31,3.87,3.87,0,0,0,1.56.69,3,3,0,0,0,1.78-.44,35.52,35.52,0,0,0-8.08,11,33.87,33.87,0,0,0-2.19,7.72c-.44,2.11-.81,4.23-1.16,6.35-.21,1.26-.41,2.53-.6,3.79a27.4,27.4,0,0,0-.57,4.12,1.11,1.11,0,0,0,.58,1.12c.6.23,1-.27,1.45-.48a4.75,4.75,0,0,1,.54-.21,4.73,4.73,0,0,0,1.33-.95,5.09,5.09,0,0,1,.48-.35,3,3,0,0,0,.9-.78,1.58,1.58,0,0,0,.16-.62l0-.29h0a1,1,0,0,0,.32-.08.55.55,0,0,0,.33-.33.8.8,0,0,0,0-.43.9.9,0,0,1,0-.4c0,.13.09.26.14.4a.58.58,0,0,1,0,.14c0,.27.07.54.1.77a1.34,1.34,0,0,0,0,.33c0,.26.08.52.12.73a1.17,1.17,0,0,0,.22.51l-.3.05a6.06,6.06,0,0,0-1.4.57,17.13,17.13,0,0,0-3.24,2.37l-.43.36c-.8.68-2,1.57-2.05,2.73,0,.33,0,.67,0,1,0,.71,0,1.42,0,2.12,0,4,.29,8,.61,11.93s.72,7.81,1.17,11.71q.43,3.82.94,7.64C162.17,225.41,162.14,225.64,162.12,225.81ZM185,191.1a30.42,30.42,0,0,1,8.84-3.25c6.46-1.33,12.95-.72,19.23-.13,5.83.55,11.34,1.07,16.42,0a20.34,20.34,0,0,0,7.68-3.27,38.06,38.06,0,0,1-25.25,11.38c-16.65,1.07-38.78,2.5-47.39,22.52C166.87,210.35,172.39,198.13,185,191.1Zm29.63,8.77a53.37,53.37,0,0,1-6.42.9,166,166,0,0,0-20,2.52c-9.53,2-16.06,5.21-20.38,10.43,9.55-14.85,28.4-16.06,44.13-17.06a38.8,38.8,0,0,0,27-12.92C236,188.58,229.06,196.9,214.63,199.87Z" transform="translate(-118.51 -68.07)"/> <path class="b" d="M173.92,134.77a120.92,120.92,0,0,1,4.88-20.57c1.17-3.67,2.59-7.25,3.91-10.62a56.9,56.9,0,0,0,2.93-9.44,22.36,22.36,0,0,0,.36-7,14.87,14.87,0,0,0-.32-1.94l-.15-.67s.05.23.13.68a14.24,14.24,0,0,1,.28,1.93,23.54,23.54,0,0,1-.51,6.92,56.16,56.16,0,0,1-3,9.38c-1.34,3.35-2.8,6.93-4,10.6a120.68,120.68,0,0,0-4.72,20.67c-.4,2.87-.58,5.28-.71,7s-.16,2.64-.16,2.64l.22-2.64C173.22,140,173.51,137.63,173.92,134.77Z" transform="translate(-118.51 -68.07)"/> <path class="c" d="M180.65,130.81a58.09,58.09,0,0,1-4.11,11.28,23.71,23.71,0,0,1-2.12,3.33c-.59.76-1,1.17-1,1.17s.39-.39,1-1.12a20.47,20.47,0,0,0,2.26-3.28,58.77,58.77,0,0,0,4.3-11.26,46.59,46.59,0,0,1,4.4-11.15,21.12,21.12,0,0,1,2.32-3.2c.64-.72,1-1.09,1-1.09s-.42.35-1.09,1a18.28,18.28,0,0,0-2.45,3.14A46.66,46.66,0,0,0,180.65,130.81Z" transform="translate(-118.51 -68.07)"/> <path class="d" d="M166.23,123.55l-.53-.84s.73,1.26,1.64,3.22a19.93,19.93,0,0,1,1.24,3.45,11.75,11.75,0,0,1,.33,2c.07.7.18,1.43.22,2.13.26,2.88.52,5.76.75,7.91s.41,3.6.41,3.6-.07-1.45-.19-3.61-.34-5-.57-7.93c-.06-.74-.17-1.44-.25-2.15a12.92,12.92,0,0,0-.37-2.08,18.2,18.2,0,0,0-1.37-3.46C167,124.86,166.56,124.09,166.23,123.55Z" transform="translate(-118.51 -68.07)"/> <path class="e" d="M150.49,98.29a27.88,27.88,0,0,1,0-7.83c.33-1.95.67-3.89.92-5.35s.37-2.45.37-2.45-.24,1-.59,2.4-.75,3.39-1.09,5.33a20.63,20.63,0,0,0-.09,5.46A17.93,17.93,0,0,0,150.49,98.29Z" transform="translate(-118.51 -68.07)"/> <path class="f" d="M183.18,168.33a8.53,8.53,0,0,1,1.13-.6l2.16-1.1c.59-.32,1-.55,1-.55s-.43.13-1.06.36c-.31.12-.67.24-1.06.42l-1.18.55a8.48,8.48,0,0,0-1.14.66,10.94,10.94,0,0,0-.89.73c-.49.45-.79.78-.79.78l.92-.62Z" transform="translate(-118.51 -68.07)"/> <path class="g" d="M173.22,173.61a9,9,0,0,1,1.16-1.27,7.24,7.24,0,0,0-1.32,1.14,16,16,0,0,0-2.16,3.18,23.37,23.37,0,0,0-1.51,3.52c-.33,1-.48,1.67-.48,1.67a50.29,50.29,0,0,1,2.31-5A21.55,21.55,0,0,1,173.22,173.61Z" transform="translate(-118.51 -68.07)"/> <path class="h" d="M176.26,174.19a22.29,22.29,0,0,0,0-2.46,6.15,6.15,0,0,1,.14-1.1,4.44,4.44,0,0,0-.34,1.08c-.14.68,0,1.58-.16,2.44a10.82,10.82,0,0,1-1,3.35,5.68,5.68,0,0,0,.63-.94A7,7,0,0,0,176.26,174.19Z" transform="translate(-118.51 -68.07)"/> </g> </svg>