<svg xmlns="http://www.w3.org/2000/svg" width="76.6" height="127.1" viewBox="0 0 76.6 127.1"> <defs> <style> .a { fill: #b4bfb2; } .b { fill: #dbe4d9; } .c { fill: #c3d0c6; } .d { fill: #a0b2a3; } .e { fill: #f0f5ec; } .f { fill: #d9e4da; } .g { fill: #c5d3c7; } .h { fill: #93a593; } .i { fill: #b1c3b3; } .j { fill: #bacbbc; } .k { fill: #acbdad; } .l { fill: #dae8db; } .m { fill: #94a48f; } .n { fill: #a3b29f; } .o { fill: #b8c5b4; } .p { fill: #bccdb8; } .q { fill: #cedcca; } .r { fill: #e2edde; } .s { fill: #d1ded3; } .t { fill: #a4b6a8; } .u { fill: #b8c8b4; } .v { fill: #acbba6; } .w { fill: #ccd9c8; } .x { fill: #dae7d6; } .y { fill: #cedacb; } .z { fill: #edf7e9; } .aa { fill: #e9f2e7; } .ab { fill: #f4fbf2; } .ac { fill: #f7fcf6; } .ad { fill: #c4d0c2; } .ae { fill: #b8c7b4; } .af { fill: #e2ece0; } .ag { fill: #c7d5c4; } </style> </defs> <g> <path class="a" d="M162.55,170.59l.15.28a2.76,2.76,0,0,0-.64,0l3.69,4.28a34.4,34.4,0,0,1,2.32,2.91l.32-.58C166.66,175.05,164.43,172.94,162.55,170.59Z" transform="translate(-120.32 -119.31)"/> <path class="a" d="M168,170.77a64.46,64.46,0,0,1,.93-12.4,18.19,18.19,0,0,0-.37,1.9c-.07-.17-.15-.34-.22-.52-.28,2.28-.55,4.55-.83,6.83-.05.42-.1.83-.13,1.25-.14-.62-.27-1.25-.4-1.87a63.13,63.13,0,0,0-1.58-6.34c-.56-1.76-1.28-3.49-2-5.22a4.52,4.52,0,0,0-.89-1.09,71.66,71.66,0,0,1,3.8,12.82c.35,2,.57,4,.94,6,.33,1.76.78,3.5,1.25,5.24l.16-.28.55-.43c-.18-.87-.36-1.74-.55-2.6Z" transform="translate(-120.32 -119.31)"/> <path class="b" d="M162.19,188.31l.16.11C162.36,188.33,162.24,188.22,162.19,188.31Z" transform="translate(-120.32 -119.31)"/> <path class="b" d="M167.31,135.31a1.38,1.38,0,0,0,.08-.45C167.36,135,167.33,135.16,167.31,135.31Z" transform="translate(-120.32 -119.31)"/> <path class="b" d="M175.51,203.56v0h0Z" transform="translate(-120.32 -119.31)"/> <path class="a" d="M175.51,203.54v0c0-.12-.07-.25-.11-.37q-1.08,5.51-2.07,11.05c-.42-5.49-1.19-11-1.38-16.5-.26-.29-.52-.58-.79-.85a89.14,89.14,0,0,0,.57,9.67,50.8,50.8,0,0,0-3.39-5.55l-.38-.54.09.44-.44-.13a9.22,9.22,0,0,1,1.29,1.64,16.65,16.65,0,0,1,1,2l1.23,2.54a16.84,16.84,0,0,1,1.09,2.69c1.26,7.09,0,14.33-.55,21.54l-1.23,15.24c.47,0,.93.11,1.22-.21a1.25,1.25,0,0,0,.25-.68,25.07,25.07,0,0,0,.37-3.76c0-1.34-.21-2.67-.28-4-.17-3.7.77-7.35,1.22-11a58.56,58.56,0,0,0,.22-10.25,79.52,79.52,0,0,1,2.37-13.18Z" transform="translate(-120.32 -119.31)"/> <path class="b" d="M180.22,135.2l.3,0A.79.79,0,0,0,180.22,135.2Z" transform="translate(-120.32 -119.31)"/> <path class="c" d="M193,136.21l-.34-.11-.29.11Z" transform="translate(-120.32 -119.31)"/> <path class="b" d="M181.85,133.6l.17,0A.11.11,0,0,0,181.85,133.6Z" transform="translate(-120.32 -119.31)"/> <path class="d" d="M174.83,137.14a10.24,10.24,0,0,1,3.13-1.79l-.83.78a12,12,0,0,1,3.09-.93.79.79,0,0,1,.3,0l-.3,0a.81.81,0,0,0-.49.47,12.47,12.47,0,0,0,2.69-.81l-.22.38c2.8-.08,5.56.58,8.35.86.58.06,1.18.09,1.78.11l.29-.11a12,12,0,0,1-1.74-.71c-1.21-.61-2.42-1.45-3.79-1.36-.64,0-1.53.16-1.7-.43l-1.89.5c.09-.2.17-.39.26-.58l-1.48.32c-.15,0-.33.06-.43-.05a.14.14,0,0,1,0-.19,13.33,13.33,0,0,0-3.62,1.32,1.85,1.85,0,0,1,1-.68,9.84,9.84,0,0,0-4.46,2.39,8.86,8.86,0,0,1,.87-.44A2.23,2.23,0,0,0,174.83,137.14Z" transform="translate(-120.32 -119.31)"/> <path class="b" d="M191.34,193.48l.16-.17A.18.18,0,0,0,191.34,193.48Z" transform="translate(-120.32 -119.31)"/> <path class="b" d="M167.93,142.15l0-.12C167.92,142,167.9,142.09,167.93,142.15Z" transform="translate(-120.32 -119.31)"/> <path class="e" d="M187.76,166.69a37.77,37.77,0,0,1-2.1,6.73,48.93,48.93,0,0,1-3.55,5.57,38.27,38.27,0,0,0-6.34,18.92c-.11,1.83-.08,3.66-.24,5.48.13-.74.23-1.49.31-2.23,0-.16,0-.33,0-.5.36-3.5.5-7,1.56-10.4a33.51,33.51,0,0,1,2.93-6.32c2.27-4,4.84-8,6.35-12.3.76-2.19,1.25-4.45,1.89-6.67.44-1.5.94-3,1.5-4.43q0-.51.06-1l-.06,0A62.48,62.48,0,0,0,187.76,166.69Z" transform="translate(-120.32 -119.31)"/> <path class="f" d="M191.5,193.31l-.16.17a.18.18,0,0,1,.16-.17l2.86-2.93-.94.39c1.67-1.66,1.75-4,1.81-6.43a12.37,12.37,0,0,1-2.51,3.42,55.08,55.08,0,0,1-5.38,5,30.75,30.75,0,0,0,7.24-4.48l-4.44,6.28a6.69,6.69,0,0,0,1.76-1A.37.37,0,0,0,191.5,193.31Z" transform="translate(-120.32 -119.31)"/> <path class="f" d="M189.1,185.56l1.89-1a32.41,32.41,0,0,1-2.76,2.47,14.27,14.27,0,0,0,5.57-3.35,29.27,29.27,0,0,1-7.61,7c3.31-1.81,6.65-3.76,9-6.58.05-2.32.13-4.65,1.69-6.32l-1.21,1a10.72,10.72,0,0,0,.4-3.13l-.81,1.21.18-4.25c-.31.35-.61.71-.92,1.07l.06-1.32a1.33,1.33,0,0,0-1-.09,6,6,0,0,0-.44-2.55l-1,.18a2.63,2.63,0,0,0,.4-1.9c-.2-.63-1.17-1-1.62-.51a9.37,9.37,0,0,0,.5-4.94l-.17.21c-.23,1.06-.45,2.12-.68,3.17a4,4,0,0,0-.14,1.32c0,.18.06.35.09.53.07.37.08.75.14,1.12l.65,0a4.8,4.8,0,0,1-.05,2l.72,0a5.76,5.76,0,0,0-.48,1.21l1.67-1.22a11.33,11.33,0,0,1-4.22,6.73l4.72-2.71a17.12,17.12,0,0,1-2.33,3.59l2.73-2.1a40.85,40.85,0,0,1-3.47,5.39,11.8,11.8,0,0,1-3,3l-.29.21a20.89,20.89,0,0,0,5-2.49A15.41,15.41,0,0,1,189.1,185.56Z" transform="translate(-120.32 -119.31)"/> <path class="g" d="M194.58,188.24a30.75,30.75,0,0,1-7.24,4.48,55.08,55.08,0,0,0,5.38-5,12.37,12.37,0,0,0,2.51-3.42v-.22c-2.39,2.82-5.73,4.77-9,6.58a29.27,29.27,0,0,0,7.61-7,14.27,14.27,0,0,1-5.57,3.35,32.41,32.41,0,0,0,2.76-2.47l-1.89,1a15.41,15.41,0,0,0,3.27-3,20.89,20.89,0,0,1-5,2.49l-5.29,3.88,2.25-.83-3.58,3.75,1.54-.54a4.73,4.73,0,0,1-1.45,1.4l3.36-1.61a38.21,38.21,0,0,1-4.66,3.42,21.23,21.23,0,0,0,7.62-3.07,38.68,38.68,0,0,1-8,5.26,48.76,48.76,0,0,0,10.31-4.29,44,44,0,0,1-11.14,7.68,60.45,60.45,0,0,0,9.55-4.7c-1.46,1.21-2.93,2.43-4.46,3.58,2.93-1.25,5.91-2.54,8.08-4.75.19-.19.39-.44.32-.69,0,0,0,0,0,0a6.69,6.69,0,0,1-1.76,1Z" transform="translate(-120.32 -119.31)"/> <path class="g" d="M190.72,181.85a40.85,40.85,0,0,0,3.47-5.39l-2.73,2.1a17.12,17.12,0,0,0,2.33-3.59l-4.72,2.71a11.33,11.33,0,0,0,4.22-6.73l-1.67,1.22a5.76,5.76,0,0,1,.48-1.21l-.72,0a4.8,4.8,0,0,0,.05-2l-.65,0c-.06-.37-.07-.75-.14-1.12,0-.18-.07-.35-.09-.53a4,4,0,0,1,.14-1.32c.23-1,.45-2.11.68-3.17l-.73,1a9.63,9.63,0,0,1-.48-2.24,19.47,19.47,0,0,0-.94,8.05c0,.32.25.77.56.63a7.34,7.34,0,0,1-1.35,2.06,2.62,2.62,0,0,1,1.55-.66,52.46,52.46,0,0,1-3.76,4.82,10,10,0,0,0,4.34-3.58c-1.15,3.8-4.64,6.49-7.94,8.93,3.34-.58,5.8-3.25,8.88-4.62a20.06,20.06,0,0,1-3.59,3,18.6,18.6,0,0,0-5.33,6.52,26.72,26.72,0,0,0,5.3-2l-.17.12A11.8,11.8,0,0,0,190.72,181.85Z" transform="translate(-120.32 -119.31)"/> <path class="h" d="M177.28,200.11a6.26,6.26,0,0,0,.05-2.55,1.24,1.24,0,0,1,.11-1.05l1.15-2.39c-.24.21-.49-.25-.45-.55a9,9,0,0,1,.65-2.21.49.49,0,0,1-.7-.29,1.32,1.32,0,0,1,.15-.84c.5-1.12,1-2.25,1.49-3.38a60.48,60.48,0,0,1,3.58-7.27,23,23,0,0,0,1.64-2.84,13.28,13.28,0,0,0,.83-2.71c-1.52,3.42-3.56,6.63-5.4,9.91a33.51,33.51,0,0,0-2.93,6.32c-1.06,3.36-1.2,6.9-1.56,10.4,0,.17,0,.34,0,.5-.09.79-.2,1.59-.33,2.38l.32-.29a11.78,11.78,0,0,1,1.1-.88,7.64,7.64,0,0,1,.92-2.56A.6.6,0,0,0,177.28,200.11Z" transform="translate(-120.32 -119.31)"/> <path class="i" d="M187.91,180.13a20.06,20.06,0,0,0,3.59-3c-3.08,1.37-5.54,4-8.88,4.62,3.3-2.44,6.79-5.13,7.94-8.93a10,10,0,0,1-4.34,3.58,52.46,52.46,0,0,0,3.76-4.82,2.62,2.62,0,0,0-1.55.66,7.34,7.34,0,0,0,1.35-2.06c-.31.14-.54-.31-.56-.63a19.47,19.47,0,0,1,.94-8.05c0-.32,0-.64,0-1-.56,1.46-1.06,2.93-1.5,4.43-.64,2.22-1.13,4.48-1.89,6.67-.29.81-.61,1.61-.95,2.39a13.28,13.28,0,0,1-.83,2.71,23,23,0,0,1-1.64,2.84,60.48,60.48,0,0,0-3.58,7.27c-.5,1.13-1,2.26-1.49,3.38a1.32,1.32,0,0,0-.15.84.49.49,0,0,0,.7.29,9,9,0,0,0-.65,2.21c0,.3.21.76.45.55l-1.15,2.39a1.24,1.24,0,0,0-.11,1.05,6.26,6.26,0,0,1-.05,2.55.6.6,0,0,1,.57-.3,7.64,7.64,0,0,0-.92,2.56,27.28,27.28,0,0,1,5.35-2.89l1.23-.52c1.53-1.15,3-2.37,4.46-3.58a60.45,60.45,0,0,1-9.55,4.7,44,44,0,0,0,11.14-7.68,48.76,48.76,0,0,1-10.31,4.29,38.68,38.68,0,0,0,8-5.26,21.23,21.23,0,0,1-7.62,3.07,38.21,38.21,0,0,0,4.66-3.42l-3.36,1.61a4.73,4.73,0,0,0,1.45-1.4l-1.54.54,3.58-3.75-2.25.83q2.87-2.11,5.75-4.21a26.72,26.72,0,0,1-5.3,2A18.6,18.6,0,0,1,187.91,180.13Z" transform="translate(-120.32 -119.31)"/> <path class="g" d="M163.54,186a8.73,8.73,0,0,0,.56,2.15c-.16-.56-.29-1.12-.4-1.7Z" transform="translate(-120.32 -119.31)"/> <path class="g" d="M173.18,197.36q-1-1.08-1.92-2.19A3.92,3.92,0,0,0,173.18,197.36Z" transform="translate(-120.32 -119.31)"/> <path class="j" d="M167.69,185.14a71,71,0,0,0,3.4,9.66c.06.13.11.25.17.37q.94,1.11,1.92,2.19a3.92,3.92,0,0,1-1.92-2.19q-3.81-4.42-7.22-9.16c0,.42,0,.85,0,1.27l-.3-.8c.11.58.24,1.14.4,1.7,1.11,2.84,3.52,5.21,5.8,7.44.42.4.83.82,1.25,1.25.27.27.53.56.79.85a19.89,19.89,0,0,1,2.28,2.95,53.85,53.85,0,0,0-1.69-6.7A46.27,46.27,0,0,1,167.69,185.14Z" transform="translate(-120.32 -119.31)"/> <path class="j" d="M190.12,159.57c-.31.31-.63.62-1,.91-1,2.89-2.31,5.72-3.57,8.53a.89.89,0,0,1-.51-.8c-.15,1-.31,2-.47,3a2.92,2.92,0,0,1-1.18-2.1c-.34,2.09-.69,4.17-1,6.26a24,24,0,0,1-1.29-6.7,63.52,63.52,0,0,0-.84,11.35,23.55,23.55,0,0,1-1.1-9.43A27,27,0,0,0,178,182.28a25.09,25.09,0,0,1-1.7-6.41,40.27,40.27,0,0,1-.15,9.31,1.84,1.84,0,0,1-1.24-1.58,9.77,9.77,0,0,0-.49,3.43,2.86,2.86,0,0,1-.84-1.4l.18,3.17a21.51,21.51,0,0,1-1.9-5.08,45,45,0,0,0,.73,7.5,24,24,0,0,1-2.72-6.1c.52,3.21,1.07,6.53,2.95,9.25l-.21-.31,1.84,3.35a21.92,21.92,0,0,1-.91-6.38c.42,1.1.88,2.18,1.39,3.24l0-1.2.2.44a19.36,19.36,0,0,1,.72-5,3.87,3.87,0,0,0,.58,1.74,7.05,7.05,0,0,1,.68-3.8c0,.14.07.28.1.42a33.22,33.22,0,0,0,1.45-4.21c0,.37,0,.74,0,1.1.24-1.58.48-3.16.73-4.75a5.08,5.08,0,0,0,.61,2.64,21.3,21.3,0,0,1,1-3.76l.24.92c1-1.35,2-2.7,3-4.06.75-1,1.51-2.08,2.22-3.15.55-1.6.93-3.27,1.36-4.91A62.48,62.48,0,0,1,190.12,159.57Z" transform="translate(-120.32 -119.31)"/> <path class="k" d="M181.23,178.81l-.24-.92a21.3,21.3,0,0,0-1,3.76,5.08,5.08,0,0,1-.61-2.64c-.25,1.59-.49,3.17-.73,4.75,0-.36,0-.73,0-1.1a33.22,33.22,0,0,1-1.45,4.21c0-.14-.07-.28-.1-.42a7.05,7.05,0,0,0-.68,3.8,3.87,3.87,0,0,1-.58-1.74,19.36,19.36,0,0,0-.72,5l-.2-.44,0,1.2c-.51-1.06-1-2.14-1.39-3.24a21.92,21.92,0,0,0,.91,6.38l-1.84-3.35-.07-.09a53.85,53.85,0,0,1,1.69,6.7,11.59,11.59,0,0,1,1.17,2.5c0,.12.08.25.11.37h0a.77.77,0,0,0,0-.15c.16-1.82.13-3.65.24-5.48A38.27,38.27,0,0,1,182.11,179a48.93,48.93,0,0,0,3.55-5.57,19.25,19.25,0,0,0,.74-1.82c-.71,1.07-1.47,2.12-2.22,3.15C183.2,176.11,182.21,177.46,181.23,178.81Z" transform="translate(-120.32 -119.31)"/> <path class="l" d="M185.28,163.67c-.06.52-.13,1-.19,1.54a36.32,36.32,0,0,0,3.92-4.32l.15-.41A24.37,24.37,0,0,1,184,164l-.07,0c-.24,1.37-.47,2.75-.71,4.13A14.3,14.3,0,0,1,185.28,163.67Z" transform="translate(-120.32 -119.31)"/> <path class="g" d="M185.09,165.21c.06-.51.13-1,.19-1.54a14.3,14.3,0,0,0-2.09,4.5c.24-1.38.47-2.76.71-4.13a.82.82,0,0,1-.58,0,13.81,13.81,0,0,0-1.88,4.23c.17-1.42.38-2.85.63-4.26a12.11,12.11,0,0,0-1,1.26,20.58,20.58,0,0,0-2,5.12l.21-3.93c-.48,2.23-2.19,4.17-2.3,6.43a14.55,14.55,0,0,1-.1-2.47q-1.26,3.07-2.51,6.13l-.21-.49c0,.39,0,.79,0,1.18a7.31,7.31,0,0,1-.66-3.05,18.87,18.87,0,0,0-1,4.69c-.28-1.42-.49-2.85-.64-4.28l-.52.41-.34.26a41,41,0,0,0-.47,7.25c-.13-2.2-.25-4.39-.38-6.58l-.95.74-.09.07a26.84,26.84,0,0,0-.64,7.19q-.56-3.06-.81-6.14l0-.07c0,2.25-1.46,4.46-1,6.69a23.69,23.69,0,0,1-.6-4.11,15.89,15.89,0,0,0-.81,2.68l-.15-2.06a21,21,0,0,0-1,5.13q3.41,4.73,7.22,9.16c-.06-.12-.11-.24-.17-.37a71,71,0,0,1-3.4-9.66,46.6,46.6,0,0,0,5.12,9.23c-1.88-2.72-2.43-6-2.95-9.25a24,24,0,0,0,2.72,6.1,45,45,0,0,1-.73-7.5,21.51,21.51,0,0,0,1.9,5.08l-.18-3.17a2.86,2.86,0,0,0,.84,1.4,9.77,9.77,0,0,1,.49-3.43,1.84,1.84,0,0,0,1.24,1.58,40.27,40.27,0,0,0,.15-9.31,25.09,25.09,0,0,0,1.7,6.41,27,27,0,0,1,1.18-11.65,23.55,23.55,0,0,0,1.1,9.43,63.52,63.52,0,0,1,.84-11.35,24,24,0,0,0,1.29,6.7c.34-2.09.69-4.17,1-6.26a2.92,2.92,0,0,0,1.18,2.1c.16-1,.32-2,.47-3a.89.89,0,0,0,.51.8c1.2-2.68,2.41-5.38,3.42-8.12A36.32,36.32,0,0,1,185.09,165.21Z" transform="translate(-120.32 -119.31)"/> <path class="l" d="M171,175.22l-.85.67c.13,2.19.25,4.38.38,6.58A41,41,0,0,1,171,175.22Z" transform="translate(-120.32 -119.31)"/> <path class="l" d="M166.58,184.37c-.42-2.23,1-4.44,1-6.69v0l-1,2.6a1.58,1.58,0,0,1-.21-1c-.15.32-.29.65-.42,1A23.69,23.69,0,0,0,166.58,184.37Z" transform="translate(-120.32 -119.31)"/> <path class="l" d="M169.1,176.7l-.46.36-.16.28-.09.16-.32.58-.17.29-.25-.62q.25,3.08.81,6.14A26.84,26.84,0,0,1,169.1,176.7Z" transform="translate(-120.32 -119.31)"/> <path class="l" d="M173.49,174.14a7.31,7.31,0,0,0,.66,3.05c0-.39,0-.79,0-1.18l.21.49q1.25-3.06,2.51-6.13a14.55,14.55,0,0,0,.1,2.47c.11-2.26,1.82-4.2,2.3-6.43l-.21,3.93a20.58,20.58,0,0,1,2-5.12,11.31,11.31,0,0,0-.88,1.5l.54-2.38a19.07,19.07,0,0,0-4,5.39,4,4,0,0,1,1-2c-2,1.32-2.78,3.67-4.35,5.39a13.79,13.79,0,0,1-1.55,1.4c.15,1.43.36,2.86.64,4.28A18.87,18.87,0,0,1,173.49,174.14Z" transform="translate(-120.32 -119.31)"/> <path class="g" d="M183.32,164c-.15-.07-.22-.18-.07-.28a2.66,2.66,0,0,0-1,1.54l.21-1.68-.36.39c-.25,1.41-.46,2.84-.63,4.26A13.81,13.81,0,0,1,183.32,164Z" transform="translate(-120.32 -119.31)"/> <path class="m" d="M167.6,200.76l.44.13-.09-.44c-.24-.34-.49-.67-.74-1a48.68,48.68,0,0,0-6.38-5.86,30.66,30.66,0,0,0-6.42-4.18c-2.26-1-4.73-1.53-7-2.58-1.09-.51-2.11-1.14-3.19-1.67a5.43,5.43,0,0,1,1.8,3.07h0a62.07,62.07,0,0,1,6.71,2.09,1.08,1.08,0,0,1,.54.36c.1.19,0,.49-.23.49a3.32,3.32,0,0,1,1.64.95l-.85.69a2.3,2.3,0,0,1,1.56.31l-2.06.64a20.17,20.17,0,0,0,5.09.34,13.74,13.74,0,0,1-5.59,1.1,29.34,29.34,0,0,0,6.69.14,24.85,24.85,0,0,1-7.24.7l8.93,1-8.93.06c3.75.89,7.58,1.8,11.44,1.48a44.32,44.32,0,0,1-9.7.25,18,18,0,0,0,2.8.73C160.39,200.16,164.26,199.81,167.6,200.76Z" transform="translate(-120.32 -119.31)"/> <path class="e" d="M167.87,200.1a16.58,16.58,0,0,0-1.54-2,25.87,25.87,0,0,0-2.33-2.23L161.92,194a24.48,24.48,0,0,0-4.86-3.66,28,28,0,0,0-3-1.26c-3-1.14-5.85-2.39-8.75-3.63a11.77,11.77,0,0,1-1.74-.87,6.41,6.41,0,0,1-.52-.39H143a10,10,0,0,1,1.31,1c1.08.53,2.1,1.16,3.19,1.67,2.23,1,4.7,1.58,7,2.58a30.66,30.66,0,0,1,6.42,4.18,48.68,48.68,0,0,1,6.38,5.86c.25.33.5.66.74,1a1.36,1.36,0,0,1,0-.17C167.9,200.22,167.88,200.16,167.87,200.1Z" transform="translate(-120.32 -119.31)"/> <path class="n" d="M152.32,197.08l8.93-.06-8.93-1a24.85,24.85,0,0,0,7.24-.7,29.34,29.34,0,0,1-6.69-.14,13.74,13.74,0,0,0,5.59-1.1,20.17,20.17,0,0,1-5.09-.34l2.06-.64a2.3,2.3,0,0,0-1.56-.31l.85-.69a3.32,3.32,0,0,0-1.64-.95c.22,0,.33-.3.23-.49a1.08,1.08,0,0,0-.54-.36,62.07,62.07,0,0,0-6.71-2.09c.1.6.11,1.28.27,1.86a5.86,5.86,0,0,0,1.12.63c1,.41,2,.64,2.92,1,.14.05.29.21.17.3-1.16-.28-2.32-.58-3.46-.91a10.7,10.7,0,0,0,4.31,1.77,34.13,34.13,0,0,1-4.17,0c0,.07,0,.14.05.21a7.62,7.62,0,0,0,2.26.59,13.75,13.75,0,0,1-2,0c0,.1.1.19.15.29a20.62,20.62,0,0,0,4.88,1.51l-3.62-.2a3.89,3.89,0,0,0,.73.38l-.81.27c.89.35,1.79.65,2.7.91l-.9.09c.58.39,1.52.46,1.68,1.11v0c.57.26,1.16.5,1.75.71a44.32,44.32,0,0,0,9.7-.25C159.9,198.88,156.07,198,152.32,197.08Z" transform="translate(-120.32 -119.31)"/> <path class="o" d="M147.08,191.14c1.14.33,2.3.63,3.46.91.12-.09,0-.25-.17-.3-1-.38-2-.61-2.92-1a5.86,5.86,0,0,1-1.12-.63,1.89,1.89,0,0,0,.7,1.09c-.69.09-.34,1.11.16,1.56l0,.14a34.13,34.13,0,0,0,4.17,0A10.7,10.7,0,0,1,147.08,191.14Z" transform="translate(-120.32 -119.31)"/> <path class="o" d="M150.63,196.94l.9-.09c-.91-.26-1.81-.56-2.7-.91h0a17.76,17.76,0,0,0,3.48,2.16v0C152.15,197.4,151.21,197.33,150.63,196.94Z" transform="translate(-120.32 -119.31)"/> <path class="o" d="M147.27,193.1a3.28,3.28,0,0,0,.23.59,13.75,13.75,0,0,0,2,0A7.62,7.62,0,0,1,147.27,193.1Z" transform="translate(-120.32 -119.31)"/> <path class="o" d="M147.65,194a4,4,0,0,0,1.26,1.31l3.62.2A20.62,20.62,0,0,1,147.65,194Z" transform="translate(-120.32 -119.31)"/> <path class="p" d="M166.75,195.22a16.44,16.44,0,0,0-1.5-3.54,16.86,16.86,0,0,1,.68,3.59,19.24,19.24,0,0,0-2.91-5.86,17.39,17.39,0,0,1,1.44,5.43,16.76,16.76,0,0,1-.93-2l.06,1.4-.5-.92-.24.41a3.09,3.09,0,0,0-1.6-1,16.32,16.32,0,0,1-4.52-4.1c.25.54.49,1.08.74,1.61l-2.1-2.7c.07.44.14.88.22,1.32-.62-1.24-2-1.91-3.35-2.49a6.74,6.74,0,0,1,3,3,2.29,2.29,0,0,1-1.1-.44l-4.23-2.64a5.61,5.61,0,0,1,1.32,1.55,7.29,7.29,0,0,0-2.68-1.73c-.75-.27-1.53-.43-2.29-.66a11.76,11.76,0,0,1-2.82-1.27h-.34a6.41,6.41,0,0,0,.52.39,11.77,11.77,0,0,0,1.74.87c2.9,1.24,5.8,2.49,8.75,3.63a28,28,0,0,1,3,1.26,24.48,24.48,0,0,1,4.86,3.66l2.08,1.86a25.87,25.87,0,0,1,2.33,2.23,16.58,16.58,0,0,1,1.54,2C167.52,198.47,167.22,196.83,166.75,195.22Z" transform="translate(-120.32 -119.31)"/> <path class="q" d="M165.93,195.27a16.86,16.86,0,0,0-.68-3.59,10,10,0,0,0-2.9-3.26.21.21,0,0,1,0,.06.22.22,0,0,1-.18,0,7.3,7.3,0,0,1,1,2.8l-3.27-3.25a8.8,8.8,0,0,1,1.74,3.33,2,2,0,0,1-.88-.62c-.87-.94-1.71-1.91-2.5-2.9l-.14-.05c.32.71.63,1.42.94,2.13A35.16,35.16,0,0,0,157,187a10.06,10.06,0,0,0-.86-.59,5.4,5.4,0,0,1,.17.72,12.09,12.09,0,0,0-.79-1.09c-.34-.19-.7-.37-1.06-.53.15.27.29.53.42.8a16.34,16.34,0,0,1-2.61-1.53c-.21-.06-.42-.1-.64-.14a5.52,5.52,0,0,1,1,1,5.93,5.93,0,0,1-2.07-.54,8.54,8.54,0,0,1-3.73-1.7c.22.66-.83,1-1.56.95l-1.79-.1a11.76,11.76,0,0,0,2.82,1.27c.76.23,1.54.39,2.29.66a7.29,7.29,0,0,1,2.68,1.73,5.61,5.61,0,0,0-1.32-1.55l4.23,2.64a2.29,2.29,0,0,0,1.1.44,6.74,6.74,0,0,0-3-3c1.31.58,2.73,1.25,3.35,2.49-.08-.44-.15-.88-.22-1.32l2.1,2.7c-.25-.53-.49-1.07-.74-1.61a16.32,16.32,0,0,0,4.52,4.1,3.09,3.09,0,0,1,1.6,1l.24-.41.5.92-.06-1.4a16.76,16.76,0,0,0,.93,2,17.39,17.39,0,0,0-1.44-5.43A19.24,19.24,0,0,1,165.93,195.27Z" transform="translate(-120.32 -119.31)"/> <path class="r" d="M151.58,184.63a11.26,11.26,0,0,0-1.42-.19l1,.71c-.24,0-.47-.06-.71-.11a5.93,5.93,0,0,0,2.07.54A5.52,5.52,0,0,0,151.58,184.63Z" transform="translate(-120.32 -119.31)"/> <path class="q" d="M158.11,187.81a5.05,5.05,0,0,1-1-.68L157,187a35.16,35.16,0,0,1,2.1,2.95C158.74,189.23,158.43,188.52,158.11,187.81Z" transform="translate(-120.32 -119.31)"/> <path class="r" d="M156.09,186.4c-.2-.13-.41-.26-.62-.37a12.09,12.09,0,0,1,.79,1.09A5.4,5.4,0,0,0,156.09,186.4Z" transform="translate(-120.32 -119.31)"/> <path class="r" d="M154.41,185.5a13.4,13.4,0,0,0-2.19-.73,16.34,16.34,0,0,0,2.61,1.53C154.7,186,154.56,185.77,154.41,185.5Z" transform="translate(-120.32 -119.31)"/> <path class="r" d="M161.63,191.38a8.8,8.8,0,0,0-1.74-3.33l3.27,3.25a7.3,7.3,0,0,0-1-2.8.42.42,0,0,1-.18-.08l-2.23-1.28c.05.52-.63.89-1.18.8l-.29-.08c.79,1,1.63,2,2.5,2.9A2,2,0,0,0,161.63,191.38Z" transform="translate(-120.32 -119.31)"/> <path class="e" d="M155.69,163.82l-3.61-2.23a33.36,33.36,0,0,0-7.14-3.64,23.86,23.86,0,0,0-12.58-.11A36.55,36.55,0,0,0,120.42,163a.47.47,0,0,0-.1.1c.22-.05.45-.09.68-.12a38.56,38.56,0,0,1,5.74-3,26.73,26.73,0,0,1,15.4-1.84,33.58,33.58,0,0,1,8.77,3.42,28.73,28.73,0,0,1,7.51,5.21c1.25,1.3,2.3,2.8,3.45,4.19l.19,0h0c-1.31-1.94-2.43-4.08-4.25-5.6A17.54,17.54,0,0,0,155.69,163.82Z" transform="translate(-120.32 -119.31)"/> <path class="s" d="M182.2,135.24l.22-.38a12.47,12.47,0,0,1-2.69.81.81.81,0,0,1,.49-.47,12,12,0,0,0-3.09.93l.83-.78a10.24,10.24,0,0,0-3.13,1.79,2.23,2.23,0,0,1,.77-.95,8.86,8.86,0,0,0-.87.44,11.69,11.69,0,0,0-3.06,2.42l.42-.8a9.64,9.64,0,0,0-3.9,3.77c0,.08-.11.17-.2.17a.07.07,0,0,1-.06,0,7.18,7.18,0,0,0-.7,2.79l-.26-.75a13.75,13.75,0,0,1,0,2.4l-.49-1c.08,1.13.16,2.27.25,3.41-.09-.18-.17-.36-.25-.53A35.18,35.18,0,0,0,167,156a61.47,61.47,0,0,1,.8-13.25,33.3,33.3,0,0,0,.66,10.15,25.62,25.62,0,0,1,2.34-12.26,72.72,72.72,0,0,0-.73,8.72,51.48,51.48,0,0,1,1.68-6.19l-.12,3.31a10.53,10.53,0,0,1,.81-3.21l-.08,1.54a45.21,45.21,0,0,1,2-4.55,31,31,0,0,0-.73,5.06c.18-2.26,1.81-4.17,3.36-5.91a24.38,24.38,0,0,0-1.37,4.48c1-2.57,3.55-4.23,6-5.7a7.38,7.38,0,0,0-3.13,4.34,19.43,19.43,0,0,1,4.76-4.17,5.58,5.58,0,0,0-.77,1.47,11,11,0,0,1,1.74-1.53l-.06.63A43.36,43.36,0,0,1,192,136.2c-.5,0-1,0-1.49-.1C187.76,135.82,185,135.16,182.2,135.24Z" transform="translate(-120.32 -119.31)"/> <path class="t" d="M174.83,145.94c-.38.45-1,1-1.5.74l-1.56,2.62c0-.25-.06-.49-.08-.73L170,152.64l.15-1.13a16.86,16.86,0,0,0-1.63,6.12,30.89,30.89,0,0,0-.33-4.3c-.15,1.66-.31,3.32-.47,5,0,.09.07.18.1.26l.52,1.18c.07.18.15.35.22.52a18.19,18.19,0,0,1,.37-1.9,31,31,0,0,1,1.17-3.73,23.5,23.5,0,0,1,3.69-6.82c2.22-2.69,5.31-4.6,8.33-6.45l.73-.45-.21.07A18.57,18.57,0,0,0,174.83,145.94Z" transform="translate(-120.32 -119.31)"/> <path class="c" d="M192.33,136.21H192a43.36,43.36,0,0,0-7.87,2.72l.06-.63a11,11,0,0,0-1.74,1.53,5.58,5.58,0,0,1,.77-1.47,19.43,19.43,0,0,0-4.76,4.17,7.38,7.38,0,0,1,3.13-4.34c-2.43,1.47-5,3.13-6,5.7A24.38,24.38,0,0,1,177,139.4c-1.55,1.74-3.18,3.65-3.36,5.91a31,31,0,0,1,.73-5.06,45.21,45.21,0,0,0-2,4.55l.08-1.54a10.53,10.53,0,0,0-.81,3.21l.12-3.31a51.48,51.48,0,0,0-1.68,6.19,72.72,72.72,0,0,1,.73-8.72,25.62,25.62,0,0,0-2.34,12.26,33.3,33.3,0,0,1-.66-10.15A61.47,61.47,0,0,0,167,156a15.47,15.47,0,0,0,.69,2.32c.16-1.66.32-3.32.47-5a30.89,30.89,0,0,1,.33,4.3,16.86,16.86,0,0,1,1.63-6.12l-.15,1.13,1.74-4.07c0,.24.05.48.08.73l1.56-2.62c.55.26,1.12-.29,1.5-.74a18.57,18.57,0,0,1,7.76-4.95l.21-.07a49.17,49.17,0,0,1,7.42-3.93C190.91,136.71,191.62,136.46,192.33,136.21Z" transform="translate(-120.32 -119.31)"/> <path class="u" d="M146.66,172c-.72.12-1.44.24-2.15.38C145.23,172.24,145.94,172.11,146.66,172Z" transform="translate(-120.32 -119.31)"/> <path class="u" d="M154.25,175.27c-1.21.45-2.43.89-3.67,1.27A17.32,17.32,0,0,0,154.25,175.27Z" transform="translate(-120.32 -119.31)"/> <path class="u" d="M133.58,161.7a19.34,19.34,0,0,0-1.76.89Z" transform="translate(-120.32 -119.31)"/> <path class="v" d="M160.45,171.47a5.11,5.11,0,0,1,1.42-.55c-1.15-1.39-2.2-2.89-3.45-4.19a28.73,28.73,0,0,0-7.51-5.21,33.58,33.58,0,0,0-8.77-3.42,26.73,26.73,0,0,0-15.4,1.84,38.56,38.56,0,0,0-5.74,3,10.83,10.83,0,0,1,1.71-.08l1.94-.89c1.64-.76,3.53-1.53,5.21-.89a.61.61,0,0,1-.31.49l8.55-2.47q-2.21,1.38-4.52,2.61a18.69,18.69,0,0,1,7.56-1.61l-3.88,1.64a20.78,20.78,0,0,1,5.57.08c1.08.17,2.33.58,2.63,1.57a1.84,1.84,0,0,0,.21.61c.39.5,1.37.19,1.77.68a4.94,4.94,0,0,1-2.05,1.08,17,17,0,0,1,3.7.31,15.23,15.23,0,0,1-3.91,2.21l7.7-1.29c.32-.06.75-.06.86.23a31.36,31.36,0,0,1-9.61,3.29,73.21,73.21,0,0,0,10.52-1.6,28,28,0,0,1-8,3.06c2.26-.37,4.54-.66,6.82-.87a50.29,50.29,0,0,1-6.73,1.94q4.59-.83,9.11-1.89a53.41,53.41,0,0,1-14,3.46,82.39,82.39,0,0,0,14.34-1.66,53.89,53.89,0,0,1-12.19,3.86,18.1,18.1,0,0,0,6.52-.26c1.24-.38,2.46-.82,3.67-1.27.26-.13.51-.25.76-.39C156.89,173.85,158.56,172.49,160.45,171.47Z" transform="translate(-120.32 -119.31)"/> <path class="u" d="M141.74,176.3a3.37,3.37,0,0,0,.34.09l0-.16Z" transform="translate(-120.32 -119.31)"/> <path class="w" d="M126.83,163.6l-.12.44a6.52,6.52,0,0,1,1.59.11,13.57,13.57,0,0,1,4.82-1.52A23.11,23.11,0,0,0,126.83,163.6Z" transform="translate(-120.32 -119.31)"/> <path class="u" d="M156.25,172.94a82.39,82.39,0,0,1-14.34,1.66,53.41,53.41,0,0,0,14-3.46q-4.52,1.06-9.11,1.89a50.29,50.29,0,0,0,6.73-1.94c-2.28.21-4.56.5-6.82.87-.72.15-1.43.28-2.15.38.71-.14,1.43-.26,2.15-.38a28,28,0,0,0,8-3.06,73.21,73.21,0,0,1-10.52,1.6,31.36,31.36,0,0,0,9.61-3.29c-.11-.29-.54-.29-.86-.23l-7.7,1.29a15.23,15.23,0,0,0,3.91-2.21,17,17,0,0,0-3.7-.31,4.94,4.94,0,0,0,2.05-1.08c-.4-.49-1.38-.18-1.77-.68a1.84,1.84,0,0,1-.21-.61c-.3-1-1.55-1.4-2.63-1.57a20.78,20.78,0,0,0-5.57-.08l3.88-1.64a18.69,18.69,0,0,0-7.56,1.61l-1.76.89a19.34,19.34,0,0,1,1.76-.89q2.31-1.23,4.52-2.61l-8.55,2.47a.61.61,0,0,0,.31-.49c-1.68-.64-3.57.13-5.21.89l-1.94.89c.87,0,1.74.13,2.6.23l1.61.2-.09.32a23.11,23.11,0,0,1,6.29-1,13.57,13.57,0,0,0-4.82,1.52,5.09,5.09,0,0,1,.56.14,45.2,45.2,0,0,1,10.95-.9,29.22,29.22,0,0,0-7.45,1.77,41.68,41.68,0,0,1,9.5-.89L133,165.93q5.78.3,11.48,1.17l-8.34.75c2.72.5,5.16,2.31,7.93,2.11l-6.37,1.18a5.41,5.41,0,0,0,2.66.69l-.39.48a4.58,4.58,0,0,0,1.54.74,6.27,6.27,0,0,0-2.27.83c.88.69,2.43.69,2.83,1.7a1,1,0,0,1,.08.42c.25,0,.5.06.75.07l-.76.16,0,.16a14.8,14.8,0,0,0,2,.41A53.89,53.89,0,0,0,156.25,172.94Z" transform="translate(-120.32 -119.31)"/> <path class="w" d="M142,175.58c-.4-1-1.95-1-2.83-1.7a6.27,6.27,0,0,1,2.27-.83,4.58,4.58,0,0,1-1.54-.74l.39-.48a5.41,5.41,0,0,1-2.66-.69L144,170c-2.77.2-5.21-1.61-7.93-2.11l8.34-.75q-5.7-.87-11.48-1.17l8.89-1.66a41.68,41.68,0,0,0-9.5.89,29.22,29.22,0,0,1,7.45-1.77,45.2,45.2,0,0,0-10.95.9l.42.13a2.63,2.63,0,0,1-1.33.49,20,20,0,0,0,2.61.88l-1.55.51c3.53.5,6.19,3.15,8.56,5.65.21.21.43.52.28.77a17.23,17.23,0,0,1,1.31,1.25l-.81.31a6.63,6.63,0,0,0,1.81.65l-1.16.33a13.26,13.26,0,0,0,3.12.74A1,1,0,0,0,142,175.58Z" transform="translate(-120.32 -119.31)"/> <path class="x" d="M160.8,165.79a17.63,17.63,0,0,0-.24-2,20.49,20.49,0,0,0-6.37-9,32.27,32.27,0,0,1,4.94,7.67A10.32,10.32,0,0,0,160.8,165.79Z" transform="translate(-120.32 -119.31)"/> <path class="y" d="M162.55,170.59a30.87,30.87,0,0,1-1.56-5.46c-.12-.47-.27-.93-.43-1.39a17.63,17.63,0,0,1,.24,2,10.32,10.32,0,0,1-1.67-3.37,32.27,32.27,0,0,0-4.94-7.67h0a23.57,23.57,0,0,1,2.39,8.22,49.07,49.07,0,0,0-5.34-8.67c.41,1.47.83,2.93,1.25,4.39a20.32,20.32,0,0,1-2.82-2.9,5.6,5.6,0,0,1,.87,2.32,6.38,6.38,0,0,1-2.11-2.36,3.49,3.49,0,0,0,.47,1.94,18,18,0,0,0-5-2.5l.92,1.72c-1.24-1.3-3.36-1.33-5.21-1.27-3.17.1-6.43.22-9.3,1.5.2,0,.31.26.19.42a.81.81,0,0,1-.54.23l-4.68.78,1.32,0a25,25,0,0,1-2.9,1.07q-1.59,1.68-3.27,3.29a36.55,36.55,0,0,1,11.94-5.11,23.86,23.86,0,0,1,12.58.11,33.36,33.36,0,0,1,7.14,3.64l3.61,2.23a17.54,17.54,0,0,1,2.14,1.46c1.82,1.52,2.94,3.66,4.25,5.6a3.21,3.21,0,0,1,.62,0Z" transform="translate(-120.32 -119.31)"/> <path class="z" d="M141.56,151.83,136,151l1.3.39-1.23.15a26.06,26.06,0,0,1,7.4,1.88A5.86,5.86,0,0,1,141.56,151.83Z" transform="translate(-120.32 -119.31)"/> <path class="x" d="M153.64,155.07l-.09-.82c-.35-.26-.7-.51-1.06-.75A4.24,4.24,0,0,1,153.64,155.07Z" transform="translate(-120.32 -119.31)"/> <path class="z" d="M147.91,154.41a10.32,10.32,0,0,1-2-2.69,16.7,16.7,0,0,1,2.23,2.3,3.21,3.21,0,0,1,.12-1.76,2.62,2.62,0,0,1,1.13,1.08l.39-.7a1.5,1.5,0,0,0,1.77.29c-.43-.25-.87-.5-1.32-.72.2.08.1.41-.12.46a.88.88,0,0,1-.61-.18l-3.23-2c.1.34.21.68.32,1a5,5,0,0,1-1.89-.18c.3.55-.65.87-1.32.81l.55.27Z" transform="translate(-120.32 -119.31)"/> <path class="x" d="M143.43,153.38a6,6,0,0,0,.9.4C144,153.64,143.73,153.51,143.43,153.38Z" transform="translate(-120.32 -119.31)"/> <path class="x" d="M130,155.92q.9,0,1.8,0Q130.93,155.89,130,155.92Z" transform="translate(-120.32 -119.31)"/> <path class="x" d="M151.24,154.3a49.07,49.07,0,0,1,5.34,8.67,23.57,23.57,0,0,0-2.39-8.22l-.64-.5.09.82a4.24,4.24,0,0,0-1.15-1.57c-.3-.2-.59-.39-.9-.57a1.5,1.5,0,0,1-1.77-.29l-.39.7a2.62,2.62,0,0,0-1.13-1.08,3.21,3.21,0,0,0-.12,1.76,16.7,16.7,0,0,0-2.23-2.3,10.32,10.32,0,0,0,2,2.69l-3.94-2-.55-.27h-.09l-1.77-.28a5.86,5.86,0,0,0,1.87,1.55c.3.13.61.26.9.4a6,6,0,0,1-.9-.4,26.06,26.06,0,0,0-7.4-1.88l-.53.06a5.81,5.81,0,0,0,2.27,1.41c.63.07,1.25.18,1.86.31a5.9,5.9,0,0,1-1.86-.31,21.81,21.81,0,0,0-7.68.4l-.21.12a21.29,21.29,0,0,0,6.12.33q-4,.27-7.91.9l-.48.43-.53.37a17.29,17.29,0,0,0,3,.4q.9,0,1.8,0-.9,0-1.8,0a31.91,31.91,0,0,0-4.14.42l-.08.06a1.06,1.06,0,0,0-.48.55c0,.23.2.51.43.41-.67.78-1.36,1.54-2.07,2.3a25,25,0,0,0,2.9-1.07l-1.32,0,4.68-.78a.81.81,0,0,0,.54-.23c.12-.16,0-.45-.19-.42,2.87-1.28,6.13-1.4,9.3-1.5,1.85-.06,4,0,5.21,1.27l-.92-1.72a18,18,0,0,1,5,2.5,3.49,3.49,0,0,1-.47-1.94,6.38,6.38,0,0,0,2.11,2.36,5.6,5.6,0,0,0-.87-2.32,20.32,20.32,0,0,0,2.82,2.9C152.07,157.23,151.65,155.77,151.24,154.3Z" transform="translate(-120.32 -119.31)"/> <path class="z" d="M130,155.92a17.29,17.29,0,0,1-3-.4l-1.19.82A31.91,31.91,0,0,1,130,155.92Z" transform="translate(-120.32 -119.31)"/> <path class="x" d="M137.77,153a5.9,5.9,0,0,0,1.86.31C139,153.15,138.4,153,137.77,153Z" transform="translate(-120.32 -119.31)"/> <path class="z" d="M129.88,153.49a11.13,11.13,0,0,0-1.79,1.23q3.93-.63,7.91-.9A21.29,21.29,0,0,1,129.88,153.49Z" transform="translate(-120.32 -119.31)"/> <path class="z" d="M137.77,153a5.81,5.81,0,0,1-2.27-1.41l-3.76.46,1.21,0-3.71,1.19,1.67-.27c-.28.12-.55.25-.82.39A21.81,21.81,0,0,1,137.77,153Z" transform="translate(-120.32 -119.31)"/> <path class="aa" d="M146.33,141l-.79-.57a25.72,25.72,0,0,0,7.61,7.94q-3.71-3.48-7-7.28A.47.47,0,0,1,146.33,141Z" transform="translate(-120.32 -119.31)"/> <path class="ab" d="M150.66,119.37l0-.06c0,.16-.09.33-.14.49.58,3.31,2.64,6.27,4.38,9.24a55,55,0,0,1,6.36,16.5c.33,1.58.59,3.18,1,4.75.35,1.34.81,2.66,1.29,4,0-.15,0-.31,0-.46-1.88-8.7-3.67-17.5-8.23-25.2C153.46,125.63,151.24,122.64,150.66,119.37Z" transform="translate(-120.32 -119.31)"/> <path class="ac" d="M151.26,129.09a18.91,18.91,0,0,1-3.3-5.33l-.33.62-.36-.52-.11.28a49.87,49.87,0,0,0,2.81,4.27C150.28,128.82,150.76,129.28,151.26,129.09Z" transform="translate(-120.32 -119.31)"/> <path class="ac" d="M147.85,139.73a27.32,27.32,0,0,0-2.23-2.34,19.45,19.45,0,0,0,5,1.62,36.46,36.46,0,0,1-4.59-5l-.38-.16a7.48,7.48,0,0,1,.32,1.88l-.61-.35.37,1.38-.78-.44a6,6,0,0,1,.29,1.38.67.67,0,0,0-.47-.26l.69,1.87-.67-.29.22.38a5.27,5.27,0,0,1,1.26.45A1.5,1.5,0,0,0,147.85,139.73Z" transform="translate(-120.32 -119.31)"/> <path class="ac" d="M150.88,136.72a27.15,27.15,0,0,1-5-6.88,6.35,6.35,0,0,1,2,1.39,3.31,3.31,0,0,1-.59-1.82l2.18,2.35L147,124.7l-.46,1.24-.32-.57c-.1.4-.2.79-.31,1.19l-.23-1.15a7.4,7.4,0,0,0,0,4.74c.4,1.21,1.11,2.51.64,3.67A17.83,17.83,0,0,0,150.88,136.72Z" transform="translate(-120.32 -119.31)"/> <path class="aa" d="M158.17,144.73a29.29,29.29,0,0,1-4.57-4.47,27,27,0,0,1,2.79,1.56l-2-1.94a6.14,6.14,0,0,0,2.27.58,43.87,43.87,0,0,0-7-7.2l7.57,3.38-6-4.8,2.1.5a7,7,0,0,0-1.39-1.26,1.81,1.81,0,0,0,1.14-.43c-.71-.76-1.45-1.5-2.23-2.21l.72-.16a3.64,3.64,0,0,1-1.41-2.06l1.29.42c-.64-1.35-1.29-2.71-1.94-4.06-.11.28-.23.55-.35.82l-.67-.57-.51.93a18.91,18.91,0,0,0,3.3,5.33c-.5.19-1-.27-1.29-.68a49.87,49.87,0,0,1-2.81-4.27c-.07.19-.14.37-.2.56l2.46,7.06-2.18-2.35a3.31,3.31,0,0,0,.59,1.82,6.35,6.35,0,0,0-2-1.39,27.15,27.15,0,0,0,5,6.88,17.83,17.83,0,0,1-4.65-2.9,1.42,1.42,0,0,1-.08.18l-.09,0a36.46,36.46,0,0,0,4.59,5,19.45,19.45,0,0,1-5-1.62,27.32,27.32,0,0,1,2.23,2.34,1.5,1.5,0,0,1-1.55.08,5.27,5.27,0,0,0-1.26-.45,8.63,8.63,0,0,0,1.3,1.67,1.3,1.3,0,0,1,.79.23q5.31,2.94,10.37,6.28l-8.15-6.77Z" transform="translate(-120.32 -119.31)"/> <path class="b" d="M160.57,151.3a10.2,10.2,0,0,1-.76-2l.53.15a42.27,42.27,0,0,0-2.71-13.64,8.14,8.14,0,0,0-2.12-3.47,1.39,1.39,0,0,0-.2-1.49c-.31-.44-.74-.79-1.06-1.22a.36.36,0,0,1-.1-.3.16.16,0,0,1,.1-.08,2.37,2.37,0,0,1-1.26-1.44,7.54,7.54,0,0,1-.29-2.06l0-.4a17.75,17.75,0,0,1-2.2-5.56c-.28.94-.61,1.87-1,2.78.65,1.35,1.3,2.71,1.94,4.06l-1.29-.42a3.64,3.64,0,0,0,1.41,2.06l-.72.16c.78.71,1.52,1.45,2.23,2.21a1.81,1.81,0,0,1-1.14.43,7,7,0,0,1,1.39,1.26l-2.1-.5,6,4.8-7.57-3.38a43.87,43.87,0,0,1,7,7.2,6.14,6.14,0,0,1-2.27-.58l2,1.94a27,27,0,0,0-2.79-1.56,29.29,29.29,0,0,0,4.57,4.47l-8.82-4,8.15,6.77q-5.06-3.33-10.37-6.28a1.3,1.3,0,0,0-.79-.23h0a.47.47,0,0,0-.22.09q3.33,3.8,7,7.28a27,27,0,0,0,5.27,2.77l1.16.46a4.2,4.2,0,0,1-.41-1.19Z" transform="translate(-120.32 -119.31)"/> <path class="b" d="M154.25,129.26l.16.05A.11.11,0,0,0,154.25,129.26Z" transform="translate(-120.32 -119.31)"/> <path class="ad" d="M163.49,154.26c-.48-1.31-.94-2.63-1.29-4-.4-1.57-.66-3.17-1-4.75a55,55,0,0,0-6.36-16.5c-.72-1.22-1.48-2.44-2.18-3.68l0,.4a7.54,7.54,0,0,0,.29,2.06,2.37,2.37,0,0,0,1.26,1.44.11.11,0,0,1,.16.05l-.16-.05a.16.16,0,0,0-.1.08.36.36,0,0,0,.1.3c.32.43.75.78,1.06,1.22a1.39,1.39,0,0,1,.2,1.49,8.14,8.14,0,0,1,2.12,3.47,42.27,42.27,0,0,1,2.71,13.64l-.53-.15a10.2,10.2,0,0,0,.76,2l-1.4-.86a4.2,4.2,0,0,0,.41,1.19,9.34,9.34,0,0,1,2.91,1.68,4.52,4.52,0,0,1,.89,1.09,2.68,2.68,0,0,1,.18.33C163.53,154.58,163.51,154.42,163.49,154.26Z" transform="translate(-120.32 -119.31)"/> <path class="ae" d="M161,141.72a9.51,9.51,0,0,0,1.76-3.7l.17-2.49a7.69,7.69,0,0,1-1.54,2.57,7.94,7.94,0,0,1,.42-1.92l-1.31.93c-.19-.48.15-1,.3-1.48s-.14-1.21-.67-1.1a.82.82,0,0,0-.54-1.22,13.9,13.9,0,0,1-.09-4.55,13.61,13.61,0,0,1-2.17,3.64,5,5,0,0,0,.63-2.62l-.44.66a12.84,12.84,0,0,0-.42-5.37,4.08,4.08,0,0,1-.58,3.42l-.66-2.39a1,1,0,0,0-.59.06,8.87,8.87,0,0,0-1.62-1.62,5.58,5.58,0,0,1-1.66-3.68,8.72,8.72,0,0,1-1.36-1.49c.58,3.27,2.8,6.26,4.56,9.23a59.71,59.71,0,0,1,6.19,16.18c1-2.62,1.9-5.26,2.74-7.92A23.78,23.78,0,0,1,161,141.72Z" transform="translate(-120.32 -119.31)"/> <path class="ae" d="M163.91,145.62A44.35,44.35,0,0,0,166.2,138a73.55,73.55,0,0,1-4.68,7.22c.7,2.85,1.31,5.72,1.93,8.59a13.85,13.85,0,0,1,1.42-6.12c.95-2.25,2.09-4.49,2.33-6.89a22.19,22.19,0,0,0,0-2.94A26.37,26.37,0,0,1,163.91,145.62Z" transform="translate(-120.32 -119.31)"/> <path class="af" d="M160.73,132.12c.21-1.58.47-3.16.79-4.73-.42-.41-.82-.83-1.21-1.26A46.26,46.26,0,0,1,160.73,132.12Z" transform="translate(-120.32 -119.31)"/> <path class="af" d="M156.9,123.86a3.87,3.87,0,0,0-1.3-1.21,8.54,8.54,0,0,1,.88,2.15A7.92,7.92,0,0,0,156.9,123.86Z" transform="translate(-120.32 -119.31)"/> <path class="af" d="M167,135.84a6.78,6.78,0,0,0,0-2.46c-.19.46-.37.91-.55,1.37a14.82,14.82,0,0,0-.16-2.4l-.25.63a8.58,8.58,0,0,0-1.05-3.14,1.37,1.37,0,0,0-.49-.55,3.49,3.49,0,0,0-.79-.18,2.62,2.62,0,0,1-1.16-.72l-.39-.37a25.91,25.91,0,0,1-.13,5.84,18.16,18.16,0,0,0,1.58-4.07,17.73,17.73,0,0,1,.17,5.77,9.27,9.27,0,0,1,.94-2.88L165,136l.93-1.7a8.23,8.23,0,0,0,.56,3.14,5.11,5.11,0,0,0,.75-.54,12.28,12.28,0,0,1,.1-1.6A1.33,1.33,0,0,1,167,135.84Z" transform="translate(-120.32 -119.31)"/> <path class="af" d="M159.43,125.81a8.72,8.72,0,0,0-.85-1.63l-.06.22c.35.83.68,1.67,1,2.51A3.69,3.69,0,0,1,159.43,125.81Z" transform="translate(-120.32 -119.31)"/> <path class="ag" d="M165.9,134.31,165,136l-.24-3.33a9.27,9.27,0,0,0-.94,2.88,17.73,17.73,0,0,0-.17-5.77,18.16,18.16,0,0,1-1.58,4.07,25.91,25.91,0,0,0,.13-5.84c-.22-.2-.44-.41-.65-.63-.32,1.57-.58,3.15-.79,4.73a46.26,46.26,0,0,0-.42-6l-.7-.8.12,1.34a8.75,8.75,0,0,0-.3-.86,3.69,3.69,0,0,0,.08,1.1c-.31-.84-.64-1.68-1-2.51l-.21.78a10.46,10.46,0,0,0-1-1.81c-.06.32-.13.64-.2.95a4.09,4.09,0,0,0-.25-.46,7.92,7.92,0,0,1-.42.94,8.54,8.54,0,0,0-.88-2.15,4,4,0,0,0-1.72-.56,8,8,0,0,1-1.86-1.23,5.58,5.58,0,0,0,1.66,3.68,8.87,8.87,0,0,1,1.62,1.62,1,1,0,0,1,.59-.06l.66,2.39a4.08,4.08,0,0,0,.58-3.42,12.84,12.84,0,0,1,.42,5.37l.44-.66a5,5,0,0,1-.63,2.62,13.61,13.61,0,0,0,2.17-3.64,13.9,13.9,0,0,0,.09,4.55.82.82,0,0,1,.54,1.22c.53-.11.81.61.67,1.1s-.49,1-.3,1.48l1.31-.93a7.94,7.94,0,0,0-.42,1.92,7.69,7.69,0,0,0,1.54-2.57l-.17,2.49a9.51,9.51,0,0,1-1.76,3.7,23.78,23.78,0,0,0,3.12-4.86c-.84,2.66-1.76,5.3-2.74,7.92,0,.14.07.29.11.43A73.55,73.55,0,0,0,166.2,138a44.35,44.35,0,0,1-2.29,7.63,26.37,26.37,0,0,0,3.31-7.77c0-.32,0-.63,0-.94a5.11,5.11,0,0,1-.75.54A8.23,8.23,0,0,1,165.9,134.31Z" transform="translate(-120.32 -119.31)"/> </g> </svg>