<svg xmlns="http://www.w3.org/2000/svg" width="210.85" height="108.78" viewBox="0 0 210.85 108.78"> <defs> <style> .a { fill: #b2ada6; } </style> </defs> <path class="a" d="M255.16,96.35c-.07,0-.2-.15-.37-.3a48,48,0,0,0-23.35-10.4,53.33,53.33,0,0,0-20.09.92c-21.54,4.84-42.14,20.55-52.51,29.49l-.66.56a.42.42,0,0,0-.18.23,198.69,198.69,0,0,1-45.24,22.83,176,176,0,0,1,22.86-11.82c8.8-3,23.35-14.24,27.78-27.51,2.31-6.91,1.52-13.29-2.33-19a.41.41,0,0,0-.28-.17c-.34,0-.43.17-.61.67a48.83,48.83,0,0,1-17.74,23c-17.19,11.74-31.92,32.94-33.88,36.24A205.28,205.28,0,0,1,87.68,147a38.21,38.21,0,0,0,19.57-18.85c9.37-18.75,17-23.54,18.61-24.37l0,0h0a.41.41,0,0,0,.19-.52.38.38,0,0,0-.43-.24H125c-13.54,0-25.05,4.18-32.41,11.69-4.11,4.12-7.14,9.41-10.08,14.54-6,10.51-11.7,20.44-25.65,18.32h0c-.6-.09-1.21-.2-1.84-.33a.38.38,0,0,0-.41.15.39.39,0,0,0,0,.44s.12.11.28.18v0l.16,0a57.42,57.42,0,0,0,8.59,2h0c.4.06.77.09,1.16.14l-.38,0a.4.4,0,0,0-.43.62,184.73,184.73,0,0,1-19.05.83.41.41,0,0,0-.06.81h0a185.77,185.77,0,0,0,20.84-1c14.38,4.3,22.38,10.23,30.81,16.51s17.34,12.9,33.56,18.77a73.08,73.08,0,0,0,11.2,2.66h0c23.81,3.61,37-8.23,39.13-10.4a.32.32,0,0,0,.17-.1l0,0a1.9,1.9,0,0,0,.16-.2.42.42,0,0,0-.49-.46c-1.79.2-3.32.4-4.69.58-4,.52-6.66.87-10.25.32h0c-5.44-.82-13.13-3.67-32.06-11.25-22.18-9.48-44.39-14.14-59.12-16.37-1.42-.22-2.7-.4-3.84-.55,1.21-.16,2.43-.31,3.62-.49a27.18,27.18,0,0,0,6.56-.93.44.44,0,0,0,.34.11l.57-.13c2.9-.38,14.48-.72,33.4,2.15A316.13,316.13,0,0,1,150,159.1c13,3.16,22.2,5.09,29.91,6.26,26.66,4,39.61-.59,47.79-17.11a.41.41,0,0,0,0-.34.42.42,0,0,0-.6-.23.43.43,0,0,0-.1.09c-.54.43-11.12,8.52-30.27,5.61A68.3,68.3,0,0,1,181,148.87a93.92,93.92,0,0,0-22.62-6.23c-14.45-2.2-31-1.87-50.86,1.05A142.92,142.92,0,0,0,124,138.93a.32.32,0,0,0,.12.11.28.28,0,0,0,.13,0c.13,0,.26,0,.71-.21,3.45-1.28,21.38-7.54,40.5-7.58,4.46,0,8.47,0,12,0,13.77.09,22.08.14,31.37-3.48,8.47-3.39,19.76-4.81,28.1-3.55a24.52,24.52,0,0,1,4.44,1.07,1.46,1.46,0,0,0,.4.14h.12a.42.42,0,0,0,.37-.36.4.4,0,0,0-.26-.43l-.32-.12c-.28-.13-.71-.35-1.28-.64-4.36-2.19-17.62-8.88-33.19-11.24a66.74,66.74,0,0,0-19.14-.29c-21.25,3.64-49.19,18.27-59.71,23.78l-1.21.64a138.74,138.74,0,0,1-24.51,7c2-.61,4-1.23,5.92-1.88,0,0,.07.06.11.06s.18,0,.76-.36c26-8.86,44-20.58,49.32-24.43l.13-.05c5.8-2.37,26.44-10.21,48.53-11.55,12.06-.85,20.27-4.41,26.86-7.26,4.55-2,8.32-3.58,12-3.74,1.68.35,3.18.63,4.41,1l2.73.71c.41.22.82.44,1.23.7h0l0,0,.07,0a.38.38,0,0,0,.49-.22A.46.46,0,0,0,255.16,96.35Zm-43.63-9a52.59,52.59,0,0,1,19.79-.91,47.36,47.36,0,0,1,20.18,8.11A13.64,13.64,0,0,0,249,94a14.74,14.74,0,0,0-4.87.12c-1.47-.27-3.05-.54-4.75-.76l-3.72-.44-4-.27c-2.75-.11-5.64-.12-8.64,0-1.5.07-3,.23-4.55.34s-3.09.36-4.64.61c-3.11.51-6.26,1.1-9.35,1.93s-6.15,1.77-9.12,2.79-5.87,2.13-8.61,3.34c-5.51,2.37-10.52,4.86-14.75,7.11s-7.65,4.3-10,5.78l-.27.17C172.61,105.62,191.67,91.83,211.53,87.37Zm-48.91,12.72c-4.34,13-18.63,24-27.29,27a168.89,168.89,0,0,0-21.66,11.1l0,0,4.85-3.69,9.58-7.56q4.75-3.81,9.46-7.7c3.13-2.59,6.24-5.21,9.21-8a81.2,81.2,0,0,0,6.44-5.72,30.3,30.3,0,0,0,2.82-3.28,19.37,19.37,0,0,0,1.21-1.79,20.64,20.64,0,0,0,1-1.9c.34-.64.57-1.32.86-2s.45-1.37.67-2.06l.49-2.1c.13-.71.21-1.43.32-2.14s.11-1.43.16-2.15,0-1.44.06-2.15c0-1.11,0-2.21-.1-3.32a.69.69,0,0,1,0-.1C164.15,87.79,164.76,93.7,162.62,100.09Zm-19.71,5.49a49.74,49.74,0,0,0,17.86-22.93c0,1.09.09,2.18,0,3.27,0,.72,0,1.44-.09,2.15s-.1,1.43-.21,2.14l-.35,2.12-.5,2.08c-.23.68-.42,1.37-.67,2s-.53,1.33-.87,2-.63,1.28-1,1.87-.77,1.21-1.21,1.76a28.87,28.87,0,0,1-2.82,3.23,79.26,79.26,0,0,1-6.46,5.66h0c-3,2.76-6.1,5.36-9.2,8s-6.25,5.19-9.41,7.75l-9.52,7.62-4.79,3.77-.81.62-2.76,1.66C113.72,135,127.18,116.33,142.91,105.58Zm-59.68,24c2.91-5.07,5.92-10.32,10-14.37,6.93-7.06,17.65-11.08,30.29-11.41-1,.22-2,.46-3,.75s-1.71.52-2.55.82-1.67.62-2.5.94a48,48,0,0,0-17.32,12.32,44.9,44.9,0,0,0-3.34,4.2Q94,124,93.31,125.12q-.34.57-.66,1.17l-.31.6-.14.32-.06.17,0,.08a.42.42,0,0,0,0,.25l0-.18L91,130.24c-.43.88-.83,1.78-1.3,2.63s-.92,1.73-1.48,2.54a28.64,28.64,0,0,1-1.68,2.4c-.56.81-1.25,1.51-1.87,2.26s-1.35,1.42-2.11,2S81,143.35,80.24,144s-1.62,1.09-2.49,1.55a23.7,23.7,0,0,1-2.64,1.27,26.82,26.82,0,0,1-2.77,1c-.94.27-1.89.5-2.86.69s-1.93.3-2.91.39a32,32,0,0,1-4.8,0l-1.12-.22C72.36,148.62,77.66,139.36,83.23,129.62Zm-19.5,19.59-.82-.14a32.29,32.29,0,0,0,3.68,0c1-.08,2-.21,2.93-.37s1.94-.41,2.89-.68a26.58,26.58,0,0,0,2.8-1,22.47,22.47,0,0,0,2.67-1.27c.88-.46,1.7-1,2.53-1.55s1.6-1.17,2.33-1.84,1.43-1.36,2.14-2,1.34-1.46,1.91-2.27a29.46,29.46,0,0,0,1.71-2.43c.57-.81,1-1.69,1.51-2.54s.88-1.77,1.33-2.65l1.14-2.74,0-.18s.05.06,0,.08l0-.07,0-.14.13-.3.29-.59c.2-.39.42-.78.65-1.16.45-.76.93-1.51,1.43-2.24a45.8,45.8,0,0,1,3.29-4.18,47.28,47.28,0,0,1,7.89-7.13,48.82,48.82,0,0,1,9.26-5.24c.83-.32,1.64-.7,2.48-1s1.67-.6,2.53-.85c1-.34,2.1-.61,3.16-.86l.52,0c-2.91,2-9.73,8-17.68,24-6.32,13.43-17.78,18.58-25.36,20.55-2.26.42-4.55.82-6.88,1.18l-.59,0a.58.58,0,0,0-.19,0A34.24,34.24,0,0,1,63.73,149.21Zm77.71,39.29h0a72,72,0,0,1-11.07-2.63c-16.09-5.82-24.85-12.34-33.33-18.65-7.93-5.9-15.47-11.5-28.25-15.76,1.19.16,2.59.35,4.17.58l2.51.53c2.27.59,4.86,1.15,7.63,2s5.75,1.76,8.89,2.81l4.78,1.76,5,1.94c6.69,2.72,13.7,5.93,20.68,9.19L132.86,175c3.47,1.55,6.89,3.06,10.25,4.39A53.85,53.85,0,0,0,162.26,184a29.93,29.93,0,0,0,13.64-2.59c.51-.24,1-.48,1.38-.72C172.26,184.5,160.31,191.36,141.44,188.5Zm23.76-8.68h0c3.7.56,6.4.21,10.48-.32l3.54-.45c-.41.37-1,.85-1.66,1.4-.5.28-1.05.57-1.69.86a30.4,30.4,0,0,1-13.6,2.43,53.6,53.6,0,0,1-19.05-4.6c-3.35-1.34-6.75-2.86-10.21-4.42l-10.44-4.83c-7-3.23-14-6.41-20.74-9.1l-5-1.93-4.8-1.73c-3.14-1-6.12-2-8.91-2.78s-5.28-1.35-7.53-1.9c14.66,2.32,36,7,57.32,16.07C152,176.13,159.68,179,165.2,179.82ZM66.72,150.38c.13,0,.26,0,.39,0H67Zm113.33,14.17c-7.69-1.16-16.89-3.09-29.82-6.24a315.83,315.83,0,0,0-35.31-7.57,211.65,211.65,0,0,0-22.85-2.3c3.47-.25,7.61-.51,12.28-.73,7.09-.33,15.38-.5,24.24-.09A130.25,130.25,0,0,1,156,151.47c4.58,1.17,9,3,13.46,4.26a124.67,124.67,0,0,0,13.31,3.21,84.8,84.8,0,0,0,12.75,1.27,53.09,53.09,0,0,0,11.42-.94,40.31,40.31,0,0,0,9.24-2.93c1.26-.69,2.51-1.23,3.55-1.93s2-1.28,2.83-1.95l2.13-1.76c.47-.44.85-.84,1.19-1.19l.33-.2C218.22,164.28,205.49,168.41,180.05,164.55Zm.6-14.93a69,69,0,0,0,16,4.57c15.36,2.33,25.33-2.32,29.17-4.63-.33.33-.69.7-1.14,1.11l-2.15,1.74c-.79.66-1.81,1.21-2.83,1.91s-2.3,1.21-3.56,1.89a41.55,41.55,0,0,1-9.22,2.84,52.8,52.8,0,0,1-11.38.9,84.24,84.24,0,0,1-12.69-1.31,126,126,0,0,1-13.26-3.25c-4.49-1.24-8.86-3.12-13.46-4.31a130.63,130.63,0,0,0-27.55-3.76c-8.87-.38-17.17-.18-24.26.17-5.12.25-9.6.6-13.25.91-1.83-.06-3.44-.07-4.8-.06,29.72-6.26,52.68-7.81,71.93-4.89A93.51,93.51,0,0,1,180.65,149.62Zm56.42-26.16c-8.47-1.28-19.93.16-28.52,3.6-9.14,3.56-17.4,3.51-31.07,3.42-3.54,0-7.56,0-12,0-13.72,0-26.83,3.24-34.48,5.55l.8-.39a.38.38,0,0,0,.19-.39l1.31-.67c2.48-1,5.38-2.24,8.63-3.55,5.35-2.14,11.64-4.52,18.46-6.84l5.21-1.72c1.76-.52,3.57-1,5.39-1.55,3.65-1,7.37-1.94,11.13-2.69,1.88-.43,3.77-.71,5.65-1.06s3.77-.57,5.65-.75,3.75-.39,5.6-.44l2.75-.12,2.72,0a79.18,79.18,0,0,1,10.34.75c1.64.15,3.2.53,4.73.79s3,.65,4.38,1c2.81.63,5.28,1.56,7.52,2.24,2.59,1.1,4.79,2.13,6.46,2.95Zm-48.85-10.24a65.66,65.66,0,0,1,18.88.29,101.07,101.07,0,0,1,22.45,6.36,54.83,54.83,0,0,0-5.59-1.68c-1.4-.35-2.84-.76-4.38-1s-3.1-.66-4.75-.82a79.3,79.3,0,0,0-10.36-.8l-2.73,0-2.77.11c-1.86,0-3.73.25-5.61.41s-3.78.48-5.68.73-3.79.61-5.67,1c-3.77.77-7.5,1.73-11.15,2.74-1.82.51-3.61,1-5.4,1.59l-5.2,1.74c-6.82,2.35-13.1,4.77-18.44,6.93-2.47,1-4.72,2-6.75,2.82C148,127,170.49,116.25,188.22,113.22ZM234,97.65c-6.54,2.83-14.68,6.35-26.59,7.19-19.92,1.21-38.23,7.47-46.82,10.83l.84-.71.64-.38c2.39-1.45,5.86-3.42,10.1-5.65s9.25-4.68,14.76-7c2.74-1.19,5.65-2.24,8.61-3.28s6-2,9.11-2.74,6.2-1.44,9.29-2c1.55-.25,3.1-.42,4.62-.63s3.05-.28,4.54-.36c3-.16,5.87-.16,8.61-.06l4,.24,3.71.41c1.5.2,2.91.42,4.23.64A51.1,51.1,0,0,0,234,97.65Zm16.78-2.1c-1.09-.31-2.42-.59-3.89-.92a14,14,0,0,1,2,.13,14.41,14.41,0,0,1,4.48,1.52Z" transform="translate(-44.5 -81.21)"/> </svg>