<svg xmlns="http://www.w3.org/2000/svg" xmlns:xlink="http://www.w3.org/1999/xlink" width="300.99" height="205.84" viewBox="0 0 300.99 205.84"> <defs> <style> .a { fill: url(#a); } .b { fill: url(#b); } .c { fill: url(#c); } .d { fill: url(#d); } .e { fill: url(#e); } .f { fill: url(#f); } .g { fill: url(#g); } .h { fill: url(#h); } .i { fill: url(#i); } .j { fill: url(#j); } .k { fill: url(#k); } .l { fill: url(#l); } .m { fill: url(#m); } .n { fill: url(#n); } .o { fill: url(#o); } .p { fill: url(#p); } .q { fill: url(#q); } .r { fill: url(#r); } .s { fill: url(#s); } .t { fill: url(#t); } .u { fill: url(#u); } .v { fill: url(#v); } </style> <linearGradient id="a" x1="3.91" y1="8.22" x2="379.84" y2="397.01" gradientUnits="userSpaceOnUse"> <stop offset="0" stop-color="#cca57f"/> <stop offset="0.09" stop-color="#d8b894"/> <stop offset="0.19" stop-color="#e4c9a8"/> <stop offset="0.3" stop-color="#ebd4b4"/> <stop offset="0.41" stop-color="#edd7b8"/> <stop offset="0.5" stop-color="#e9d1b1"/> <stop offset="0.63" stop-color="#dec19e"/> <stop offset="0.78" stop-color="#cca680"/> <stop offset="0.78" stop-color="#cca57f"/> <stop offset="1" stop-color="#af8367"/> </linearGradient> <linearGradient id="b" x1="-22.9" y1="34.14" x2="353.04" y2="422.93" xlink:href="#a"/> <linearGradient id="c" x1="-20.19" y1="31.53" x2="355.74" y2="420.31" xlink:href="#a"/> <linearGradient id="d" x1="26.47" y1="-13.59" x2="402.4" y2="375.2" xlink:href="#a"/> <linearGradient id="e" x1="23.09" y1="-10.33" x2="399.03" y2="378.46" xlink:href="#a"/> <linearGradient id="f" x1="-7" y1="18.76" x2="368.94" y2="407.55" xlink:href="#a"/> <linearGradient id="g" x1="1.42" y1="10.62" x2="377.36" y2="399.41" xlink:href="#a"/> <linearGradient id="h" x1="6.61" y1="5.61" x2="382.54" y2="394.4" xlink:href="#a"/> <linearGradient id="i" x1="5.7" y1="6.49" x2="381.63" y2="395.28" xlink:href="#a"/> <linearGradient id="j" x1="13.74" y1="-1.29" x2="389.68" y2="387.5" xlink:href="#a"/> <linearGradient id="k" x1="54.85" y1="-41.04" x2="430.78" y2="347.75" xlink:href="#a"/> <linearGradient id="l" x1="50.71" y1="-37.03" x2="426.64" y2="351.76" xlink:href="#a"/> <linearGradient id="m" x1="58.84" y1="-44.9" x2="434.78" y2="343.89" xlink:href="#a"/> <linearGradient id="n" x1="52.77" y1="-39.03" x2="428.71" y2="349.76" xlink:href="#a"/> <linearGradient id="o" x1="89.98" y1="-75" x2="465.91" y2="313.79" xlink:href="#a"/> <linearGradient id="p" x1="71.8" y1="-57.43" x2="447.73" y2="331.36" xlink:href="#a"/> <linearGradient id="q" x1="67.2" y1="-52.98" x2="443.13" y2="335.81" xlink:href="#a"/> <linearGradient id="r" x1="90.05" y1="-75.07" x2="465.98" y2="313.71" xlink:href="#a"/> <linearGradient id="s" x1="62.57" y1="-48.5" x2="438.51" y2="340.28" xlink:href="#a"/> <linearGradient id="t" x1="65.19" y1="-51.03" x2="441.12" y2="337.75" xlink:href="#a"/> <linearGradient id="u" x1="79.87" y1="-65.23" x2="455.81" y2="323.55" xlink:href="#a"/> <linearGradient id="v" x1="75.25" y1="-60.76" x2="451.18" y2="328.02" xlink:href="#a"/> </defs> <g> <path class="a" d="M126.11,133.71a14.56,14.56,0,0,1,2.72,1.6,16.06,16.06,0,0,1,4,4.33,18.39,18.39,0,0,1,.94,1.73l.29.68-.25-.7a13.44,13.44,0,0,0-.83-1.79,15.19,15.19,0,0,0-1.61-2.3,16.41,16.41,0,0,0-2.35-2.19,14.83,14.83,0,0,0-2.79-1.6,18.71,18.71,0,0,0-2.66-.88c-1.59-.4-2.66-.58-2.66-.58s1.06.27,2.62.74A21.76,21.76,0,0,1,126.11,133.71Z" transform="translate(-58.01 -26.16)"/> <path class="b" d="M101.37,146a9.58,9.58,0,0,1,3.4-2.39,7,7,0,0,1,1.12-.35l.41-.09-.41.08a7.51,7.51,0,0,0-1.14.31,9.22,9.22,0,0,0-3.49,2.33A15.63,15.63,0,0,0,98.1,151a48.94,48.94,0,0,0-1.85,6.59,32.94,32.94,0,0,1-2,6.49,13.64,13.64,0,0,1-3.54,4.67,8.68,8.68,0,0,1-3.7,1.87,7.42,7.42,0,0,1-1.17.15h0a6.64,6.64,0,0,0,1.18-.11,8.45,8.45,0,0,0,3.79-1.79,13.6,13.6,0,0,0,3.64-4.71,32.26,32.26,0,0,0,2.08-6.52A49.69,49.69,0,0,1,98.31,151,15.54,15.54,0,0,1,101.37,146Z" transform="translate(-58.01 -26.16)"/> <path class="c" d="M111.43,156.69a8.34,8.34,0,0,0-1.3,1.77,19.44,19.44,0,0,0-1.88,6.34,36.35,36.35,0,0,1-1.19,6.49,12.77,12.77,0,0,1-.82,2,7.37,7.37,0,0,1-.41.72s.18-.24.46-.69a10.68,10.68,0,0,0,.93-2,36.76,36.76,0,0,0,1.33-6.49,19.16,19.16,0,0,1,1.73-6.32,9,9,0,0,1,1.19-1.8c.34-.4.56-.61.56-.61S111.8,156.31,111.43,156.69Z" transform="translate(-58.01 -26.16)"/> <path class="d" d="M140.5,109.89a15.55,15.55,0,0,1,2.92-2.66,31,31,0,0,1,6.54-3.5l3.15-1.28-.89.29c-.56.2-1.37.46-2.32.83a31.29,31.29,0,0,0-6.66,3.42,15.68,15.68,0,0,0-2.92,2.76,14.49,14.49,0,0,0-1.86,3,23.56,23.56,0,0,0-.94,2.28l-.32.88s.49-1.28,1.41-3.09A13.69,13.69,0,0,1,140.5,109.89Z" transform="translate(-58.01 -26.16)"/> <path class="e" d="M150.76,114.61a6,6,0,0,0-2.37,0c-.85.16-1.74.37-2.63.58a16.84,16.84,0,0,0-4.71,1.82,9.63,9.63,0,0,0-1.33,1l-.45.44.49-.4a11.62,11.62,0,0,1,1.38-.89,19.19,19.19,0,0,1,4.69-1.68c.89-.22,1.78-.45,2.61-.61a6.13,6.13,0,0,1,2.29,0,12.69,12.69,0,0,1,1.6.4l.6.19-.59-.24A11.63,11.63,0,0,0,150.76,114.61Z" transform="translate(-58.01 -26.16)"/> <path class="f" d="M132.45,151.71s-.12,1.1-.44,2.71a38.45,38.45,0,0,1-4.11,11.3c-.8,1.45-1.4,2.37-1.4,2.37l.44-.61c.28-.4.68-1,1.1-1.67a30.14,30.14,0,0,0,4.13-11.36c.14-.82.19-1.51.23-2S132.45,151.71,132.45,151.71Z" transform="translate(-58.01 -26.16)"/> <path class="g" d="M196.19,203.69l-.47.22a7.25,7.25,0,0,0-1.19.7,11.77,11.77,0,0,0-2.79,3.11,23.53,23.53,0,0,0-1.82,3.76c-.4,1.06-.63,1.78-.63,1.78l.79-1.72a32.22,32.22,0,0,1,1.92-3.66,12.83,12.83,0,0,1,2.64-3.13A8.05,8.05,0,0,1,196.19,203.69Z" transform="translate(-58.01 -26.16)"/> <path class="h" d="M214.5,196a49.19,49.19,0,0,1-3.08,4.71,32.59,32.59,0,0,1-3.74,4.36c-1.53,1.43-3.4,2.71-5.14,4.14a33.66,33.66,0,0,0-4.75,4.63,18.86,18.86,0,0,0-1.73,2.52,13.51,13.51,0,0,0-1.12,2.49,12.29,12.29,0,0,0-.56,2.25c0,.69-.13,1.28-.12,1.77.05,1,.08,1.55.08,1.55s0-.56,0-1.54c0-.49.11-1.09.18-1.77a14.9,14.9,0,0,1,1.74-4.66A19.2,19.2,0,0,1,198,214a33.23,33.23,0,0,1,4.76-4.54c1.72-1.44,3.57-2.74,5.11-4.21a32.38,32.38,0,0,0,3.71-4.43c1-1.37,1.7-2.59,2.2-3.44S214.5,196,214.5,196Z" transform="translate(-58.01 -26.16)"/> <path class="i" d="M209.51,210.91c-.18,1.53,0,3.59-.1,5.62a13.43,13.43,0,0,1-1.22,5.39,11.86,11.86,0,0,1-1.28,2.2s.17-.19.43-.55a10.36,10.36,0,0,0,1-1.57,12,12,0,0,0,.95-2.46,13.32,13.32,0,0,0,.42-3c0-2.06-.13-4.1,0-5.62a7.15,7.15,0,0,1,.25-1.82,2.34,2.34,0,0,1,.3-.63,2.08,2.08,0,0,0-.35.61A6.48,6.48,0,0,0,209.51,210.91Z" transform="translate(-58.01 -26.16)"/> <path class="j" d="M220,210.1a31.28,31.28,0,0,0,2.51,3.54,10,10,0,0,1,1.18,2,6.48,6.48,0,0,1,.51,1.91,5.9,5.9,0,0,1-.09,2s.06-.19.14-.53a6.08,6.08,0,0,0,.12-1.43,6,6,0,0,0-.44-2,10.36,10.36,0,0,0-1.17-2c-1-1.27-2-2.44-2.61-3.46a8.31,8.31,0,0,1-.64-1.26l-.17-.52s.05.19.12.53A6.75,6.75,0,0,0,220,210.1Z" transform="translate(-58.01 -26.16)"/> <path class="k" d="M214.22,105.55l.24-.23-.25.22a8.2,8.2,0,0,1-.74.59,10.22,10.22,0,0,1-1.26.75,13.4,13.4,0,0,1-1.75.73,19.43,19.43,0,0,1-4.65.92c-1.74.15-3.6.15-5.47.21a26.82,26.82,0,0,0-5.45.72,10.48,10.48,0,0,0-2.37.9,6.68,6.68,0,0,0-1.74,1.47,13.25,13.25,0,0,0-1.75,2.9l-.52,1.17s.2-.42.57-1.15a13.9,13.9,0,0,1,1.82-2.81,6.48,6.48,0,0,1,1.71-1.41,9.83,9.83,0,0,1,2.34-.85,27,27,0,0,1,5.4-.64c1.86-.09,3.73-.11,5.48-.29a19.76,19.76,0,0,0,4.69-1,11,11,0,0,0,3-1.59A8.37,8.37,0,0,0,214.22,105.55Z" transform="translate(-58.01 -26.16)"/> <path class="l" d="M200.86,118.54a19.41,19.41,0,0,1-4.44,2.67,9.42,9.42,0,0,1-2.27.65,5.71,5.71,0,0,0,.65-.08,8.86,8.86,0,0,0,1.68-.41,16.79,16.79,0,0,0,4.57-2.59,20.89,20.89,0,0,0,3.82-3.59,11.35,11.35,0,0,0,1-1.43c.2-.37.3-.58.3-.58a11.18,11.18,0,0,1-1.4,1.91A24.37,24.37,0,0,1,200.86,118.54Z" transform="translate(-58.01 -26.16)"/> <path class="m" d="M196.42,102.43c.66.11,1.41.34,2.24.52a19.52,19.52,0,0,0,2.63.42,18.39,18.39,0,0,0,5-.29,15.06,15.06,0,0,0,1.59-.4l.59-.19a20,20,0,0,1-2.21.43,22.09,22.09,0,0,1-4.91.15,19.61,19.61,0,0,1-2.6-.37c-.82-.18-1.59-.35-2.27-.43a6,6,0,0,0-1.64,0,4,4,0,0,0-.6.13,4.66,4.66,0,0,1,.61-.08A7.17,7.17,0,0,1,196.42,102.43Z" transform="translate(-58.01 -26.16)"/> <path class="n" d="M212.09,125.9c-.08-3.05.18-6.1.18-6.1s-.15.75-.29,1.89a31.56,31.56,0,0,0-.19,4.21,35.66,35.66,0,0,0,.37,4.2,7.79,7.79,0,0,1,.06,1.9,6.77,6.77,0,0,0,.11-1.92C212.24,128.94,212.11,127.42,212.09,125.9Z" transform="translate(-58.01 -26.16)"/> <path class="o" d="M217.33,61.65s.08-1,.09-2.4a18.15,18.15,0,0,0-.13-2.45,12,12,0,0,0-.66-2.76c-.21-.46-.42-.87-.63-1.3s-.4-.85-.62-1.24c-.44-.78-.84-1.51-1.19-2.14-.72-1.24-1.19-2.07-1.19-2.07s.41.86,1,2.15l1.11,2.19c.21.39.39.8.6,1.23l.6,1.28a16.36,16.36,0,0,1,.9,5.12C217.3,60.69,217.33,61.65,217.33,61.65Z" transform="translate(-58.01 -26.16)"/> <path class="p" d="M187.2,62.81a12.17,12.17,0,0,1-4.59-4.73c-.59-1-1-2.2-1.49-3.25a11.48,11.48,0,0,0-1.6-2.72,10,10,0,0,0-1.64-1.52l-.67-.5.64.54a11.71,11.71,0,0,1,1.54,1.58,11,11,0,0,1,1.52,2.71c.45,1,.85,2.21,1.44,3.31a12.19,12.19,0,0,0,2.23,2.86A12.89,12.89,0,0,0,187.12,63a10.77,10.77,0,0,0,2.06.86c.51.15.81.22.81.22l-.79-.27A13.48,13.48,0,0,1,187.2,62.81Z" transform="translate(-58.01 -26.16)"/> <path class="q" d="M199.37,74.41a14.82,14.82,0,0,0-3.42.33,20.36,20.36,0,0,0-3.64,1.52,20.23,20.23,0,0,1-3.61,1.46,21.24,21.24,0,0,1-6.67.82s.33,0,.92.07a17.43,17.43,0,0,0,2.43,0,20.09,20.09,0,0,0,7.06-2A19.52,19.52,0,0,1,196,75a14.38,14.38,0,0,1,3.37-.38c2-.09,3.34-.17,3.34-.17S201.38,74.39,199.37,74.41Z" transform="translate(-58.01 -26.16)"/> <path class="r" d="M202.05,41.16a2,2,0,0,1-.49-.24,3.41,3.41,0,0,1-.44-.3,5.65,5.65,0,0,1-.71-.63,5.33,5.33,0,0,1-.62-.71,3.78,3.78,0,0,0,.49.82,5,5,0,0,0,.68.73,5.22,5.22,0,0,0,.45.33,2.08,2.08,0,0,0,.51.27l1,.42c.35.12.66.2.94.29l.92.24L204,42Z" transform="translate(-58.01 -26.16)"/> <path class="s" d="M358.92,42.08l-4.46-4.62a.3.3,0,0,0-.21-.1.31.31,0,0,0-.22.09c-.83.8-20.32,19.64-21.68,21.38-1,1.26-3.92,1.38-6.06,1.46-.65,0-1.27.05-1.77.1-2.38.24-14.91,6.06-16.89,7.28-.73.44-2.6,1.47-4.76,2.67-4.41,2.44-9.91,5.48-10.85,6.34l-.36.33c-1.59,1.45-6.34,5.79-8.65,8.35l-.41-.1c-.34-.07-.69-.15-.83-.2l-1.84-.78-1-.43c-.67-.28-1.35-.6-2-.92A28.13,28.13,0,0,0,272,81a.41.41,0,0,0-.16,0,7.83,7.83,0,0,0-2.6,1.16.58.58,0,0,0-.18,0,7.49,7.49,0,0,1-1.16.06,14.42,14.42,0,0,1-12.49-7.09c-5.05-8.29-8.37-12.41-14.66-14.91a8.48,8.48,0,0,0-3.12-.59c-5,0-9.23,4.12-9.41,4.29a.52.52,0,0,0-.06.13s0,0,0,0a.34.34,0,0,0,0,.2h0l0,0a.26.26,0,0,0,.14.09s0,0,.06,0a.18.18,0,0,0,.1,0,8.38,8.38,0,0,1,2.36-.35c5.44,0,10.11,5.49,14.63,10.8,2.66,3.13,5.18,6.09,7.83,8a13,13,0,0,0,7.6,2.47,14.34,14.34,0,0,0,4.49-.74l-3.7,2.43a62.37,62.37,0,0,1-6,3.78c-1,.35-8.07.56-14,.56-3.34,0-5.83-.07-6.74-.18-.67-.67-5.88-5.87-8.08-7.92a22.68,22.68,0,0,0-3.51-2.54q-.36-.22-.78-.45c-.95-.52-2-1.12-2.31-2.07l-.09-.3a3.6,3.6,0,0,0-.33-.9c3.95-6.28,2.7-28.1.05-35.8a6.07,6.07,0,0,0-.24-.59l0-.11s0,0,0,0c-.11-.33-2.69-8.1-8.63-10.28-2.19-.81-3.76-1.33-5-1.75a19,19,0,0,1-4.51-1.87c-.67-.42-1.1-.4-1.31,0-.38.65.58,2.56,1,3.35l0,.06a18.21,18.21,0,0,0,4.58,3.4,15.1,15.1,0,0,0-1.29,3.2,6.78,6.78,0,0,0-.61-.86,8,8,0,0,0-2.11-2,5,5,0,0,0-2.6-.6c-.45,0-.9,0-1.36.06l-.72.05a15.92,15.92,0,0,1-3.88-.43,4.85,4.85,0,0,1-.93-.3,1.24,1.24,0,0,0-1.57.26.27.27,0,0,0-.09.21,7.33,7.33,0,0,1-.9,3.16c-.49.89-1.22,3.18,1.1,6.87a9,9,0,0,0-4.82.23c-2.47.78-4.22,1.46-5.62,2a24,24,0,0,1-5.93,1.73c-1.93.28-2.75.59-2.93,1.12s.24.92.67,1.38c.14.14.27.29.41.45s.51.55.92.95c1.51,1.5,4.34,4.28,4.22,6.82-.1,2.29,2.45,6.92,12.32,10.3-1,.05-1.91.14-2.81.23A70.69,70.69,0,0,0,179,66.64c-.37,0-.73,0-1.1,0a18.43,18.43,0,0,0-9.35,2.86,12.33,12.33,0,0,1-1.1.63c-.63.34-1.13.61-1.26,1.14s.19,1.25,1.16,2.6l.25.34a17.7,17.7,0,0,0,2.45,2.94c2.08,2.17,6.36,3.22,9.13,3.9l.78.19a15.68,15.68,0,0,0,3.85.47A19.83,19.83,0,0,0,191,80.25C196.63,78,201.19,77,205.32,77a18.1,18.1,0,0,1,9.78,2.64s0,0,0,.07A2.89,2.89,0,0,0,217.26,81a1.26,1.26,0,0,0,1-.25l.11-.08A7.71,7.71,0,0,1,220,81.7l.57.43.61.45,1.68,1.22.58.42A13,13,0,0,1,226,86.51c1.19,1.52,4.5,5,5.43,6-2.22,1.65-4.43,3.32-6.64,5l-1.44,1.09a2.82,2.82,0,0,0-.29.24,1.34,1.34,0,0,1-.79.45h0a1.48,1.48,0,0,1-.53-.27,2.16,2.16,0,0,0-.47-.28,2.2,2.2,0,0,0-1.7.06,35.21,35.21,0,0,0-3.81-2.52l-.31-.15a31,31,0,0,0-7.74-2.93c-.55-.11-1.11-.2-1.67-.3a22.19,22.19,0,0,1-6.24-1.73,7.07,7.07,0,0,0-4.72-.51,9.58,9.58,0,0,0-1.89.64l-.12,0c-.54.23-1.44.62-1.37,1.27,0,.42.57.5.87.55l.14,0a6.58,6.58,0,0,1,.91.32,7.88,7.88,0,0,1,1.49.84,6.75,6.75,0,0,1,1.26,1.09,14.94,14.94,0,0,0,1.67,1.74c-1.86.15-3.68.36-5.27.54a12.26,12.26,0,0,0-4,1.38,14.35,14.35,0,0,1-3.15,1.24.65.65,0,0,0-.49.4,1.06,1.06,0,0,0,.2.93,3.48,3.48,0,0,0,1.1.91l4.12,2.4.2.11a12.57,12.57,0,0,0-4.25,2.77A19.43,19.43,0,0,0,181.09,119a9.45,9.45,0,0,1-.26,1.2c-.37,1,.85,1.57,2.4,2.23a18.27,18.27,0,0,1,3.78,2,5.75,5.75,0,0,0,1.07.58,11.35,11.35,0,0,0,4.63.9,17.16,17.16,0,0,0,6.48-1.34,16.1,16.1,0,0,0,6.06-4.49,16.63,16.63,0,0,0,1.19-1.68,14,14,0,0,1,1.43-1.93,25.54,25.54,0,0,1,2.58-2.3l.35-.29c-.7,2.18-1.25,4.33-1.69,6.24l-.14.58a23.31,23.31,0,0,0-.94,7.78,16,16,0,0,0,.74,3.23,17.14,17.14,0,0,1,.69,2.76,2.2,2.2,0,0,0,2,1.93,1.87,1.87,0,0,0,.65-.12c.86-.32,1.4-1.32,1.89-2.21a6.84,6.84,0,0,1,.78-1.24c.64-.71,1.34-1.43,2.12-2.18,3.49-5.37,2.61-7.62,1.76-9.8a12.41,12.41,0,0,1-.55-1.66,9.71,9.71,0,0,1-.13-4.66c.1-.77.23-1.73.36-3a10.89,10.89,0,0,1,3.17-6.82,3,3,0,0,0,.71-1.37h.1a1.72,1.72,0,0,0,.78-1.08c.09-.35.2-.43.51-.65l1.47-1.08,2.56-1.88.34-.25c1.22-.89,2.47-1.81,3.73-2.68l.14-.1.66-.45a22.27,22.27,0,0,1,4.8-.85,5.23,5.23,0,0,1,.81.06s3.78.06,7.7.06c4.74,0,7.72-.08,8.87-.22,2.83-.36,4.76-1.52,7.38-3.25,1.82-1.19,3.71-2.33,5.55-3.43l2.34-1.4c.2-.13.44-.31.71-.51a4.91,4.91,0,0,1,1.57-.93c1.16-.19,3.37,1.26,4.95,2.3.62.4,1.15.75,1.57,1A7.89,7.89,0,0,1,280.52,89c.06,0,.11.11.17.17-.44.92-.94,2-1.44,3-1,2.16-2.07,4.39-2.5,5.27s-3.78,4-7,7-6.71,6.21-8.56,8.32c-2.63,3-12.58,11.61-18.52,16.77-3.14,2.71-4.79,4.15-5.05,4.44l-.17.19a27.38,27.38,0,0,1-6.5,5.52c-3.48,2.13-15.55,4.35-17,4.61l-.64-.61a63.44,63.44,0,0,0-6.28-5.47c-1.66-1.07-6.53-1.18-8.55-1.18h-.79a.32.32,0,0,0-.3.27.31.31,0,0,0,.22.32c.07,0,7,2,8.78,2.62,1.31.5,2.55,2.75,3,3.65-2.23.28-12.75,1.62-15.16,1.69l-11.82.36c-2.77-.19-9.49-.87-14.89-1.42-3.55-.36-6.34-.65-6.82-.67-3.22-.13-6.64-.43-10.15-.88a13.69,13.69,0,0,1-5.42-1.67,14.89,14.89,0,0,1-4.08-4.17c-.35-.47-.71-.94-1.07-1.38-.22-.28-.43-.57-.64-.85s-.51-.68-.78-1a17.68,17.68,0,0,0-2-4,21.22,21.22,0,0,1,5.51,2,18.3,18.3,0,0,0,4.63,1.72,14.21,14.21,0,0,0,2.53.24,10.87,10.87,0,0,0,4.75-1.07.24.24,0,0,0,.09,0l.1,0c10.13-3.73,10.21-11.33,10.26-15.41a8.6,8.6,0,0,1,.19-2.35c.13-.33.29-.68.48-1.08,1.18-2.54,3.16-6.8-.17-14.51a9.26,9.26,0,0,0-9-6.07,13.26,13.26,0,0,0-4.44.77A52.85,52.85,0,0,0,144,95.61c-7.52,1.9-11.61,12-13.5,18.45a5.3,5.3,0,0,0-.92-1.24c-.17-.17-.37-.34-.57-.51A25.35,25.35,0,0,1,132,100.67c3.18-6.19,1.47-9.09-.35-12.15a15.49,15.49,0,0,1-2.24-5.25c-1.19-6.42-10.77-8.66-17.76-10.3l-.64-.15a31.26,31.26,0,0,1-6.63-2.54c-2-1-3.8-1.83-5.59-1.83a5.69,5.69,0,0,0-2.31.5h0C92.87,70.54,94.7,80,95.78,84.51c-.67-.09-1.37-.14-2-.17-1.27-.08-2.72-.16-2.9-.62-.41-1-2.51-1.67-3.84-1.67-.73,0-1.16.19-1.28.56a7.88,7.88,0,0,0,0,2c.11,1.89.28,4.76-.56,6.23a6.51,6.51,0,0,0-.46,4.55,12.06,12.06,0,0,1,.21,2.1c0,.77,0,2,.14,3.72a19.65,19.65,0,0,0-5-.66c-5.92,0-11.12,2.72-13.45,5.25a16.44,16.44,0,0,1-7.14,4.82c-1.75.66-1.62,1.54-1.21,4.14.09.58.2,1.27.31,2.08a41.79,41.79,0,0,0,5.64,14.87c2.33,3.79,8.77,6,13,7.51l1.27.44c-8.42,4.67-9.21,9.58-10,14.78-.16,1-.33,2.06-.56,3.12a25,25,0,0,0-.51,7.1c.08,1.61.14,2.67-.58,3.85s-.94,2-.65,2.59,1.24.88,2.69,1c.89.08,2.86.51,5.13,1,3.57.78,7.61,1.67,9.59,1.67H84c2.81-.08,8-.25,13.17-6.31a8.47,8.47,0,0,0,1.06,2.36,67,67,0,0,1,4.25,7.48,20.23,20.23,0,0,1,1,2.9c.85,2.74,1.47,4.56,2.39,4.72a.82.82,0,0,0,.22,0c1,0,2.25-1.19,3.54-2.46.29-.28.58-.57.87-.84,0,.73.1,1.19.11,1.28a8.27,8.27,0,0,1-.66,3.61c-1.39.7-2.68,1.37-3.89,2s-1.22,1.18-1.12,1.59a1.45,1.45,0,0,0,.72.86,8.39,8.39,0,0,0,4.57,1.27,11.15,11.15,0,0,0,3.88-.72,20.27,20.27,0,0,0,7-5,81.54,81.54,0,0,0,10.47-12.36,13.93,13.93,0,0,0,4.34,4,13.67,13.67,0,0,1,4.49,3.91,45.7,45.7,0,0,0,3.21,3.49c2.5,2.43,3.3,3.09,4.18,3.09a3.37,3.37,0,0,0,1.23-.34l.47-.19c2.28-.86,2.25-5.08,2-8.65a11.51,11.51,0,0,1,.81-4.87,54.35,54.35,0,0,0,2.28-10.75c1-8.16-3.8-11.14-7.65-13.54a17.49,17.49,0,0,1-7.33-7.71,1.23,1.23,0,0,0,1.13-.15l.16-.15a.61.61,0,0,1,.22-.15,1.2,1.2,0,0,1,.49.25l.1.07a2.3,2.3,0,0,0,2.05.23,4.44,4.44,0,0,1,.76-.17,5,5,0,0,1,2,.61l.26.12a27.9,27.9,0,0,0,8.8,1.53h.13c2.07,0,11.3,1,14.12,1.28a21.38,21.38,0,0,0-2.55,2.05c-1.33,1.3-1.28,5.25-1.28,5.42a.29.29,0,0,0,.27.29.27.27,0,0,0,.32-.22c.26-1,1.17-3.83,2.36-4.36,1.44-.65,4.92-2.29,5.52-2.57a78.72,78.72,0,0,0,13,.83c1.37,0,2.75,0,4.12-.05a18.12,18.12,0,0,0-12.34,9.19c-2.05,3.74-3.35,8.65-4.72,13.85-2.66,10.12-5.42,20.59-14.14,22.43l-.07,0-.07,0a.36.36,0,0,0-.08.15l0,0h0a.37.37,0,0,0,.07.2s0,0,0,0,.06.06.11.07a22.8,22.8,0,0,0,5.92.77h0c3.18,0,7.62-.73,10.72-4.21,5.95-6.69,7.53-13.41,8.8-25.94A20.2,20.2,0,0,1,198,148.62a.24.24,0,0,0,.15-.13,0,0,0,0,0,0,0,.42.42,0,0,0,0-.15l0,0s0,0,0,0l0,0c3-.13,5.87-.29,8.28-.43s4.55-.25,5.73-.27c5-.09,24-4,26.43-8.07.86-1.48,4.11-4.55,7.11-7.27-2.06,6.51-4.41,13.15-5.2,14-.29.45-.86,1.49-1.58,2.79-1.42,2.59-4.06,7.39-4.68,7.76a.3.3,0,0,0-.13,0c-1,0-16.2-2-17.7-2.54-1.23-.29-4.11-2.3-5.46-3.32h0a.31.31,0,0,0-.21-.06.29.29,0,0,0-.26.21.28.28,0,0,0,.1.32l.24.25c2.93,2.89,4.78,4.47,5.65,4.84,1.35.72,14,2.31,16.47,2.49-1.16,2.5-10,17.46-11.46,18a6.41,6.41,0,0,1-2.7.29,71.7,71.7,0,0,1-8.05-.57.29.29,0,0,0-.16,0,.32.32,0,0,0-.25.24.34.34,0,0,0,0,.2h0a.34.34,0,0,0,.15.14h0c.24.1,6.82,2.22,9.27,2.32-.05,1.49-.6,7.9-1.09,8.57-.18.24-.36.52-.54.81-.6.93-1.27,2-2.16,2.25l-.29.06-.26,0a2.61,2.61,0,0,0-1.33.84,4.38,4.38,0,0,0-.49.6.81.81,0,0,0-.19.43c-.49.13-1,.3-1.64.51,0,0,0,0,0,0-.19-.34-.83-.75-4-.75-1.53,0-2.93.1-3.08.12l-.34.06a30.65,30.65,0,0,0-8,2l-1.54.69a21.91,21.91,0,0,1-6.12,2.12,7,7,0,0,0-4.18,2.26,9.54,9.54,0,0,0-1.2,1.6l-.07.11c-.31.49-.84,1.31-.41,1.8a.49.49,0,0,0,.39.17,1.56,1.56,0,0,0,.64-.21l.13-.05a6.31,6.31,0,0,1,.93-.26,8.11,8.11,0,0,1,.88-.12,13.57,13.57,0,0,0-1.92,1.39,12.27,12.27,0,0,0-2.53,3.42,14.36,14.36,0,0,1-1.89,2.8.67.67,0,0,0-.18.62,1.08,1.08,0,0,0,.7.65,3,3,0,0,0,.95.14l.47,0,2.87-.22a7.81,7.81,0,0,0-1.11,4.06,19.44,19.44,0,0,0,.67,4c.35,1.48.64,2.65.27,3.64a1.22,1.22,0,0,0,0,1.16,1.06,1.06,0,0,0,.94.37,10.28,10.28,0,0,0,2.34-.47l.76-.21a11.91,11.91,0,0,0,2-.74,21.92,21.92,0,0,0,2,6.38,10.44,10.44,0,0,1,.47,1.14c.14.51.56.77,1.25.77a11.07,11.07,0,0,0,2-.3,18.42,18.42,0,0,1,4.26-.49h.13c2.1,0,5.68-1.65,8.46-4.78a16.09,16.09,0,0,0,3.47-6.43,33.18,33.18,0,0,1,.34,5.74c0,1.65,0,2.65.82,2.67h0c.86,0,1.43-1.49,2.29-3.91a18.57,18.57,0,0,1,1.55-3.63c.28-.41.49-.75.68-1.07a15.79,15.79,0,0,0,1.86,2.82,15.61,15.61,0,0,0,2.45,2.24,18.76,18.76,0,0,1,2.12,1.88,2.33,2.33,0,0,0,1.7.75,1.86,1.86,0,0,0,1.55-.78,4.43,4.43,0,0,0,.31-2.89,6.32,6.32,0,0,1-.06-1.47c.12-1,.29-1.94.5-3-.16-6.4-2.17-7.76-4.1-9.07a12.24,12.24,0,0,1-1.4-1.06,9.89,9.89,0,0,1-2.76-3.76c-.35-.69-.78-1.56-1.42-2.71a11.08,11.08,0,0,1-1.38-6.71h0a9.14,9.14,0,0,0,.12-.93.29.29,0,0,0,.18-.23,1.05,1.05,0,0,1,.11-.31,2.39,2.39,0,0,0,.14-.45,3.88,3.88,0,0,0,0-.68c0-.1,0-.21,0-.32a1.8,1.8,0,0,1,.4-1.32,9.17,9.17,0,0,1,1.14-1,8.15,8.15,0,0,0,1.58-1.53c1.22-1.53,2.38-8.79,2.29-10.4.54-.66,2.3-3.38,9.31-14.63,1.19-1.63,3-4.59,4.83-7.72s3.94-6.59,5.44-8.71c.67,1.29,2.59,5.29,2.91,7.94a.32.32,0,0,0,.25.26.32.32,0,0,0,.32-.16.76.76,0,0,0,0-.18h0a49.06,49.06,0,0,0-.84-9.22l-.6-2.12a173.77,173.77,0,0,0,5.9-16.53.17.17,0,0,0,0-.07l.15-.13c4.62-4.1,9-8,10.3-9.75a31.67,31.67,0,0,1,2.6-2.93c-.24.59-.54,1.42-.89,2.45v0c-3.21,8.13-11.73,29.72-12.73,45.56-.35,11,3.62,23.18,11.78,36.16.46.79.94,1.58,1.45,2.37l.07.05,0,0a.26.26,0,0,0,.15,0h.07l0,0s0,0,0,0,0,0,0,0a.41.41,0,0,0,.07-.11l0-.08s0,0,0,0a.72.72,0,0,0-.15-.37c-2.32-4.82-3.23-15.11-.73-24,1.92-7.08,1.23-13.16.09-23.23-.29-2.59-.63-5.53-.95-8.8-1.46-14,1.71-27.61,2.37-30.23.11-.31.14-.45.08-.58v0h0c2.57-2.56,6.72-6.4,13.42-12.2,1.86-1.62,3.41-4.91,4.77-7.82.95-2,1.84-3.92,2.57-4.59.58-.53,1.62-1.56,2.83-2.75,1-1,2.12-2.11,3.26-3.2-1.14,6.9-1.94,11-2.27,11.72-.73,1.45-3.84,9.29-4,9.64l-.56,1.8c-1,6.68-2.78,17.54-3.38,18.25s-6.3,2.47-9.75,3.42a.3.3,0,0,0-.22.34.28.28,0,0,0,.32.25,76.34,76.34,0,0,0,9.21-1.31l1.11,2.36c.17.37.33.74.49,1.12l.51,1.14a4.89,4.89,0,0,1,.36,1.67l0,.16a5.17,5.17,0,0,1,0,.68,2.77,2.77,0,0,1-.86,1.95,11.59,11.59,0,0,0-8.42,7.4,35.41,35.41,0,0,0-2.18,12.3,24.89,24.89,0,0,1-.27,3.61c-.63,3.53-.32,11,.21,14.08l.06.39c.5,3.06,1.28,6.58,2.94,6.58a1.2,1.2,0,0,0,.45-.09,1.71,1.71,0,0,0,.95-1h.08l.09,0a.84.84,0,0,0,.3-.08,4,4,0,0,0,1.53-1.06l.27-.26a9,9,0,0,0,1.83-2.13c.59-1,1.87-2.78,3.22-4.61,1-1.37,2-2.76,2.78-3.9,0,.15.05.29.08.44.42,2.28.71,3.69,1.49,3.69h0c.71,0,.76-.22,1-1a39.54,39.54,0,0,1,2-5.55c2.62-6.14,5.22-17.79,1-23-1.79-2.19-3.23-3.8-4.32-4.94a1.41,1.41,0,0,0-.33-.35l-.07-.06a.71.71,0,0,0,.3-.27,2.77,2.77,0,0,0,.45-1.48,1.26,1.26,0,0,0-.13-.62,1.35,1.35,0,0,0-.7-.52,1.79,1.79,0,0,1-.34-.18.61.61,0,0,1-.24-.45,1.64,1.64,0,0,1,0-.22,1.22,1.22,0,0,0,0-.62,3.91,3.91,0,0,0-.44-.74,4.93,4.93,0,0,1-.36-.59c-.28-.61-.49-1.08-.66-1.54s-.25-.69-.37-1c-.35-1-.7-2-1.12-2.93.19-1,2-11.07,3-14.23.25-.8.56-1.89.93-3.14,1.15-4,2.71-9.36,4.18-12.25a33.73,33.73,0,0,1,4.75,6.13.31.31,0,0,0,.28.17c.17,0,.31-.13.31-.3a.35.35,0,0,0-.06-.18,58.47,58.47,0,0,0-3-7.36l-1-1.67,3.13-13.92.42-.35c2.58-2,9.81-5.13,11.69-5.91a51.27,51.27,0,0,0,.67,7.59.3.3,0,0,0,.6,0c.19-3,.76-7.52,1.43-8a25.36,25.36,0,0,1,3.26-1.74c1.27-.62,2.55-1.29,3.78-2,3.46-1.82,6.73-3.55,9-3.62.6,0,1.14,0,1.67,0-5.64,8.94-12.71,22.45-14.25,35.84-2,16.3,5.63,26.45,10.34,31l.25.25,0,0,0,0a.3.3,0,0,0,.21.1l.12,0s0,0,0,0h0s.05-.06.07-.08a.35.35,0,0,0,.05-.08.29.29,0,0,0,0-.13.22.22,0,0,0,0-.08c-1-2.38-1.82-4.71-2.51-7A31,31,0,0,1,324.8,117c1.58-5,3.53-11.34,3.21-20.23a117.85,117.85,0,0,1,3.36-31.44,6.06,6.06,0,0,0,3.34-1.46c2.64-2.13,24-21.13,24.19-21.33a.28.28,0,0,0,.1-.21A.35.35,0,0,0,358.92,42.08ZM250.72,163c.75-11.85,5.76-27,9.55-37.2-1.72,6-3.63,13.35-5,20.07-2.42,12.9-4.25,27.58,1.82,43.37C252.6,179.91,250.47,171.12,250.72,163Zm10.85-18c.32,3.27.66,6.21.95,8.81,1.14,10,1.82,16-.07,23a43.13,43.13,0,0,0-.25,21.66c-11.28-19.25-9.23-37.13-6.36-52.47,2.25-10.85,5.32-21.31,7.16-27.06A92.52,92.52,0,0,0,261.57,145Zm-24-84.78a8,8,0,0,1,2.9.55c6.13,2.43,9.38,6.49,14.36,14.67A14.92,14.92,0,0,0,266,82.65c-9.45,1.18-12.91-4.13-18.72-13.13l-1.15-1.77c-2.16-3.33-4.86-5.34-8-6a13.09,13.09,0,0,0-7.23.74A12.65,12.65,0,0,1,237.59,60.17ZM260.9,84.64a12.47,12.47,0,0,1-7.25-2.36c-2.59-1.82-5.08-4.75-7.72-7.85-4.61-5.41-9.37-11-15.09-11-.22,0-.45,0-.67,0A13,13,0,0,1,238,62.36c3,.61,5.55,2.53,7.62,5.72l1.14,1.76C252,78,255.52,83.43,263.52,83.43a22.23,22.23,0,0,0,3.8-.37A14.77,14.77,0,0,1,260.9,84.64Zm-59.28-55.2a7.54,7.54,0,0,1-1-2.68,1.08,1.08,0,0,1,.5.22,20.6,20.6,0,0,0,4.65,1.94c1.25.41,2.82.93,5,1.73,4.11,1.51,6.59,6,7.66,8.38-.38-.38-.78-.75-1.18-1.1l-.31-.26c-.29-.24-.59-.48-.89-.7l-.42-.3-.82-.56-.48-.29-.81-.46-.5-.26-.83-.37-.49-.21c-.3-.12-.59-.21-.89-.31l-.44-.14a10,10,0,0,0-1.31-.31,9.24,9.24,0,0,1-1.34-.36h0a12.59,12.59,0,0,1-1.4-.58h0A18,18,0,0,1,201.62,29.44Zm4.65,4.05a12.73,12.73,0,0,0,1.31.51l.1,0a10.4,10.4,0,0,0,1.25.32,12.84,12.84,0,0,1,1.33.32c.34.1.68.22,1,.35l.32.11c.4.16.78.34,1.17.54l.17.07c.38.2.77.42,1.15.65l.16.09c.36.23.72.47,1.08.73a1.37,1.37,0,0,0,.2.13c.32.24.64.5.95.76l.28.23c.28.24.55.5.82.76l.35.32c.25.26.48.52.72.79l.34.38.08.18a5.25,5.25,0,0,1,.22.55c2.48,7.21,3.78,27,.63,34.16a.59.59,0,0,1,0-.13c0-.08,0-.16,0-.24l.09-.52c0-.09,0-.19,0-.29s0-.36.07-.55l0-.3c0-.21,0-.43.07-.65a2.28,2.28,0,0,0,0-.26c0-.31.06-.63.08-1v0l.06-1c0-.13,0-.26,0-.39l0-.66c0-.16,0-.31,0-.47s0-.41,0-.62,0-.34,0-.51,0-.39,0-.59V65.61c0-.21,0-.43,0-.64,0-.37,0-.74,0-1.11,0-.16,0-.32,0-.48s0-.46,0-.7l0-.46,0-.7c0-.16,0-.31,0-.47s0-.46,0-.69l0-.44c0-.24,0-.48,0-.72s0-.22,0-.33c-.07-.88-.14-1.74-.23-2.57l0-.3c0-.23-.05-.46-.08-.69s0-.24,0-.36l-.09-.64c0-.12,0-.24-.05-.37s0-.4-.08-.6l-.06-.36-.09-.57-.06-.31c-.07-.37-.14-.73-.21-1.06,0-.09,0-.18,0-.26s-.07-.28-.1-.42L219,50c0-.13-.07-.25-.1-.37a3,3,0,0,0-.1-.32,3,3,0,0,0-.1-.32c0-.11-.07-.2-.1-.3l-.11-.27-.12-.27-.1-.21-.17-.3a.35.35,0,0,1-.05-.08c-.42-.59-.83-1.23-1.26-1.89-1.48-2.29-3.09-4.78-5.28-6.38l-.05,0-.18-.12a8.32,8.32,0,0,0-4.54-1.54l-.19,0q-.48,0-.9-.06c-.2,0-.39,0-.58-.06h0l-.16-.28A15.84,15.84,0,0,1,206.27,33.49Zm-16.07,2.8a7.94,7.94,0,0,0,1-3.32.49.49,0,0,1,.35-.18,1.63,1.63,0,0,1,.49.14,5,5,0,0,0,1,.33,16.52,16.52,0,0,0,4,.44l.72-.05c.45,0,.89-.06,1.32-.06a4.49,4.49,0,0,1,2.31.52A7.69,7.69,0,0,1,203.38,36a8.76,8.76,0,0,1,.86,1.29l0,.08a10.48,10.48,0,0,1-1.35-.35l-.05,0a6.56,6.56,0,0,1-1.12-.5l-.06,0-.37-.22-.1-.06-.36-.24a5.24,5.24,0,0,0-2.08-.94,3.13,3.13,0,0,0-1.37.07A5.37,5.37,0,0,0,194,38.87,21.28,21.28,0,0,1,192.44,43l-.06.13a.77.77,0,0,1-.06.15l0,.07a.94.94,0,0,0,0,.09l-.58-.25C189.07,39.37,189.75,37.12,190.2,36.29ZM178.31,57.57c.12-2.8-2.72-5.6-4.41-7.27-.38-.37-.7-.69-.88-.91l-.43-.47c-.25-.27-.59-.64-.55-.77s.36-.42,2.45-.72a24.72,24.72,0,0,0,6.07-1.76c1.39-.55,3.13-1.22,5.58-2a8.14,8.14,0,0,1,5.16,0q.28.42.63.84a15.06,15.06,0,0,0,1,9.83l.06.14c.17.37.36.74.56,1.11l.14.27c.24.43.5.87.8,1.31a47.49,47.49,0,0,0,6.66,7.7l.32.31.34.31c2.28,2.11,4.44,3.83,6,5,.76.6,1.35,1.07,1.74,1.41a4.09,4.09,0,0,1,.37.36l.14.14.25.28c.07.08.14.17.22.25l.2.25.26.32.19.24.27.36.21.28.26.35.24.34.15.22c.22.31.43.62.63.92l.13.19c.06.08.11.16.16.24l.16.28-.32-.39-.25-.29a8.43,8.43,0,0,0-.63-.68,29.76,29.76,0,0,0-4-3.31A25.9,25.9,0,0,0,201.37,69c-.52-.16-1-.31-1.56-.44s-1-.23-1.55-.32c-.83-.14-1.7-.24-2.6-.31h-.18q-1.11-.08-2.31-.09h-1.42C180.91,64.47,178.21,59.66,178.31,57.57Zm-9.25,16.88,0,.13a1.17,1.17,0,0,0,0,.32.29.29,0,0,0,0,.09c-.29-.38-.57-.78-.85-1.18l-.25-.34c-.81-1.13-1.14-1.78-1.06-2.12s.44-.46,1-.74c.33-.18.72-.38,1.14-.66a17.75,17.75,0,0,1,9-2.75c.35,0,.7,0,1,0a61,61,0,0,1,6.39,1.05l-2.46.34c-.48.1-11.81,2.26-13.66,5.38A2.09,2.09,0,0,0,169.06,74.45Zm36.26,1.94c-4.21,0-8.84,1-14.58,3.3a17.71,17.71,0,0,1-10.61.91l-.78-.19c-2.33-.57-6.19-1.52-8.32-3.27l-.09-.08a4.35,4.35,0,0,1-.44-.41l-.07-.08a3.07,3.07,0,0,1-.29-.34L170,76l-.13-.21a3.74,3.74,0,0,1-.22-.51,1.1,1.1,0,0,1,.14-1c1.71-2.89,13.14-5.07,13.24-5.09,1.48-.22,2.9-.41,4.23-.54h0c1.4-.15,2.91-.26,4.44-.3h1.48c.76,0,1.51,0,2.23.09h.22c.89.07,1.74.17,2.54.31a22.65,22.65,0,0,1,3,.74,25.58,25.58,0,0,1,6.58,3.22A30.85,30.85,0,0,1,211.72,76,16.21,16.21,0,0,1,213,77.45c.17.22.35.43.52.64A19.28,19.28,0,0,0,205.32,76.39Zm11.15-2.14a7.85,7.85,0,0,0-.63-2.66,10.55,10.55,0,0,0-1.7-2.54c-1.39-1.6-3-3.2-4.51-4.84a56.11,56.11,0,0,1-4.34-4.95,25.85,25.85,0,0,1-3-4.9A18.45,18.45,0,0,1,201,50.52c-.19-1-.24-1.53-.24-1.53s0,.56.19,1.54a17.32,17.32,0,0,0,1.19,3.9,26.29,26.29,0,0,0,2.94,5,56.2,56.2,0,0,0,4.3,5C211,66,212.57,67.63,214,69.2a9.83,9.83,0,0,1,1.7,2.47,8,8,0,0,1,.65,2.6,16.88,16.88,0,0,1-.23,4c-.06.38-.11.68-.15.92h-.11a.75.75,0,0,1-.32-.06,69.82,69.82,0,0,0-4-5.89l-.2-.25-.24-.3-.32-.37-.1-.12-.36-.39,0,0c-.13-.14-.26-.26-.38-.37-.4-.35-1-.82-1.76-1.42l-1.64-1.31A57.09,57.09,0,0,1,195,56.8c-.28-.42-.53-.84-.77-1.26l-.16-.29c-.18-.34-.35-.67-.5-1l-.09-.22a14.59,14.59,0,0,1-.85-9.69h0c0-.16.09-.3.13-.43.14-.44.25-.69.25-.69A20,20,0,0,0,194.59,39c.18-1.13,1.53-3.16,3.26-3.41a2.16,2.16,0,0,1,.76,0,4.46,4.46,0,0,1,1.86.85l.38.24.16.1.27.16.22.12.28.14.26.12a3.17,3.17,0,0,0,.37.16l.31.11c.19.06.39.13.6.18l.28.07c.18,0,.37.09.58.12l.32.06.3,0h.06l.64.08.27,0c.3,0,.6,0,.93.06A8.19,8.19,0,0,1,212,40.47,27.17,27.17,0,0,1,216.28,46c.43.66.85,1.31,1.26,1.9,2.39,3.42,3.26,24.48,1.41,28.94a8.9,8.9,0,0,1-1.71,1.81,2.91,2.91,0,0,1-1.29.57c.05-.24.11-.54.18-.91A15.66,15.66,0,0,0,216.47,74.25ZM196.87,95a7.17,7.17,0,0,0-1.37-1.19,8.48,8.48,0,0,0-1.6-.9,6.51,6.51,0,0,0-1-.35l-.2,0a2.17,2.17,0,0,1-.35-.07c0-.09.24-.27,1-.59l.12,0a9.33,9.33,0,0,1,1.78-.6,6.46,6.46,0,0,1,4.32.46A22.35,22.35,0,0,0,206,93.45l1.65.3a30.87,30.87,0,0,1,7.6,2.88l.3.15a32.83,32.83,0,0,1,4.28,2.93,8.76,8.76,0,0,1,.8,1,17,17,0,0,1-6.16,1.06,19.79,19.79,0,0,1-6.82-1.22l-2.38-.85c-.27-.1-.56-.21-.82-.29l-1.82-.66-.07,0-.68-.26-.08,0a15.5,15.5,0,0,1-1.77-.77l0,0-.44-.24,0,0-.44-.29h0A11.13,11.13,0,0,1,196.87,95Zm-10.11,7a3,3,0,0,1-.92-.74c-.11-.15-.14-.31-.06-.4a14.83,14.83,0,0,0,3.27-1.27,11.58,11.58,0,0,1,3.82-1.33c1.78-.21,3.85-.44,5.92-.6l.06,0,.34.21.13.08.35.19.14.07c.14.07.28.15.43.21l.08,0,.56.24.22.09.42.17.24.09.51.19.22.08.68.25.12,0,.92.33.57.2,2.65,1a20.38,20.38,0,0,0,7,1.25c.46,0,.91,0,1.34,0l.43,0,.78-.08.46-.07.61-.1.43-.09.48-.11.38-.09.38-.11.29-.09.29-.09.19-.07.21-.07.07,0,.07,0a.65.65,0,0,1,.06.21,0,0,0,0,0,0,0l-1.23.34L215.53,103l-2,.55-1.46.41h0c-1,.28-2,.55-3,.8l-.52.14-1.13.27-.71.16-1,.22-.8.15-1,.18-.88.13-.9.12-1.07.1-.72.07c-.6,0-1.21.06-1.81.06s-1.44,0-2.13-.09a12.2,12.2,0,0,1-2.87-.53,7.59,7.59,0,0,1-1-.4l-.09,0c-.31-.15-.61-.31-.9-.47h0l-.73-.42Zm23.3,11.68a25.14,25.14,0,0,0-2.63,2.35,14.91,14.91,0,0,0-1.49,2,16.52,16.52,0,0,1-1.16,1.62A15.47,15.47,0,0,1,199,124a16.55,16.55,0,0,1-6.25,1.28,10.84,10.84,0,0,1-4.39-.84,5.05,5.05,0,0,1-.95-.52,18.72,18.72,0,0,0-3.9-2.08c-1.44-.61-2.25-1-2.07-1.48a9.77,9.77,0,0,0,.28-1.3A18.91,18.91,0,0,1,187,108.23a12.24,12.24,0,0,1,4.48-2.82c.29.17.59.32.89.46l.08,0a9,9,0,0,0,1,.4,12.73,12.73,0,0,0,3,.56c.71.06,1.44.09,2.18.09s1.22,0,1.83-.06l.75-.07,1.07-.1.92-.12.88-.13,1-.18.77-.15,1.09-.23.64-.15c.42-.1.83-.19,1.24-.3l.34-.08c1-.27,2.11-.55,3.15-.85a18.32,18.32,0,0,0,5.55-1.55l3.49-1,.06,0a.25.25,0,0,1,0,.07l0,0-.29.2-.8.54-.17.11h0c-2.59,1.77-7.16,5.14-8.4,8.34-.18.46-.34.93-.51,1.41l0,.06C210.81,113.08,210.44,113.38,210.06,113.69Zm11.08-9.46a11.18,11.18,0,0,0-3.35,7.18c-.13,1.3-.26,2.25-.36,3a10.44,10.44,0,0,0,.14,4.89,14.19,14.19,0,0,0,.58,1.74c.83,2.13,1.62,4.15-1.66,9.2-.75.71-1.46,1.43-2.11,2.16a7.42,7.42,0,0,0-.86,1.36c-.46.83-.92,1.69-1.57,1.93a1.36,1.36,0,0,1-.44.08,1.63,1.63,0,0,1-1.46-1.41,17.45,17.45,0,0,0-.7-2.85,15.45,15.45,0,0,1-.72-3.11,22.83,22.83,0,0,1,.93-7.59l.13-.58a65.28,65.28,0,0,1,2.57-8.72c1.36-3.48,7-7.29,9.15-8.72l.27-.18h0A1.85,1.85,0,0,1,221.14,104.23ZM155.91,94a8.69,8.69,0,0,1,8.42,5.71c3.22,7.46,1.31,11.56.17,14-.19.41-.36.78-.49,1.11a8.7,8.7,0,0,0-.23,2.57c-.05,4-.12,10.51-8.39,14.24,1.5-1.51,4-4.34,4.88-7.37v0a7.79,7.79,0,0,0,.2-.8l0-.17c0-.23.07-.45.09-.68a1.49,1.49,0,0,0,0-.21,5.89,5.89,0,0,0,0-.84,17.34,17.34,0,0,0-1.2-4.73c-1-2.84-1.82-5.08,1.27-7.5,0,0,.17-.16.36-.37h0c.94-1,3.35-3.95,2.61-6.31-.1-.31-.22-.69-.38-1.12,0-.09-.07-.18-.1-.28l-.09-.21c0-.13-.11-.27-.18-.41a1.42,1.42,0,0,0-.08-.18l-.21-.43c0-.08-.09-.16-.13-.25l-.22-.37-.22-.36-.18-.27-.37-.49a1.34,1.34,0,0,1-.11-.14c-.18-.21-.36-.42-.56-.62l0,0a11.44,11.44,0,0,0-7.37-3.24A12.52,12.52,0,0,1,155.91,94Zm-11.75,2.18a53.27,53.27,0,0,1,7.46-1.43h.11c.47,0,.93,0,1.36.06l.56.07c.28,0,.56.06.83.11l.53.1.72.17.49.14.62.21.47.19.5.23.48.25.33.19.54.35.12.09a10.75,10.75,0,0,1,3.69,5.53l.09.32c.05.18.1.37.13.52s0,.22,0,.33v.14c0,.12,0,.24,0,.36a.59.59,0,0,0,0,.13l-.09.36a.65.65,0,0,0,0,.13c0,.12-.08.24-.13.36a.69.69,0,0,1,0,.13l-.15.35s-.05.09-.07.14a3.24,3.24,0,0,1-.17.32l-.09.16c0,.1-.12.2-.18.3l-.09.15c-.06.1-.13.19-.19.28l-.11.15-.17.25-.12.16-.17.21-.12.16a2.09,2.09,0,0,0-.14.17l-.14.16-.1.12-.14.16-.07.07-.14.16,0,0-.15.16c-3.41,2.66-2.5,5.2-1.44,8.15a16.93,16.93,0,0,1,1.16,4.57,5.41,5.41,0,0,1,0,.9,1.9,1.9,0,0,1,0,.25c0,.23-.06.45-.11.68a2.27,2.27,0,0,1-.06.25c-.06.23-.12.45-.2.68,0,.07-.05.14-.07.22q-.14.36-.3.72l-.06.15c-.13.27-.26.54-.41.8l0,0a25.11,25.11,0,0,1-4.61,5.72l0,0,0,.05a10.93,10.93,0,0,1-7.29.95,18,18,0,0,1-4.48-1.67,19.91,19.91,0,0,0-6.26-2.12c-.63-.89-1.27-1.72-1.85-2.46s-.94-1.19-1.28-1.69a13.82,13.82,0,0,1-1.81-5.87,28.65,28.65,0,0,1-.2-3.81,1.71,1.71,0,0,0,0-.38C132.58,108.8,136.6,98.1,144.16,96.19Zm-15,17a3.33,3.33,0,0,1,1.12,2.19v0c-.05,3.14.47,7.64,2.11,10,.35.51.79,1.08,1.3,1.73s1.26,1.61,1.91,2.53h0a18.15,18.15,0,0,1,2.29,4.21.34.34,0,0,0,0,.1,28.08,28.08,0,0,1,.74,3.84,17.62,17.62,0,0,1-.23,3.15,5.45,5.45,0,0,1-.21.65.41.41,0,0,0,0,.22.59.59,0,0,0,0,.08,20.62,20.62,0,0,1-1.06,3.44,1.09,1.09,0,0,0-.08-.15c0-.26-.09-.6-.16-1-.17-1-.42-2.48-.84-4.2s-1-3.71-1.72-5.8a30.36,30.36,0,0,0-2.94-6.3,17.51,17.51,0,0,0-4.86-5,28.17,28.17,0,0,0-5.37-2.81c-1.64-.67-3-1.11-4-1.43l-1.54-.5,1.52.55c1,.34,2.36.86,4,1.53a28.05,28.05,0,0,1,5.3,2.85,17,17,0,0,1,4.73,4.93,29.66,29.66,0,0,1,3,6.2c.75,2.08,1.33,4.06,1.77,5.77.63,2.41,1,4.27,1.14,5.16A1.13,1.13,0,0,0,137,145l-.07-.09a2.34,2.34,0,0,0-.2-.27l0,0a3.63,3.63,0,0,0-.28-.27,6.72,6.72,0,0,0-3.3-1.33h0c-.37-.06-.76-.1-1.18-.14h-.07c-.52-.05-1.05-.07-1.63-.07h-.91c-1.47,0-2.53.08-3.46.08h-.43l-.91,0h-.1l-.86,0h0c-4.18-.28-6-1.48-7.57-4.61-.13-.27-.27-.53-.39-.77-.44-.84-.82-1.5-1.18-2.05a.05.05,0,0,0,0,0c-.17-.26-.34-.49-.5-.71l0,0c-.16-.21-.32-.39-.48-.57l-.05-.05c-.16-.17-.32-.33-.49-.48l-.06,0c-.17-.15-.35-.29-.53-.43l-.06-.05-.59-.42-.11-.08-.49-.33-.16-.1c-.39-.26-.83-.55-1.33-.9-.26-.18-.57-.37-.92-.57l-.33-.19-.08,0h0c-1.14-.62-2.48-1.25-3.9-1.89-3.08-1.4-6.25-2.85-6.94-4.32v0a1.6,1.6,0,0,1-.11-1.3c.35-.85,1.63-1.34,2.76-1.76.43-.17.83-.32,1.16-.48s.39-.21.59-.34l.23-.15.36-.26.29-.23.28-.23.31-.29.23-.21.33-.35.17-.18.31-.37,0,0a1.34,1.34,0,0,0,.11-.14c.12-.15.22-.3.33-.45a.61.61,0,0,1,.07-.1l0,0v0s0,0,0,0a4,4,0,0,0,.24-.38v0h0v0h0l.23-.43.09-.22c.07-.16.16-.34.25-.53.82-1.72,2.73-4.52,10.1-5.57h.09l.93-.1.68,0,.78,0h.61a20.25,20.25,0,0,1,2.72.19l.19,0c.4.06.79.14,1.18.22l.28.06q.53.12,1,.27l.54.17c.23.08.46.15.68.24a12.18,12.18,0,0,1,1.14.5h0c.34.17.65.34.94.52l.13.08a1.18,1.18,0,0,1,.18.13,7.14,7.14,0,0,1,.75.53h0C128.76,112.87,129,113.06,129.16,113.24Zm2.29,30.24c-.32,2.85-2.17,7-4.87,11.11-.09-1.38-.2-2.82-.34-4.34-.19-2.2-.38-4.48-.47-6.73h0c.94,0,2,0,3.48-.07A21.39,21.39,0,0,1,131.45,143.48ZM99.18,69.08l.19,0a4.85,4.85,0,0,1,.55.09H100a19.71,19.71,0,0,1,4.08,1.62,31.66,31.66,0,0,0,6.76,2.58l.63.15c6.83,1.6,16.19,3.8,17.31,9.83a15.89,15.89,0,0,0,2.32,5.44l.65,1.13,0,0,.28.52,0,.11c.08.15.16.3.23.46l.06.14c.06.14.13.29.18.44s0,.11.07.17.1.28.14.42l.06.21c0,.13.08.27.11.41a1.57,1.57,0,0,1,0,.23,2.93,2.93,0,0,1,.07.41,2.3,2.3,0,0,1,0,.26c0,.14,0,.28,0,.42v.71l0,.32c0,.15,0,.29,0,.44L133,96c0,.15-.05.3-.09.46s-.06.26-.09.39-.08.31-.13.47-.09.28-.14.43l-.17.48c-.06.16-.12.32-.19.48s-.13.33-.21.51-.16.35-.25.52-.12.27-.19.41c-.13-1.22-.23-2.46-.3-3.71-.27-4.45-4.1-12.39-7.32-13.9-3-1.43-7.12-3.71-9.17-6.47-1.41-1.91-3.91-2.17-6.13-2.41a13.34,13.34,0,0,1-3.24-.61,10.49,10.49,0,0,1-2.49-1.66,10.52,10.52,0,0,0-4.13-2.34Zm-2.53.45c2.6-.25,4.26,1.07,5.86,2.34a10.86,10.86,0,0,0,2.65,1.75,13.42,13.42,0,0,0,3.4.65c2.19.23,4.45.48,5.71,2.17,2.12,2.86,6.28,5.2,9.39,6.66s6.72,9.17,7,13.38c.09,1.6.23,3.18.4,4.72a26.17,26.17,0,0,0-2.63,10.64l-.14-.09c-.22-.15-.45-.3-.69-.44l-.28-.16c-.27-.15-.55-.29-.84-.43l-.11,0a15.56,15.56,0,0,0-2.73-1,7.33,7.33,0,0,0,.46-.84,7.85,7.85,0,0,0,.72-3.06,13.67,13.67,0,0,0-.65-4.41c-.47-1.57-1.11-3.18-1.71-4.81A35.64,35.64,0,0,0,118,88.15a16.39,16.39,0,0,0-2.14-2.31c-.57-.5-.92-.76-.92-.76s.33.28.88.8c.27.27.6.59.94,1s.72.86,1.11,1.38a35.16,35.16,0,0,1,4.27,8.47c.63,1.61,1.28,3.22,1.77,4.77a13.35,13.35,0,0,1,.71,4.33,8.34,8.34,0,0,1-.6,3.05,7.4,7.4,0,0,1-.43.86,19.26,19.26,0,0,0-4.85-.6h-.16c0-.25,0-.49,0-.73s0-.45,0-.66,0-.53,0-.79l0-.65c0-.24,0-.47,0-.7s0-.42,0-.62,0-.4,0-.6l-.06-.57c0-.19,0-.36-.06-.53s0-.35-.07-.5,0-.34-.07-.5,0-.26-.06-.37-.06-.37-.09-.53,0-.13,0-.18l-.11-.53c-.95-4.43-8.4-9.76-11.39-10.3-1.87-.33-4.2-2.1-6.07-3.52a26.45,26.45,0,0,0-2.45-1.74h0a4.07,4.07,0,0,0-.78-.32l-.41-.11-.31-.08C94.82,78.07,94.05,70.75,96.65,69.53Zm-11,21.58c.92-1.63.75-4.6.63-6.57a9.17,9.17,0,0,1,0-1.74s.19-.15.7-.15c1.22,0,3,.61,3.28,1.29s1.69.9,3.43,1a19.39,19.39,0,0,1,2.71.29c.16,0,.33.07.47.12a3.8,3.8,0,0,1,.74.29,27.87,27.87,0,0,1,2.39,1.7c1.92,1.46,4.31,3.28,6.33,3.64,2.88.52,10,5.75,10.9,9.83a33,33,0,0,1,.59,4.2v.07c0,.38.06.78.08,1.2,0,.25,0,.52,0,.78s0,.39,0,.6c0,.44,0,.89,0,1.36v.14h-.15c-.31,0-.62,0-.94,0l-.41,0-.91.1c-4.17.6-6.66,1.75-8.21,3,0-.09,0-.24-.06-.44a9.64,9.64,0,0,0-.38-1.46,15.52,15.52,0,0,0-2.23-4,25.6,25.6,0,0,0-3-3.44,4.49,4.49,0,0,0-1.29-.78,2.85,2.85,0,0,0-.55-.16,4.07,4.07,0,0,1,1.73,1.07,13.42,13.42,0,0,1,1.37,1.58c.48.6,1,1.25,1.47,1.91a17.87,17.87,0,0,1,2.31,3.85,12.84,12.84,0,0,1,.49,1.4c0,.21.08.36.1.45a8.3,8.3,0,0,0-2.59,3.47l-.09.22,0,0-.15-.17c-.59-.7-1.19-1.39-1.8-2l-.22-.24c-.61-.67-1.23-1.33-1.85-2l-.2-.2c-.63-.63-1.26-1.24-1.88-1.83l-.18-.16c-.63-.59-1.26-1.16-1.89-1.7l-.15-.12c-.63-.54-1.26-1-1.88-1.53l-.12-.09c-.63-.48-1.25-.94-1.85-1.35l-.09-.06c-.61-.42-1.22-.8-1.81-1.15l0,0c-.6-.35-1.19-.66-1.75-.93s-1.18-.5-1.79-.72c-.31-.12-.62-.22-.94-.31l-.39-.14c-.11-1.77-.16-3.07-.15-3.86a13.89,13.89,0,0,0-.22-2.2A5.84,5.84,0,0,1,85.7,91.11Zm-8.25,47.51c-4.18-1.45-10.5-3.64-12.71-7.26a41.43,41.43,0,0,1-5.56-14.63c-.11-.82-.22-1.51-.31-2.1-.42-2.65-.42-3,.83-3.48a17,17,0,0,0,7.36-5c2.24-2.44,7.27-5.06,13-5.06a19.62,19.62,0,0,1,5.72.89c.33.1.66.2,1,.32a17.75,17.75,0,0,1,1.77.72c.29.13.58.28.88.44.09,0,.18.1.27.15l.63.35.35.21.58.36.43.28.52.35.43.31.55.38.44.33.55.42.47.37c.17.15.35.28.53.43l.5.42.52.43.5.45.52.46.53.48.5.47c.18.16.36.34.53.51l.51.48.52.53.52.51c.18.19.36.37.53.56s.34.34.5.52l.55.6.48.52c.19.2.37.41.56.62l.46.53.56.64.39.47,0,.05a9.83,9.83,0,0,1-.63.9c-.12.15-.26.29-.4.44l-.3.33c-.18.18-.37.36-.57.53l-.15.13c-.21.18-.43.35-.64.5h0a6.58,6.58,0,0,1-.85.53,11.27,11.27,0,0,1-1.1.45l-.12,0c-.21-.22-.6-.6-1.15-1.1A30.55,30.55,0,0,0,95.17,117a32,32,0,0,0-3.54-2c-1-.47-1.69-.74-1.69-.74s2.63,1.37,5.07,3c2,1.34,3.92,2.86,4.51,3.35l-.32.12a4.42,4.42,0,0,0-2.64,1.92,3,3,0,0,0-.09.32,2.35,2.35,0,0,0,.21,1.46l0,0c1.09,2.36,4.21,3.57,7,4.62l.51.2-5-.06H93.54a22.73,22.73,0,0,1-6.37-.64c-2.1-.59-3.89-2-5.79-2.78s-3.73-1.45-5.24-2.09c-.76-.33-1.45-.63-2-1a14.63,14.63,0,0,1-1.49-.89c-.39-.28-.69-.51-.88-.68l-.3-.26.29.27c.19.18.48.41.86.71a17.25,17.25,0,0,0,3.49,2c1.51.66,3.34,1.29,5.2,2.15.94.43,1.85,1,2.79,1.5a15,15,0,0,0,3,1.36,23,23,0,0,0,6.45.58l5.64,0,5-.09c.81.31,1.57.62,2.25.94l.12.06c.26.13.5.27.73.41h0a28.8,28.8,0,0,1-3.78,1.94c-.49.13-1,.24-1.52.33l-1.33.23-4.51.81c-.8.1-1.61.22-2.41.38a54.45,54.45,0,0,0-14.51,4.9Zm19.71,24.92v.06a11.28,11.28,0,0,0-.25,2.78v0a9.23,9.23,0,0,0,.14,1.3c-5.13,6.19-10.25,6.35-13,6.43H83.6c-1.92,0-6.1-.92-9.46-1.66-2.29-.51-4.27-.94-5.2-1-1.18-.1-2-.25-2.21-.67s0-1,.63-2c.81-1.34.75-2.53.66-4.19a24,24,0,0,1,.5-6.94c.23-1.08.4-2.14.56-3.16.84-5.29,1.56-9.86,9.85-14.41.15-.09.31-.16.46-.24h0c5.28-2.8,11.06-4.19,16.83-5.28l1.47-.18c1.21-.13,2.46-.27,3.68-.51a13.34,13.34,0,0,0,2.34-.72,10,10,0,0,0,4-2.08l.17-.1.55.33.13.09h0l.42.26c.46.33.87.6,1.24.85l-.71.71a27.94,27.94,0,0,1-2.92,2.46,26.82,26.82,0,0,1-4.63,2.73,26.22,26.22,0,0,1-5.85,1.91,59.21,59.21,0,0,0-6.07,1.25A17,17,0,0,0,85.3,144a16.1,16.1,0,0,0-2.81,2.6c-.6.71-.9,1.14-.9,1.14s.32-.42.94-1.11a17.71,17.71,0,0,1,2.86-2.5,17,17,0,0,1,4.81-2.34c1.88-.58,4-.77,6.07-1.18a27,27,0,0,0,5.89-2,27.51,27.51,0,0,0,4.63-2.81,23.54,23.54,0,0,0,2.85-2.55c.3-.31.53-.56.69-.74l.09,0,.71.48h0c.21.15.41.28.59.42l0,0c.18.14.35.27.51.42l0,0a5.11,5.11,0,0,1,.48.45l0,0a13.74,13.74,0,0,1,2.06,3.13l-1.21,1.57-.17.22c-1.55,2-3.22,4.08-4.85,6.13-3.21,4-6.23,7.81-7.66,9.9-.37.53-.7,1.06-1,1.58l-.2.34a24.51,24.51,0,0,0-1.59,3.08l-.08.18A17.52,17.52,0,0,0,97.16,163.54Zm13.37,18.29c-.41.37-.84.79-1.26,1.2-1.15,1.13-2.47,2.42-3.23,2.28s-1.4-2.64-1.92-4.31a22,22,0,0,0-1.05-3,71.55,71.55,0,0,0-4.29-7.54,8,8,0,0,1-1.12-2.75,10,10,0,0,1-.16-1.24v0a9.33,9.33,0,0,1,0-1.29v0a11,11,0,0,1,.2-1.35s0-.06,0-.09c.1-.46.22-.93.37-1.4v0c.15-.47.33-1,.53-1.45l.09-.2c.2-.48.43-1,.69-1.46v0c.26-.5.54-1,.85-1.51.06-.11.13-.22.2-.33.31-.51.64-1,1-1.55,1.41-2.07,4.43-5.86,7.63-9.87l2.88-3.62.25-.32.85-1.08.74-.93c.21-.28.41-.54.62-.8s.49-.64.73-.94l.17.34c.13.26.26.5.4.73,2,3.48,4.64,4.21,9.38,4.27h0c.09,2.28.29,4.57.48,6.79.16,1.8.31,3.51.39,5.11a37.46,37.46,0,0,1-8.4,8.9c-.37.27-.72.56-1.06.85l-.21.18C110.92,170.26,110.42,178.11,110.53,181.83Zm10.19,5.29A19.74,19.74,0,0,1,114,192a10.68,10.68,0,0,1-3.67.68,7.73,7.73,0,0,1-4.24-1.17c-.19-.13-.42-.29-.47-.49-.08-.39.48-.74.82-.92,1.22-.65,2.5-1.31,3.89-2l.09,0,1.25-.64c.66-.34,1.32-.69,2-1a14.61,14.61,0,0,0,3.37-2.63,20.9,20.9,0,0,1,2-1.74,30.25,30.25,0,0,1,5.4-2.94,29.56,29.56,0,0,0,6.42-3.67A82.72,82.72,0,0,1,120.72,187.12Zm10.42-13.05s0,.06,0,.09a8.11,8.11,0,0,1-.64.55c-.89.67-1.87,1.36-3,2.16l-.37.2-1.12.57-.34.16-1.48.7a32.46,32.46,0,0,0-5.5,3,21.53,21.53,0,0,0-2,1.8,13.88,13.88,0,0,1-3.21,2.52l-2.57,1.29a7.64,7.64,0,0,0,.49-3.28c0-.12-.1-.8-.13-1.86v0c-.11-3.35.27-11.28,5.61-16.15l.19-.16a12.46,12.46,0,0,1,1-.84,38.38,38.38,0,0,0,8.6-9.12.13.13,0,0,0,0-.06c3-4.38,5.12-9,5.47-12.1a11.33,11.33,0,0,1,1.55.26c0,.25.09,1.26.2,2.68a58.21,58.21,0,0,1,.19,6,24.75,24.75,0,0,1-.86,5.94,16,16,0,0,1-.93,2.58s.13-.24.34-.67a14.08,14.08,0,0,0,.75-1.86,21.85,21.85,0,0,0,1-6,43.58,43.58,0,0,0-.32-6.05c-.18-1.41-.33-2.41-.37-2.66a6.27,6.27,0,0,1,1.81.67,3.3,3.3,0,0,1,.78.61,2,2,0,0,1,.39.58c.07.32.13.69.19,1.08,0,.12,0,.25.05.37s0,.4.07.6a55.29,55.29,0,0,1-.12,11c0,.17,0,.33,0,.49s-.07.57-.11.85c-.08.57-.16,1.14-.26,1.71l0,.18C135.49,166.82,133.87,171.48,131.14,174.07Zm12.06-24.71a21.88,21.88,0,0,0,3.43,2.45c3.9,2.43,8.31,5.18,7.37,12.95a52.88,52.88,0,0,1-2.26,10.65,14.57,14.57,0,0,0-.85,4c-.08-.36-.16-.77-.24-1.21A37.05,37.05,0,0,1,150,171a37.82,37.82,0,0,0-.19-3.89,11.53,11.53,0,0,0-.86-3.29,7.15,7.15,0,0,0-1.33-2,6.4,6.4,0,0,0-.68-.62,5.66,5.66,0,0,1,.64.65,7.92,7.92,0,0,1,1.22,2,11.47,11.47,0,0,1,.78,3.26,37.38,37.38,0,0,1,.12,3.86,37.93,37.93,0,0,0,.78,7.24c.13.63.28,1.18.41,1.64,0,.21,0,.4,0,.62.38,4.87-.14,7.5-1.59,8.05l-.48.19a2.94,2.94,0,0,1-1,.3c-.65,0-1.47-.7-3.76-2.92a44.7,44.7,0,0,1-3.17-3.45,14.28,14.28,0,0,0-4.68-4.06,13.42,13.42,0,0,1-4.25-4c.47-.74.92-1.49,1.36-2.27h0s0,0,0,0a24.81,24.81,0,0,0,3-7.69c0-.08,0-.15,0-.22.1-.45.2-.91.29-1.36s.2-1.05.28-1.58l0-.07a53.46,53.46,0,0,0,.36-15v0l0,0,0-.08a19.53,19.53,0,0,0,1.18-3.35A22.35,22.35,0,0,0,143.2,149.36Zm42,15.7c-1.26,12.4-2.81,19-8.65,25.6-3,3.32-7.21,4-10.27,4h0a21.89,21.89,0,0,1-3-.21c4.81-.43,14.14-2.89,15.77-15.31.12-.93.24-1.84.35-2.72,1.82-14.2,2.89-22.47,15.45-26.86A20.46,20.46,0,0,0,185.23,165.06Zm-6.39,11.29c-.11.89-.23,1.79-.35,2.72-1.71,13.05-11.89,14.75-16.14,14.89,7.65-2.88,10.27-12.74,12.79-22.32,1.36-5.16,2.64-10,4.66-13.71A18.22,18.22,0,0,1,196,148.56C181.85,153,180.69,161.91,178.84,176.35Zm5.92,26.27a8.51,8.51,0,0,0-1,.28l-.18.08a3.27,3.27,0,0,1-.33.14c0-.1.05-.36.48-1l.07-.12a10.5,10.5,0,0,1,1.13-1.5,6.39,6.39,0,0,1,3.82-2.07,23,23,0,0,0,6.3-2.17c.5-.23,1-.47,1.52-.69a30.81,30.81,0,0,1,7.88-1.94l.34-.05c.13,0,1.51-.11,3-.11,2.73,0,3.33.31,3.47.38l-.14.06c-.37.14-.74.3-1.13.47l-.44.22c-.3.14-.59.28-.89.44s-.49.28-.74.42-.43.24-.65.38c-.49.3-1,.61-1.46.95a13.41,13.41,0,0,1-1.32.81,22.32,22.32,0,0,1-5.49,1.91,27.37,27.37,0,0,0-4,1.2l-.08,0c-.29.12-.57.26-.86.4l-.14.08c-.28.14-.55.3-.83.47l-.15.1c-.27.18-.54.37-.81.58a.69.69,0,0,0-.13.11,10.67,10.67,0,0,0-.82.71,11,11,0,0,1-2.68-.46l-.11,0h0a4.32,4.32,0,0,0-.8-.14c-.22,0-.43,0-.63-.05h-.48A8.53,8.53,0,0,0,184.76,202.62Zm-3.45,8.87a3.12,3.12,0,0,1-1.17-.09c-.18-.06-.3-.18-.27-.29a15.23,15.23,0,0,0,2-2.91,11.33,11.33,0,0,1,2.39-3.26,13.38,13.38,0,0,1,2.74-1.86h0l.52,0a4.45,4.45,0,0,1,.73.12l.76.2.39.09.23,0c.35.07.69.13,1,.16l-.26.28-.51.6a54.83,54.83,0,0,0-5.24,6.61v0Zm8.93,6.36q-.11.61-.18,1.2c0,.1,0,.2,0,.29,0,.35-.07.69-.08,1,0,.06,0,.12,0,.17a19.29,19.29,0,0,0,.08,2.56,10.54,10.54,0,0,1-2.06.77l-.78.22a9.88,9.88,0,0,1-2.17.45c-.24,0-.4,0-.45-.12s-.09-.19.06-.61c.42-1.16.11-2.47-.26-4a19.34,19.34,0,0,1-.64-3.91,7.7,7.7,0,0,1,1.38-4.35,48.5,48.5,0,0,1,4.5-5.76l.12-.14.8-.92.07-.08.22-.25c.25-.29.5-.54.75-.78s.45-.42.68-.61l.24-.2c.23-.18.47-.35.7-.5l.23-.15c.25-.16.49-.3.74-.43l.19-.1c.27-.13.53-.26.8-.37l.1,0a26.61,26.61,0,0,1,3.87-1.17,19.39,19.39,0,0,0,7-2.82c.43-.3.86-.59,1.3-.86l.18-.11c.38-.23.76-.45,1.15-.66l.17-.09c.4-.21.8-.41,1.2-.59l.12-.05c.44-.2.88-.39,1.33-.56h0a19.62,19.62,0,0,1,2.67-.81,1.13,1.13,0,0,0-.1.13,3.67,3.67,0,0,0-.23.29l-.13.19-.23.34c0,.08-.11.16-.16.25l-.23.37c-.13.22-.26.46-.39.71-1.8,3.34-6.76,7.13-9.4,8.84a20.6,20.6,0,0,1-3.16,1.72,7.6,7.6,0,0,0-.8.38,13.93,13.93,0,0,0-1.28.73c-2.29,1.44-6.93,5-7.91,10.37Zm21.82-3.17v0a17.16,17.16,0,0,1-.21,3.64.41.41,0,0,0,0,.11v0a15.29,15.29,0,0,1-3.65,7.57c-2.64,3-6.1,4.57-8,4.57h-.11a18.2,18.2,0,0,0-4.4.5,10.24,10.24,0,0,1-1.87.29c-.53,0-.63-.17-.67-.33a9.11,9.11,0,0,0-.51-1.23,21.07,21.07,0,0,1-2-7.14c0-.41-.06-.81-.07-1.22s0-.81,0-1.24c0-.17,0-.34,0-.51a17.06,17.06,0,0,1,.23-1.8c1.25-6.92,8.78-10.63,8.87-10.68l.62-.3.14-.06a20.26,20.26,0,0,0,3.24-1.76c.75-.48,7.32-4.81,9.61-9.06.16-.31.31-.58.46-.82l.16-.26c.08-.13.16-.26.24-.37l.17-.26.13-.16a3.34,3.34,0,0,1,.89-.91h.07a.42.42,0,0,1,.23,0,.34.34,0,0,1,.11.05,2.4,2.4,0,0,1,.77.66,3.51,3.51,0,0,1,0,2.22c0,.12,0,.24-.07.37s-.07.29-.11.44,0,.18-.07.29-.08.32-.13.5-.07.27-.11.42-.08.31-.13.48c-.1.33-.2.68-.31,1.07l-.44,1.49c0,.1-.05.2-.08.31-.16.53-.31,1.08-.46,1.64l-.09.31c-.17.61-.34,1.24-.5,1.85l-.09.31-.5,1.9-.08.28c-.23.9-.45,1.74-.65,2.49,0,.07,0,.14,0,.22s-.09.35-.13.51c-.36,1.36-.58,2.25-.59,2.28a.2.2,0,0,0,0,.11C212,213.87,212,214.28,212.06,214.68Zm4.59,5.86A18,18,0,0,0,215,224.3c-.5,1.4-1.25,3.52-1.73,3.52v0c-.25,0-.24-1-.22-2.06a33,33,0,0,0-.61-7.31,18,18,0,0,0,.09-5c.07-.26.36-1.43.79-3.06,0-.13.07-.27.1-.42s0-.11.05-.17c.06-.24.12-.48.19-.73l.09.28.21.68.3.91c.07.23.15.46.24.7s.24.69.37,1.05c.08.21.15.42.23.64.22.59.45,1.18.69,1.81l.08.19,0,.08.11.28c.46,1.2.92,2.37,1.46,3.49C217.28,219.57,217,220,216.65,220.54Zm1.4-17.49c.63,1.15,1.06,2,1.41,2.69a10.33,10.33,0,0,0,2.88,3.94,12.22,12.22,0,0,0,1.47,1.1c1.89,1.29,3.68,2.5,3.85,8.52-.22,1-.39,2-.51,3a7.49,7.49,0,0,0,.06,1.61,4,4,0,0,1-.2,2.48,1.26,1.26,0,0,1-1.06.53,1.77,1.77,0,0,1-1.26-.55,17.38,17.38,0,0,0-2.19-1.95,15.44,15.44,0,0,1-2.36-2.15,15.91,15.91,0,0,1-2-3.19s0,0,0,0c-.61-1.26-1.12-2.56-1.65-3.92l-.08-.2c-.26-.67-.51-1.32-.74-1.94l-.2-.56-.44-1.25c-.06-.18-.11-.35-.17-.52-.13-.39-.27-.79-.38-1.17l-.15-.48c-.1-.36-.21-.72-.31-1.07,0-.11.06-.21.08-.32.17-.64.34-1.26.5-1.85,0-.1.05-.21.08-.31.17-.65.34-1.26.5-1.85l.08-.26c.16-.58.31-1.13.46-1.64,0-.1.05-.19.07-.28.15-.52.3-1,.43-1.48s.18-.61.26-.89l0-.1c0-.13.08-.26.11-.38A12.11,12.11,0,0,0,218.05,203.05Zm57.83-25.41a3,3,0,0,0-.15,1.93h0a1.07,1.07,0,0,1-.66.8.66.66,0,0,1-.23,0c-.62,0-1.53-1-2.34-6.07l-.06-.39a55.63,55.63,0,0,1-.21-13.87,28.09,28.09,0,0,0,.28-3.7,34.56,34.56,0,0,1,2.14-12.11,11,11,0,0,1,8.35-7.1h.65l-.08.12c-.12.17-.24.34-.35.53a6.67,6.67,0,0,0-.37.64c-.11.19-.2.39-.3.59s-.21.48-.31.73l-.24.65c-.07.19-.13.39-.19.59s-.35.1-.59.19a8.38,8.38,0,0,0-2.47,1.44,11.68,11.68,0,0,0-2.59,3.11,15.79,15.79,0,0,0-1.68,4.33,60.37,60.37,0,0,0-1,8.62c-.13,2.36-.22,3.93-.22,3.93s.15-1.56.38-3.92a60.89,60.89,0,0,1,1.09-8.56,15.81,15.81,0,0,1,1.58-4.29,11.76,11.76,0,0,1,2.51-3.1,8.83,8.83,0,0,1,2.38-1.51,4.6,4.6,0,0,1,.56-.21c0,.05,0,.11-.05.17-.06.23-.13.46-.19.69s-.13.56-.19.85-.1.47-.14.71-.09.59-.14.89l-.09.73v0s0,0,0,0a14.21,14.21,0,0,1-3.36,5.08c-2.59,2.53-1,10.11.11,15.12l.15.67c.63,3,0,5.05-.83,7.42a29.66,29.66,0,0,0-1.05,3.78C276,177.34,275.93,177.48,275.88,177.64Zm7.19-6.16c-1.36,1.85-2.65,3.6-3.26,4.67a8.31,8.31,0,0,1-1.7,2l-.29.27a6,6,0,0,1-.86.73.28.28,0,0,0-.32.12.28.28,0,0,1-.11.08l-.14,0h-.07c-.28-.13,0-1.16.14-1.55.05-.19.1-.34.12-.46a27.73,27.73,0,0,1,1-3.7c.78-2.35,1.52-4.57.85-7.73l-.15-.68c-1-4.58-2.63-12.26-.28-14.56a15.45,15.45,0,0,0,2.81-3.77c0,.26,0,.51,0,.76s0,.48,0,.72,0,.61,0,.92,0,.46,0,.68,0,.61.05.91,0,.43,0,.64,0,.58.09.86l.06.61c0,.28.08.54.13.8s.05.37.09.55.1.5.16.74.06.32.1.46.13.45.2.66.07.26.11.38.16.39.24.57a2.18,2.18,0,0,0,.11.27,3.39,3.39,0,0,0,.37.61,14.74,14.74,0,0,1,2.49,5.53,10.3,10.3,0,0,0,.66,2,4.2,4.2,0,0,1,.18.45l0,.13c.05.18.1.37.15.58l0,.12c0,.09,0,.19.05.28C285.41,168.29,284.22,169.91,283.07,171.48Zm8.41-28.56c3.82,4.69,1.66,15.88-1.1,22.33a39,39,0,0,0-2,5.63,5,5,0,0,1-.18.57h0c-.72-1.58-.6-5.2,1.38-9.72,2.19-5,1.51-10.11.32-16.77a35.57,35.57,0,0,0-1.34-5.56C289.34,140.35,290.34,141.51,291.48,142.92Zm-2.25,2.14c1.36,7.6,1.66,12-.28,16.43a19.82,19.82,0,0,0-1.83,7.36c0-.21-.08-.41-.11-.58-.07-.41-.14-.79-.22-1.17h0c0-.16-.06-.29-.09-.43s0-.11,0-.16c-.06-.25-.11-.45-.17-.64a.76.76,0,0,0,0-.11,4.22,4.22,0,0,0-.19-.49,10,10,0,0,1-.62-1.84,15.27,15.27,0,0,0-2.6-5.75c-1.23-1.54-2.08-7.07-1.52-12.27a.17.17,0,0,0,0-.05s0,0,0-.07c.38-3.33,1.33-6.5,3.15-8.39a1,1,0,0,1,.7-.29.9.9,0,0,1,.16,0,.84.84,0,0,1,.19.07,1,1,0,0,1,.18.17l.22.19a.87.87,0,0,0,.3.16l.78.8C287.58,138.57,288.37,140.24,289.23,145.06Zm37.68-80.44c-2.43.07-5.76,1.83-9.28,3.69-1.23.65-2.5,1.32-3.76,1.93a26.78,26.78,0,0,0-3.35,1.8c-.75.53-1.2,3.43-1.45,5.73a29,29,0,0,1-.27-5.23.3.3,0,0,0-.41-.31c-.38.15-9.26,3.78-12.28,6.18l-.52.42a.37.37,0,0,0-.1.17l-3.17,14.14a.29.29,0,0,0,0,.22l1.07,1.77A35.79,35.79,0,0,1,295.5,100a48.2,48.2,0,0,0-3.69-4.31.31.31,0,0,0-.25-.09.31.31,0,0,0-.23.15c-1.56,2.84-3.22,8.56-4.43,12.75-.36,1.24-.68,2.32-.93,3.11-1.06,3.37-2.91,14-3,14.41a.25.25,0,0,0,0,.17c.42,1,.78,2,1.13,3l.38,1c.17.48.38,1,.67,1.58a4.29,4.29,0,0,0,.42.68,3.22,3.22,0,0,1,.37.63.81.81,0,0,1,0,.32c0,.11,0,.21,0,.31a1.19,1.19,0,0,0,.47.91,2.34,2.34,0,0,0,.46.25.89.89,0,0,1,.43.27.76.76,0,0,1,.05.31,2.33,2.33,0,0,1-.36,1.17.22.22,0,0,1-.21.11l-.07,0-.21-.22a1.53,1.53,0,0,0-.74-.37,2,2,0,0,0-.54-.12h-.14l-.29,0a1.53,1.53,0,0,0-.75.38l-.06,0-.59.08a3.36,3.36,0,0,0,.55-1.77c0-.25,0-.49-.05-.74l0-.16a5.42,5.42,0,0,0-.41-1.86c-.18-.38-.34-.76-.51-1.14s-.33-.75-.5-1.12q-.6-1.3-1.23-2.61a.31.31,0,0,0-.38-.15,36.23,36.23,0,0,1-5.94,1c2.73-.83,6.22-2,6.8-2.67.89-1.06,3.09-15.64,3.51-18.5l.54-1.74c0-.08,3.23-8.14,4-9.57.38-.77,1.21-5.07,2.47-12.79a.3.3,0,0,0-.51-.27c-1.35,1.3-2.73,2.66-3.92,3.84S285.54,88.46,285,89c-.82.75-1.69,2.61-2.71,4.77-1.33,2.86-2.85,6.09-4.62,7.62-9.33,8.08-15,13.5-17,16.1-1.29,1.74-5.63,5.58-10.22,9.66l-.34.3a.3.3,0,0,0-.09.27.35.35,0,0,0,0,.11,173.3,173.3,0,0,1-5.86,16.37.33.33,0,0,0,0,.22s.07.22.64,2.2a35.8,35.8,0,0,1,.72,6.34c-.9-2.75-2.37-6-2.78-6a.33.33,0,0,0-.25.12c-1.54,2.11-3.68,5.69-5.75,9.15-1.86,3.12-3.62,6.06-4.8,7.69-4,6.46-8.85,14.11-9.29,14.64a.27.27,0,0,0-.09.12.3.3,0,0,0,0,.16c0,.65-.87,8.42-2.19,10.09a7.68,7.68,0,0,1-1.48,1.42,9.9,9.9,0,0,0-1.2,1.06,2.35,2.35,0,0,0-.56,1.73c0,.12,0,.24,0,.36s0,.21,0,.31l-.11-.16,0,0a2.53,2.53,0,0,0-1.12-.9.55.55,0,0,0-.31-.08.89.89,0,0,0-.4.11,8.26,8.26,0,0,1-1,.14q.16-.21.33-.39a2.06,2.06,0,0,1,1-.66l.21,0,.37-.07c1.11-.33,1.84-1.48,2.49-2.5.18-.29.36-.56.52-.79.69-.94,1.34-9,1.18-9.35a.32.32,0,0,0-.29-.17H220a32.31,32.31,0,0,1-6.26-1.37c1.59.14,3.51.26,5.08.26,2.16,0,2.76-.23,3-.37,1.69-.59,11.89-17.71,11.92-18.78a.33.33,0,0,0-.2-.31.28.28,0,0,0-.18,0c-1.31,0-15.24-1.75-16.55-2.45a14.16,14.16,0,0,1-3-2.39,10.34,10.34,0,0,0,2.54,1.26c1.49.54,16.94,2.56,17.88,2.58l.1,0c.62,0,1.74-1.74,5.23-8.09.69-1.24,1.28-2.32,1.52-2.71,1-1,4-10.05,5.64-15.21a.29.29,0,0,0-.13-.34.3.3,0,0,0-.36,0c-4.87,4.39-7.28,6.82-8.05,8.15-2.14,3.65-20.37,7.68-25.92,7.78-1.2,0-3.21.13-5.75.27-5.15.29-12.2.69-18.9.69a76.89,76.89,0,0,1-13-.84.28.28,0,0,0-.18,0s-4,1.89-5.59,2.6a4.83,4.83,0,0,0-2,2.58,5.11,5.11,0,0,1,1-2.73,23.57,23.57,0,0,1,3.13-2.44.3.3,0,0,0-.13-.55c-.51-.06-12.53-1.38-15-1.38h-.09a27.24,27.24,0,0,1-8.56-1.47l-.25-.11a5.26,5.26,0,0,0-2.33-.67,5.69,5.69,0,0,0-.87.19,1.64,1.64,0,0,1-1.55-.14l-.09-.07a1.27,1.27,0,0,0-1.14-.3,1.25,1.25,0,0,0-.35.27l-.1.1a.82.82,0,0,1-1-.14,2.57,2.57,0,0,1-.55-.9c0-.26.1-.52.15-.8a9,9,0,0,0,.23-3.19c0-.36,0-.73-.05-1.1a12.43,12.43,0,0,0-.22-1.36c.17.24.34.47.52.7.36.43.71.9,1.06,1.37a15.48,15.48,0,0,0,4.25,4.32,14.36,14.36,0,0,0,5.66,1.75c3.52.45,7,.75,10.2.89.45,0,3.38.31,6.77.66,5.41.55,12.14,1.23,14.95,1.42l11.85-.35c2.71-.08,15.1-1.69,15.63-1.76a.29.29,0,0,0,.22-.15.32.32,0,0,0,0-.27c-.07-.15-1.64-3.61-3.52-4.33-1.16-.44-4.46-1.4-6.68-2,2.16.06,5.56.28,6.78,1.06a67.6,67.6,0,0,1,6.2,5.41c.6.57.73.7.79.74a.32.32,0,0,0,.23.05c.55-.1,13.57-2.41,17.35-4.72a28.16,28.16,0,0,0,6.63-5.63l.16-.18c.26-.29,2.35-2.1,5-4.4,6-5.16,15.93-13.8,18.58-16.82,1.83-2.08,5.38-5.38,8.52-8.28,3.58-3.32,6.68-6.19,7.15-7.15s1.48-3.11,2.5-5.27l1.53-3.23a.32.32,0,0,0-.05-.34c-.11-.12-.22-.24-.34-.35a8.48,8.48,0,0,0-1.84-1.21c-.39-.22-.91-.56-1.51-.95-1.77-1.16-4-2.6-5.39-2.39a5,5,0,0,0-1.84,1c-.24.18-.47.36-.65.47L267.36,87c-1.84,1.1-3.75,2.24-5.57,3.44-2.55,1.68-4.43,2.81-7.12,3.15-1.11.14-4.16.21-8.8.21-3.92,0-7.63-.06-7.64,0a4.45,4.45,0,0,0-.87-.08,21.27,21.27,0,0,0-5,.91c-.27.16-.52.33-.77.51l-.14.09c-1.26.88-2.53,1.8-3.74,2.69l-.35.25L224.77,100l-1.46,1.08a1.5,1.5,0,0,0-.74,1,1.11,1.11,0,0,1-.25.48l-.1-.19a2,2,0,0,0-.14-.34,1.5,1.5,0,0,0-.16-.29.55.55,0,0,0-.14-.23c-.05-.08-.08-.15-.13-.24s-.11-.2-.17-.3-.16-.23-.23-.35a3,3,0,0,0-.93-1.23l-.12-.15a1.32,1.32,0,0,1,.87,0,2,2,0,0,1,.37.22,1.73,1.73,0,0,0,.78.38,1.68,1.68,0,0,0,1.28-.6l.26-.21L225.19,98q3.45-2.61,6.91-5.19a.3.3,0,0,0,.12-.22.29.29,0,0,0-.08-.23s-4.29-4.46-5.63-6.17a13.23,13.23,0,0,0-2.76-2.4l-.57-.42c-.56-.42-1.12-.82-1.69-1.23l-.6-.44-.56-.43a8.49,8.49,0,0,0-1.75-1.14.61.61,0,0,0-.34-.06.8.8,0,0,0-.4.25.73.73,0,0,1-.52.1,2.2,2.2,0,0,1-1.07-.38,1.55,1.55,0,0,0,.39-.18q.29-.16.57-.36a2.41,2.41,0,0,0,.24-.21A8.83,8.83,0,0,0,219,77.89h0a3.64,3.64,0,0,0,.38-.4,4.7,4.7,0,0,1,.16.49l.09.32c.37,1.18,1.55,1.84,2.6,2.42l.75.43a22.53,22.53,0,0,1,3.42,2.47c2.33,2.18,8.08,7.92,8.14,8a.28.28,0,0,0,.17.09,69.19,69.19,0,0,0,6.92.21c5.16,0,13-.19,14.19-.6A53.7,53.7,0,0,0,262,87.43c3.73-2.47,8.84-5.85,9.78-5.85a27.18,27.18,0,0,1,4.83,1.9c.69.32,1.37.64,2,.92l1,.44,1.84.77a5.72,5.72,0,0,0,.93.24l.58.13a.29.29,0,0,0,.29-.09c2.24-2.51,7.12-7,8.72-8.43l.37-.34c.88-.81,6.58-4,10.74-6.26,2.16-1.19,4-2.23,4.77-2.68,2.24-1.37,14.53-7,16.64-7.19.49-.05,1.09-.07,1.73-.1,2.08-.08,4.61-.18,6-1.18a.25.25,0,0,0-.11.12c0,.07-.16.25-.36.53C331,61.62,330,63.07,329,64.67,328.34,64.63,327.68,64.6,326.91,64.62Zm3-.39-.21.48h-.09C329.76,64.54,329.86,64.39,330,64.23Zm-6.62,65.62c-4.52-5.14-10.11-14.57-8.39-28.68,1.54-13.43,8.7-27,14.34-35.89h.2a152.18,152.18,0,0,0-6.73,18.29c-3,10.67-5.5,24.72-.39,41.63A10.28,10.28,0,0,0,323.34,129.85Zm4.07-33.09c.32,8.79-1.62,15-3.18,20a42.86,42.86,0,0,0-1.73,6.73c-4.45-15.86-2.2-28.89.84-39.77a148.26,148.26,0,0,1,6.8-18.43l.41,0h.19A118.45,118.45,0,0,0,327.41,96.76Zm3.47-32h-.48q.59-1.29,1.05-2.25C331.27,63.15,331.09,63.9,330.88,64.73Zm3.46-1.36a5.49,5.49,0,0,1-2.82,1.3c.46-1.9.87-3.4,1.15-4.36l.07-.24v0h0a0,0,0,0,0,0,0h0v0s0,0,0,0,0-.06,0-.08,0,0,0,0a.18.18,0,0,0-.05-.07.3.3,0,0,0-.11-.06s0,0,0,0h-.06l-.06,0-.06,0a3,3,0,0,0,.51-.5c1.25-1.62,19.22-19,21.41-21.11l4,4.18C355.92,44.36,336.81,61.38,334.34,63.37Z" transform="translate(-58.01 -26.16)"/> <path class="t" d="M280.84,169.26A10.24,10.24,0,0,1,280,171c-.59,1.17-1.19,2.3-1.66,3.16l-.74,1.45.89-1.37c.25-.42.56-.88.87-1.43l.91-1.68a11,11,0,0,0,.8-1.75c.2-.58.34-1.13.46-1.61.22-1,.33-1.59.33-1.59s-.2.62-.49,1.55C281.24,168.16,281.05,168.7,280.84,169.26Z" transform="translate(-58.01 -26.16)"/> <path class="u" d="M286.06,140.87a58.5,58.5,0,0,1,1.7,7.95,29.61,29.61,0,0,1,.35,5.56,13.12,13.12,0,0,1-.35,2.51,11.06,11.06,0,0,0,.52-2.5,24.43,24.43,0,0,0-.23-5.61,38.31,38.31,0,0,0-1.17-5.49C286.44,141.82,286.06,140.87,286.06,140.87Z" transform="translate(-58.01 -26.16)"/> <path class="v" d="M284.29,156.11a12.85,12.85,0,0,1-1.27-3.32,12.37,12.37,0,0,1-.29-1.6,9.22,9.22,0,0,0,.12,1.64,10.9,10.9,0,0,0,1.18,3.42,11.89,11.89,0,0,0,1.08,1.61,14.65,14.65,0,0,1,1,1.34,7.85,7.85,0,0,1,.72,1.46,6.72,6.72,0,0,0-.58-1.54C285.8,158.22,284.87,157.26,284.29,156.11Z" transform="translate(-58.01 -26.16)"/> </g> </svg>